{"glyphs":{"0":{"ha":707,"x_min":50,"x_max":658,"o":"m 658 456 q 632 667 658 569 q 551 836 606 765 q 460 918 508 889 q 368 946 407 946 l 324 946 l 282 933 q 226 903 257 925 q 89 713 129 832 q 50 475 50 594 q 58 360 50 418 q 81 247 67 294 q 174 63 114 135 q 350 -22 246 -22 l 388 -18 l 422 -7 l 492 29 q 624 228 582 90 q 658 456 658 331 m 644 457 q 610 233 644 343 q 482 40 564 97 q 417 6 457 19 q 317 -8 381 -8 q 179 74 250 -8 q 90 249 119 142 q 68 351 72 307 q 64 453 64 393 q 99 693 64 581 q 232 888 144 825 l 263 907 l 292 919 q 325 931 311 931 l 367 931 q 413 924 388 931 q 460 900 431 917 q 540 825 503 871 q 622 656 596 760 q 644 457 644 579 m 525 429 l 525 446 l 525 465 l 525 489 q 517 651 525 583 q 469 821 497 767 q 354 901 424 901 q 238 806 282 901 q 208 725 217 764 q 197 678 199 696 q 193 631 193 657 q 183 436 183 543 q 186 351 183 404 q 194 261 189 308 q 214 171 203 214 q 239 104 225 132 q 356 18 281 18 q 475 117 431 18 q 503 206 493 160 q 519 321 514 254 l 525 353 l 525 414 l 525 429 m 511 483 l 507 329 q 499 233 507 278 q 465 129 490 188 q 357 32 426 32 q 249 115 289 32 q 207 265 215 182 q 197 442 197 342 q 203 532 197 478 q 207 622 207 594 q 244 793 218 726 q 354 888 285 888 q 460 808 421 888 q 503 643 489 746 q 511 483 511 568 z "},"1":{"ha":711,"x_min":163,"x_max":542,"o":"m 542 -7 l 542 32 l 526 32 q 438 57 457 32 q 425 163 425 81 l 425 946 l 394 946 l 163 833 l 179 800 l 214 818 l 236 818 q 276 803 261 818 q 297 731 297 778 l 297 161 q 279 78 297 110 q 182 32 247 32 l 182 -7 l 542 -7 m 528 7 l 196 7 l 196 18 q 293 69 267 18 q 311 161 311 100 l 311 735 q 286 817 311 794 q 242 832 271 832 l 218 832 l 185 818 l 179 825 l 397 931 l 411 932 l 411 157 l 411 122 l 411 81 l 421 50 q 528 18 440 18 l 528 7 z "},"2":{"ha":711,"x_min":29,"x_max":653,"o":"m 653 185 l 614 185 l 590 150 q 550 118 571 126 q 499 110 528 110 l 421 110 l 199 110 q 343 258 272 179 l 447 381 l 488 431 q 578 599 554 511 q 594 717 594 660 q 515 888 594 828 q 321 946 436 946 q 219 928 261 946 q 140 874 176 910 q 57 681 74 801 l 56 672 l 93 672 q 164 783 108 740 q 293 828 221 828 q 421 771 372 828 q 464 624 464 719 q 385 411 464 535 q 208 199 315 306 l 118 110 l 29 28 l 29 -7 l 583 -7 l 653 185 m 632 171 l 572 7 l 43 7 l 43 22 l 222 193 q 399 408 331 306 q 478 628 478 540 q 431 786 478 731 q 294 842 383 842 q 163 800 217 842 q 83 686 108 758 l 71 686 q 149 863 92 801 q 322 932 218 932 q 547 824 481 932 q 581 717 568 785 q 550 568 581 629 q 472 438 519 506 q 344 283 431 378 l 218 151 l 164 96 l 496 96 l 549 108 q 621 171 604 129 l 632 171 z "},"3":{"ha":707,"x_min":57,"x_max":592,"o":"m 592 269 q 549 451 592 388 q 494 506 526 485 q 475 521 481 517 q 460 529 471 522 q 453 533 460 529 l 426 546 q 508 636 483 599 q 547 767 547 692 q 478 893 547 836 q 324 946 413 946 q 167 890 235 946 q 68 742 97 833 l 101 725 q 196 822 158 803 q 285 839 232 839 q 381 797 339 839 q 421 681 421 753 q 357 549 421 608 q 211 483 300 493 l 211 450 q 397 396 326 450 q 478 246 478 336 q 429 103 478 156 q 324 50 379 50 q 267 58 296 50 l 208 81 q 119 113 149 113 q 74 94 88 113 q 57 43 57 76 q 121 -12 57 4 q 271 -25 163 -25 q 483 60 382 -25 q 592 269 592 154 m 578 274 q 471 69 578 157 q 271 -11 374 -11 l 183 -11 l 131 -4 q 71 43 71 13 q 86 86 71 74 q 122 99 100 99 q 157 90 136 99 l 207 67 q 328 36 267 36 q 439 93 386 36 q 492 243 492 150 q 413 403 492 336 q 225 464 339 464 l 225 471 q 374 547 314 488 q 435 683 435 607 q 389 807 435 760 q 283 853 343 853 q 174 821 222 853 q 97 743 124 786 l 86 749 q 176 881 126 843 q 324 932 236 932 q 468 883 407 932 q 533 763 533 831 q 490 633 533 693 q 401 542 450 582 q 532 450 483 511 q 578 274 578 390 z "},"4":{"ha":708,"x_min":22,"x_max":660,"o":"m 660 236 l 660 346 l 536 346 l 536 946 l 451 946 l 22 331 l 22 236 l 410 236 l 410 -7 l 536 -7 l 536 236 l 660 236 m 646 250 l 522 250 l 522 7 l 424 7 l 424 250 l 36 250 l 36 329 l 458 932 l 522 932 l 522 332 l 646 332 l 646 250 m 424 332 l 424 815 l 81 332 l 424 332 m 410 346 l 107 346 l 410 772 l 410 346 z "},"5":{"ha":711,"x_min":67,"x_max":619,"o":"m 619 926 l 275 926 l 93 556 l 210 540 q 433 432 344 508 q 499 269 499 358 q 442 122 499 183 q 324 61 385 61 q 210 96 261 61 q 129 129 158 129 q 85 113 103 129 q 67 60 67 94 q 126 -4 67 21 q 275 -22 167 -22 q 490 82 378 -22 q 601 332 601 188 q 485 576 601 476 q 229 686 379 665 l 285 797 l 561 797 l 619 926 m 599 913 l 551 811 l 275 811 l 210 675 q 467 571 369 651 q 588 335 588 478 q 478 92 588 192 q 272 -8 368 -8 q 135 6 176 -8 q 81 60 81 29 q 97 104 81 92 q 131 115 113 115 q 207 81 153 114 q 325 47 260 47 q 454 111 394 47 q 513 263 513 176 q 451 428 513 350 q 239 549 379 511 q 113 569 189 561 l 283 913 l 599 913 z "},"6":{"ha":708,"x_min":60,"x_max":654,"o":"m 654 299 q 590 500 654 419 q 444 588 519 588 q 319 571 374 588 q 231 528 265 547 q 371 786 282 692 q 488 876 421 844 q 557 901 525 894 q 631 908 594 908 l 636 908 l 636 946 l 581 946 l 528 939 l 474 928 l 431 915 q 336 867 378 894 l 294 836 l 253 799 q 110 599 160 714 q 60 361 60 485 q 135 106 60 218 q 351 -22 221 -22 q 571 79 486 -22 q 654 299 654 179 m 640 299 q 557 88 640 182 q 350 -8 474 -8 q 143 115 225 -8 q 74 354 74 229 q 125 593 74 481 q 261 788 175 706 l 304 825 l 343 854 q 390 885 367 872 q 435 903 410 896 q 521 926 481 922 l 578 932 l 622 932 l 622 921 q 346 782 450 903 q 208 497 254 676 l 233 514 l 257 528 q 282 542 274 540 l 304 551 q 436 574 358 574 q 581 490 517 574 q 640 299 640 414 m 532 247 q 493 425 532 342 q 376 528 443 528 q 269 507 310 528 l 200 468 q 194 424 194 447 q 189 392 189 403 l 189 369 l 189 322 l 189 275 q 231 125 189 219 q 368 15 282 15 q 496 90 453 15 q 524 163 515 122 q 532 247 532 203 m 521 247 q 488 99 521 157 q 369 29 443 29 q 242 135 289 29 q 203 283 203 217 l 203 385 l 211 458 l 275 496 q 347 514 311 514 q 483 413 438 514 q 521 247 521 336 z "},"7":{"ha":711,"x_min":51,"x_max":649,"o":"m 649 893 l 649 926 l 144 926 l 51 699 l 82 686 q 158 776 117 753 q 279 801 208 801 l 522 801 l 249 -25 l 340 -25 l 649 893 m 635 913 l 635 894 l 329 -11 l 267 -11 l 543 815 l 281 815 q 178 797 228 815 q 76 703 108 765 l 68 706 l 153 913 l 635 913 z "},"8":{"ha":707,"x_min":85,"x_max":628,"o":"m 628 194 q 597 331 628 275 q 518 432 567 385 l 424 510 l 510 569 q 578 644 554 604 q 607 764 607 693 q 535 899 607 851 q 350 946 463 946 q 172 883 250 946 q 94 744 94 818 q 119 617 94 665 q 128 599 121 613 q 144 576 129 593 l 182 535 l 261 464 l 225 438 l 178 396 q 113 313 136 358 q 85 210 85 260 q 168 39 85 104 q 356 -22 246 -22 q 547 46 467 -22 q 628 194 628 113 m 614 196 q 533 50 614 114 q 356 -8 461 -8 q 178 49 251 -8 q 99 186 99 111 q 128 313 99 261 q 229 422 167 372 l 285 463 l 201 533 q 135 622 161 572 q 108 744 108 669 q 183 878 108 818 q 350 932 254 932 q 524 885 456 932 q 593 760 585 840 q 561 647 593 692 q 483 569 528 603 l 400 510 l 454 469 l 497 433 q 582 329 553 383 q 614 196 614 276 m 510 749 q 433 886 510 849 q 358 906 411 900 q 243 869 292 906 q 194 774 194 828 q 225 669 194 717 q 299 592 250 636 l 378 526 l 469 624 q 510 749 510 676 m 497 749 q 463 632 497 685 q 379 546 443 606 l 304 604 q 236 675 257 642 q 206 764 206 718 q 251 858 206 824 q 360 892 297 892 q 429 871 408 883 q 497 749 497 832 m 532 153 q 506 253 532 213 q 467 300 492 278 l 411 358 q 347 414 365 400 q 304 446 326 432 q 217 342 244 396 q 189 207 189 285 q 236 74 189 131 q 357 14 283 14 q 482 54 433 14 q 532 153 532 99 m 518 163 q 474 64 518 100 q 357 28 426 28 q 242 83 289 28 q 201 207 201 136 q 231 332 201 272 q 306 429 257 389 l 393 357 q 440 310 419 335 l 463 283 l 479 264 q 518 163 518 213 z "},"9":{"ha":707,"x_min":56,"x_max":647,"o":"m 647 560 q 572 818 647 706 q 351 946 486 946 q 133 840 218 946 q 56 618 56 742 q 117 415 56 497 q 263 329 186 329 q 390 349 339 329 q 478 389 446 371 q 336 129 432 229 q 78 14 224 14 l 72 14 l 72 -25 l 153 -21 l 190 -17 l 222 -11 q 360 47 293 6 q 571 271 494 136 q 647 560 647 403 m 633 551 q 557 276 633 411 q 351 58 479 140 q 231 3 289 18 q 86 -12 169 -12 l 86 0 q 235 36 165 0 q 360 136 304 72 q 499 419 454 250 l 456 394 l 403 368 q 268 343 343 343 q 131 424 190 343 q 69 618 69 506 q 149 836 69 739 q 353 932 228 932 q 561 807 481 932 q 633 551 633 697 m 517 594 q 478 789 517 701 q 339 901 422 901 q 210 826 254 901 q 176 671 176 763 q 211 494 176 578 l 244 442 q 351 390 292 390 l 408 401 q 507 453 475 421 l 517 533 l 517 594 m 504 631 q 497 532 504 571 l 490 458 q 426 421 468 436 q 350 404 388 404 q 221 504 265 404 q 190 669 190 579 q 200 756 190 718 q 219 817 207 790 q 339 888 264 888 q 467 779 419 888 q 504 631 504 690 z "}," ":{"ha":347,"x_min":0,"x_max":0,"o":""}," ":{"ha":347,"x_min":0,"x_max":0,"o":""},"!":{"ha":476,"x_min":154,"x_max":317,"o":"m 317 838 q 296 914 317 879 q 236 947 271 947 q 176 917 197 947 q 154 861 154 886 l 154 821 l 154 792 l 218 236 l 254 236 l 317 790 l 317 817 l 317 838 m 306 814 l 303 794 l 242 250 l 229 250 l 167 793 l 168 851 q 175 889 168 871 l 185 907 q 238 933 207 933 q 292 903 274 933 q 306 853 306 876 l 306 814 m 317 57 q 293 114 317 90 q 235 138 269 138 q 178 114 201 138 q 154 57 154 90 q 178 -1 154 22 q 235 -25 201 -25 q 293 -1 269 -25 q 317 57 317 25 m 306 57 q 286 8 306 32 q 236 -11 263 -11 q 190 10 211 -11 q 168 58 168 28 q 188 104 168 88 q 238 124 207 124 q 285 103 261 124 q 306 57 306 82 z "},"\"":{"ha":579,"x_min":90,"x_max":488,"o":"m 488 851 q 465 925 488 903 q 410 947 443 947 q 357 924 376 947 q 338 869 338 900 l 338 821 l 351 742 l 390 538 l 435 538 l 469 710 l 483 792 l 488 851 m 474 858 l 474 815 l 467 769 l 456 711 l 443 656 l 421 551 l 401 551 l 381 650 l 360 761 q 353 817 353 806 q 351 860 351 825 q 367 914 351 894 q 410 933 382 933 q 457 914 440 933 q 474 858 474 893 m 239 863 q 218 924 239 903 q 160 947 199 947 q 107 922 124 947 q 90 860 90 897 l 90 814 l 99 753 l 121 633 l 139 538 l 179 538 l 213 694 q 232 801 228 761 l 239 863 m 225 857 q 200 703 225 828 l 168 551 l 151 551 l 122 700 q 114 751 115 732 q 113 757 113 754 q 111 763 113 760 q 108 776 110 769 q 107 790 108 783 l 104 847 q 117 913 104 892 q 161 933 133 933 q 208 913 192 933 q 225 857 225 892 z "},"#":{"ha":708,"x_min":25,"x_max":683,"o":"m 683 283 l 683 353 l 513 353 l 556 571 l 683 571 l 683 640 l 569 640 l 635 946 l 563 947 l 497 640 l 283 640 l 344 947 l 274 947 l 213 640 l 25 640 l 25 571 l 197 571 l 153 353 l 25 353 l 25 283 l 139 283 l 76 -25 l 146 -25 l 211 283 l 426 283 l 365 -26 l 435 -25 l 497 283 l 683 283 m 669 297 l 485 297 l 422 -11 l 382 -12 l 444 297 l 199 297 l 133 -11 l 92 -11 l 154 297 l 39 297 l 39 339 l 163 339 l 211 585 l 39 585 l 39 626 l 222 626 l 285 933 l 326 933 l 264 626 l 508 626 l 575 932 l 617 933 l 553 626 l 669 626 l 669 585 l 546 585 l 493 339 l 669 339 l 669 297 m 501 585 l 256 585 l 206 339 l 450 339 l 501 585 m 485 571 l 439 353 l 224 353 l 268 571 l 485 571 z "},"$":{"ha":708,"x_min":74,"x_max":638,"o":"m 638 217 q 588 374 638 314 q 522 438 556 411 l 446 496 l 371 549 l 371 882 q 507 817 467 865 q 543 753 531 789 q 554 672 554 713 l 554 665 l 594 665 l 594 879 q 483 922 554 900 l 421 936 l 400 942 l 371 942 l 371 1004 l 314 1004 l 314 942 q 146 874 207 928 q 74 729 74 808 q 110 590 74 647 q 201 492 143 538 l 261 450 l 314 418 l 314 33 q 174 89 218 49 q 129 150 142 117 q 115 228 115 182 l 115 233 l 74 233 l 74 31 q 192 -8 111 8 q 314 -25 269 -25 l 314 -112 l 371 -112 l 371 -25 q 557 50 486 -12 q 638 217 638 118 m 625 213 q 543 58 625 128 q 458 7 507 28 q 363 -12 411 -12 l 357 -12 l 357 -99 l 328 -99 l 328 -12 l 318 -12 l 261 -8 l 206 1 q 88 39 144 17 l 88 219 l 104 219 q 168 76 117 119 q 318 19 221 32 l 328 18 l 328 425 l 263 464 l 215 497 l 161 543 q 125 590 138 567 q 88 729 88 653 q 163 868 88 810 q 328 929 226 919 l 328 990 l 357 990 l 357 928 l 374 928 q 403 925 382 928 l 407 925 q 446 918 422 924 q 500 900 476 910 q 511 896 503 899 q 581 871 544 883 l 581 679 l 567 679 q 513 832 554 782 q 364 896 461 883 l 357 897 l 357 542 l 474 458 q 579 360 546 404 q 625 213 625 296 m 328 560 l 328 896 q 222 857 251 878 q 179 758 179 819 q 226 640 179 696 q 328 560 265 597 m 314 586 q 231 658 253 631 q 193 757 193 708 q 225 843 193 814 q 314 881 263 872 l 314 586 m 531 196 q 501 283 531 240 q 433 350 476 317 l 357 406 l 357 19 l 417 31 l 444 44 q 510 113 486 75 q 531 196 531 149 m 517 183 q 475 88 517 129 q 371 33 433 46 l 371 379 l 414 349 l 436 331 q 493 271 474 299 q 517 183 517 235 z "},"%":{"ha":1171,"x_min":49,"x_max":1122,"o":"m 1122 207 q 1071 381 1122 308 q 918 463 1010 463 q 768 381 825 463 q 719 208 719 307 q 769 38 719 111 q 924 -46 826 -46 q 1075 36 1018 -46 q 1122 207 1122 104 m 1108 207 q 1106 158 1108 183 q 1099 118 1104 142 q 1065 46 1086 82 q 924 -32 1013 -32 q 779 47 833 -32 q 732 210 732 115 q 778 371 732 303 q 919 450 832 450 q 1061 371 1007 450 q 1108 207 1108 301 m 1015 210 q 1011 282 1015 247 q 1001 340 1006 321 q 921 428 975 428 q 839 339 860 428 q 826 208 826 288 l 831 132 l 840 76 q 919 -7 865 -7 q 1000 79 976 -7 q 1006 97 1003 88 q 1011 115 1011 113 q 1013 139 1013 119 q 1014 149 1013 142 l 1015 158 l 1015 181 l 1015 210 m 1001 207 q 997 146 1001 178 q 988 89 993 111 q 919 7 964 7 q 851 88 868 7 q 840 207 840 129 l 843 276 l 850 328 q 914 414 874 414 q 981 361 957 414 q 1001 207 1001 307 m 963 947 l 886 947 l 207 -46 l 285 -46 l 963 947 m 938 933 l 276 -32 l 232 -32 l 894 933 l 938 933 m 454 690 q 406 864 454 790 q 253 947 343 947 q 99 865 156 947 q 49 690 49 790 q 99 518 49 589 q 253 438 154 438 q 406 519 349 438 q 454 690 454 589 m 440 690 q 394 528 440 594 q 250 450 342 450 q 168 469 204 450 q 107 529 131 493 q 63 692 63 594 q 110 856 63 788 q 253 933 167 933 q 394 854 343 933 q 440 690 440 782 m 344 690 q 331 821 344 771 q 250 910 306 910 q 168 824 189 910 q 157 676 157 782 q 179 524 157 581 q 251 471 207 471 q 331 557 307 471 q 344 690 344 604 m 331 688 q 318 567 331 628 q 249 485 293 485 q 179 568 199 485 q 171 706 171 614 q 190 846 171 792 q 256 896 214 896 q 319 810 300 896 q 331 688 331 763 z "},"&":{"ha":1094,"x_min":51,"x_max":1053,"o":"m 1053 169 l 1014 196 q 969 118 1000 143 q 889 92 942 92 l 836 100 q 785 126 800 114 l 742 164 l 699 211 q 769 308 742 263 l 831 408 l 869 476 q 918 538 899 518 q 956 554 933 550 q 1000 561 979 561 l 1007 561 l 1007 599 l 708 599 l 708 561 q 754 542 735 561 q 771 483 771 521 q 747 399 771 453 q 660 261 717 332 l 610 326 l 571 385 l 531 453 l 489 526 l 589 585 q 674 664 642 624 q 710 783 710 717 q 654 900 710 853 q 507 947 599 947 q 347 883 418 947 q 276 744 276 819 l 281 671 l 292 614 q 329 518 304 572 q 200 435 253 475 q 94 325 128 379 q 51 171 51 261 q 128 25 51 83 q 292 -28 201 -28 q 460 8 381 -28 l 525 50 l 561 78 l 594 103 q 701 13 656 42 q 844 -28 765 -28 q 978 29 921 -28 q 1053 169 1025 79 m 1039 163 q 965 35 1013 82 q 853 -14 917 -14 q 744 7 789 -14 q 667 57 713 21 l 599 121 l 536 68 l 508 49 l 460 21 q 446 14 457 19 q 436 10 442 13 q 411 1 426 6 q 285 -14 357 -14 q 140 35 210 -14 q 65 188 65 93 q 89 288 65 239 q 158 382 110 332 q 347 511 239 460 l 347 518 l 307 614 q 290 740 290 671 q 356 875 290 814 q 507 933 421 933 q 644 889 592 933 q 696 782 696 842 q 660 669 696 718 q 575 592 628 624 q 476 535 546 569 l 469 532 l 510 461 l 558 382 l 660 238 l 715 313 l 742 354 l 764 397 q 785 483 785 450 q 768 544 785 519 q 722 574 751 569 l 722 585 l 993 585 l 993 574 l 947 565 q 907 544 919 557 q 881 515 900 539 l 872 506 l 847 467 l 819 415 l 790 367 l 753 310 l 718 260 l 685 215 l 682 210 l 728 156 q 775 119 751 132 q 913 78 838 78 q 1024 174 990 78 l 1039 163 m 629 769 q 599 863 629 828 q 517 897 568 897 q 429 860 465 897 q 393 778 393 819 q 406 690 393 732 l 453 564 l 489 585 l 532 614 l 574 647 q 629 769 629 707 m 615 768 q 567 658 615 714 q 460 582 521 613 q 444 614 453 594 q 436 636 438 626 l 424 674 q 406 768 406 724 q 415 814 406 794 q 438 849 429 839 q 517 883 471 883 q 589 853 564 883 q 615 768 615 822 m 571 150 l 494 256 l 424 364 l 396 408 l 364 478 q 243 383 281 429 q 192 243 192 324 q 244 110 192 165 q 358 54 296 54 q 479 85 422 54 l 525 114 l 571 150 m 551 151 q 468 93 500 113 q 371 68 417 68 q 251 121 297 68 q 204 242 204 172 q 251 372 204 313 q 358 460 296 421 l 411 364 l 449 301 l 499 228 l 551 151 z "},"'":{"ha":264,"x_min":56,"x_max":206,"o":"m 206 867 q 183 925 206 903 q 125 947 161 947 q 72 924 88 947 q 56 863 56 899 l 56 815 l 64 753 l 89 626 l 107 538 l 150 538 l 190 746 l 201 819 l 206 867 m 192 865 l 192 822 l 182 765 l 154 640 l 138 551 l 119 551 l 89 700 q 74 790 76 763 q 69 850 69 826 q 85 913 69 890 q 125 933 99 933 q 174 915 156 933 q 192 865 192 897 z "},"(":{"ha":476,"x_min":57,"x_max":444,"o":"m 444 -308 l 444 -268 l 418 -250 l 385 -222 l 354 -193 l 332 -168 q 249 -18 276 -101 q 211 156 221 68 q 201 350 201 238 q 219 568 201 460 l 233 632 l 250 686 q 271 739 261 719 q 292 785 279 760 q 444 932 357 894 l 444 975 l 431 971 q 153 708 254 893 q 57 363 57 536 q 113 54 57 192 q 261 -181 167 -86 l 325 -235 q 444 -308 364 -265 m 431 -286 q 164 -31 256 -194 q 71 332 71 133 q 165 701 71 528 q 431 954 258 872 l 431 940 q 276 785 336 885 q 206 586 224 694 q 188 343 188 479 q 192 221 188 278 q 201 114 193 176 q 271 -100 226 -14 q 431 -275 329 -203 l 431 -286 z "},")":{"ha":476,"x_min":31,"x_max":419,"o":"m 419 304 q 365 614 419 476 q 300 743 333 692 q 214 850 263 801 q 175 886 200 865 q 126 919 154 904 l 31 976 l 31 932 l 89 886 q 147 831 117 864 q 192 763 174 797 q 226 682 211 725 q 267 514 256 601 q 275 314 275 431 q 257 92 275 199 q 185 -111 235 -31 q 31 -268 128 -208 l 31 -307 q 318 -44 210 -235 q 419 304 419 132 m 406 336 q 382 147 406 240 q 313 -29 360 60 q 44 -286 215 -204 l 44 -275 q 197 -118 140 -218 q 269 93 249 -35 l 283 164 l 283 203 l 288 324 q 269 560 288 447 q 203 765 250 676 q 44 940 144 869 l 44 954 q 313 696 215 865 q 406 336 406 532 z "},"*":{"ha":707,"x_min":99,"x_max":610,"o":"m 610 782 q 593 836 610 819 q 540 851 574 851 q 438 781 504 851 q 378 722 389 728 l 408 831 l 418 865 l 418 897 q 401 950 418 928 q 356 971 383 971 q 308 950 324 971 q 293 897 293 926 l 293 864 l 301 829 q 333 722 333 733 q 271 779 317 732 q 156 851 199 851 q 115 835 132 851 q 99 781 99 818 q 181 717 99 744 l 310 682 l 217 658 q 99 586 99 628 q 117 528 99 546 q 167 513 139 513 q 251 567 194 513 l 333 646 l 303 535 l 293 496 l 293 465 q 311 415 293 438 q 357 394 332 394 q 401 418 382 394 q 418 468 418 443 l 418 499 l 408 533 q 376 646 378 628 l 397 626 l 436 586 q 540 513 506 513 q 592 531 574 513 q 610 585 610 547 q 524 650 610 625 l 399 683 l 525 717 q 610 782 610 747 m 596 785 q 546 736 596 757 q 467 715 528 728 l 414 700 l 382 688 l 367 683 q 393 674 378 675 l 418 663 l 444 650 l 467 646 l 547 625 q 596 578 596 600 q 579 539 596 550 q 544 526 563 526 q 490 553 521 526 l 443 601 q 404 640 425 624 l 363 674 l 367 628 l 383 563 q 400 504 394 528 q 404 469 404 482 q 390 428 403 450 q 357 408 379 408 q 321 424 332 413 q 307 468 307 442 q 319 538 307 496 l 342 607 l 347 642 l 350 674 l 304 640 l 267 606 l 232 568 q 165 526 190 526 q 126 538 142 526 q 113 578 113 551 q 163 628 113 606 q 246 650 178 638 l 296 664 l 342 682 l 292 703 l 240 717 l 189 731 l 160 739 q 113 786 113 757 q 125 826 113 814 q 161 838 140 838 q 214 814 185 833 q 238 793 232 803 l 261 769 l 301 728 l 349 696 l 342 753 l 328 804 l 314 851 q 307 900 307 882 q 319 940 311 924 q 356 957 332 957 q 393 939 381 957 q 404 899 404 919 l 399 857 l 386 814 l 376 767 l 361 694 q 440 761 411 728 l 469 792 l 489 811 q 544 838 519 838 q 582 824 568 838 q 596 785 596 810 z "},"+":{"ha":797,"x_min":25,"x_max":769,"o":"m 769 428 l 769 496 l 431 496 l 431 832 l 363 832 l 363 496 l 25 496 l 25 428 l 363 428 l 363 89 l 431 89 l 431 428 l 769 428 m 756 442 l 417 442 l 417 103 l 376 103 l 376 442 l 39 442 l 39 482 l 376 482 l 376 818 l 417 818 l 417 482 l 756 482 l 756 442 z "},",":{"ha":360,"x_min":75,"x_max":290,"o":"m 290 -6 q 258 94 290 50 q 176 143 222 143 q 103 119 131 143 q 75 56 75 94 q 96 -3 75 18 q 142 -26 115 -26 q 178 -21 165 -26 l 213 -7 l 218 -11 l 222 -19 l 222 -56 q 176 -135 222 -87 q 75 -196 136 -176 l 75 -240 q 224 -157 169 -211 q 290 -6 290 -89 m 276 -21 q 218 -143 276 -85 q 89 -221 169 -192 l 89 -206 q 189 -139 151 -185 q 233 -51 233 -86 l 233 -19 l 228 -1 q 213 7 222 7 q 185 -1 204 7 q 144 -12 165 -12 q 104 8 121 -8 q 89 57 89 28 q 111 108 89 89 q 175 129 138 129 q 246 86 215 129 q 276 -21 276 43 z "},"-":{"ha":476,"x_min":57,"x_max":421,"o":"m 421 254 l 421 369 l 57 369 l 57 254 l 421 254 m 407 268 l 71 268 l 71 356 l 407 356 l 407 268 z "},".":{"ha":400,"x_min":119,"x_max":285,"o":"m 285 57 q 261 115 285 88 q 201 140 236 140 q 143 115 165 140 q 119 57 119 88 q 143 -1 119 22 q 201 -25 167 -25 q 260 0 232 -25 q 285 57 285 25 m 271 57 q 249 11 271 32 q 201 -11 226 -11 q 153 10 171 -11 q 133 58 133 32 q 153 107 133 85 q 201 126 172 126 q 251 104 231 126 q 271 57 271 81 z "},"/":{"ha":404,"x_min":1,"x_max":407,"o":"m 407 971 l 339 969 l 1 -26 l 69 -25 l 407 971 m 388 956 l 60 -12 l 19 -11 l 347 957 l 388 956 z "},":":{"ha":400,"x_min":119,"x_max":285,"o":"m 285 565 q 258 624 285 600 q 201 647 231 647 q 143 624 167 647 q 119 565 119 600 q 143 507 119 531 q 201 483 167 483 q 260 508 235 483 q 285 565 285 532 m 271 565 q 250 518 271 538 q 201 497 229 497 q 153 517 172 497 q 133 567 133 536 q 154 614 133 596 q 201 633 176 633 q 250 611 229 633 q 271 565 271 589 m 285 57 q 261 115 285 88 q 201 139 235 139 q 143 114 165 139 q 119 57 119 89 q 143 -1 119 22 q 201 -25 167 -25 q 260 0 232 -25 q 285 57 285 25 m 271 57 q 249 11 271 32 q 201 -11 226 -11 q 153 10 171 -11 q 133 58 133 32 q 153 106 133 86 q 201 125 172 125 q 251 103 231 125 q 271 57 271 79 z "},";":{"ha":399,"x_min":96,"x_max":311,"o":"m 281 568 q 257 624 281 603 q 197 647 233 647 q 139 624 163 647 q 115 567 115 600 q 139 508 115 532 q 197 485 163 485 q 257 510 232 485 q 281 568 281 536 m 267 565 q 246 518 267 538 q 197 499 224 499 q 151 518 174 499 q 129 567 129 536 q 150 614 129 596 q 199 633 172 633 q 247 611 228 633 q 267 565 267 588 m 311 -6 q 281 94 311 51 q 199 143 244 143 q 124 119 151 143 q 96 56 96 94 q 118 -4 96 17 q 163 -25 139 -25 l 200 -19 l 233 -6 l 233 -8 l 243 -18 l 243 -56 q 197 -135 243 -87 q 96 -196 157 -175 l 96 -240 q 244 -157 190 -211 q 311 -6 311 -89 m 297 -21 q 238 -143 297 -83 q 110 -221 194 -189 l 110 -206 q 211 -139 174 -185 q 257 -51 257 -85 q 249 -7 257 -19 q 233 7 240 7 l 207 0 l 200 -4 q 193 -8 193 -8 q 185 -10 188 -8 q 165 -11 181 -11 q 125 6 143 -11 q 110 57 110 29 q 132 108 110 89 q 197 129 158 129 q 269 85 238 129 q 297 -21 297 44 z "},"<":{"ha":797,"x_min":26,"x_max":769,"o":"m 769 115 l 768 192 l 151 461 l 768 731 l 769 806 l 26 483 l 26 442 l 769 115 m 756 138 l 40 450 l 40 474 l 756 785 l 754 740 l 117 464 l 754 182 l 756 138 z "},"=":{"ha":797,"x_min":25,"x_max":771,"o":"m 771 536 l 771 604 l 25 604 l 25 536 l 771 536 m 757 550 l 39 550 l 39 590 l 757 590 l 757 550 m 771 314 l 771 385 l 25 385 l 25 314 l 771 314 m 757 328 l 39 328 l 39 371 l 757 371 l 757 328 z "},">":{"ha":797,"x_min":24,"x_max":768,"o":"m 768 439 l 768 481 l 25 806 l 25 729 l 642 458 l 24 190 l 25 115 l 768 439 m 754 447 l 39 138 l 38 181 l 676 458 l 39 738 l 39 783 l 754 471 l 754 447 z "},"?":{"ha":631,"x_min":63,"x_max":575,"o":"m 575 726 q 493 893 575 832 q 318 947 418 947 q 143 896 215 947 q 63 772 63 836 q 82 669 63 706 q 138 632 108 632 q 189 653 171 632 q 206 693 206 672 q 185 753 206 715 q 164 824 164 790 q 206 876 164 854 q 299 896 242 896 q 399 839 354 896 q 435 724 435 786 q 408 593 435 663 l 388 549 l 351 478 l 321 415 l 303 368 l 293 326 q 292 321 293 325 q 288 308 289 310 l 288 283 l 279 210 l 321 210 l 321 221 q 325 268 321 246 q 336 311 329 289 q 382 397 350 353 l 507 549 q 575 726 575 638 m 561 739 q 515 583 561 654 q 419 467 497 553 q 335 346 357 400 q 317 290 322 318 l 308 224 l 293 224 l 294 260 l 300 294 l 314 357 q 365 475 328 399 l 396 535 l 422 590 q 449 726 449 656 q 404 851 449 792 q 299 910 361 910 q 192 885 233 910 q 150 825 150 860 q 171 750 150 792 q 192 694 192 708 q 175 660 188 672 q 138 646 163 646 q 90 681 108 646 q 76 772 76 707 q 151 885 76 838 q 318 933 228 933 q 490 879 418 933 q 561 739 561 824 m 388 58 q 363 117 388 92 q 304 140 338 140 q 247 117 271 140 q 224 57 224 93 q 247 -1 224 22 q 306 -25 271 -25 q 364 0 339 -25 q 388 58 388 26 m 374 58 q 354 10 374 29 q 304 -11 333 -11 q 257 10 276 -11 q 238 58 238 32 q 257 107 238 88 q 306 126 276 126 q 353 104 333 126 q 374 58 374 82 z "},"@":{"ha":1294,"x_min":65,"x_max":1261,"o":"m 1261 124 l 1208 124 l 1206 119 q 993 -150 1128 -58 q 643 -250 854 -250 q 288 -101 435 -250 q 178 63 213 -26 q 143 250 143 146 q 217 600 143 447 q 413 831 289 749 q 725 924 547 924 q 1024 810 897 924 q 1150 550 1150 696 q 1139 415 1150 482 q 1107 299 1129 356 q 983 124 1056 172 l 954 104 l 929 92 q 872 78 896 78 q 838 92 851 79 q 826 131 826 107 q 861 289 826 153 l 928 519 l 971 661 l 850 643 l 832 583 q 788 642 818 625 q 721 661 757 661 l 683 657 l 640 643 l 607 625 l 574 604 q 406 413 475 532 q 336 204 336 293 q 368 68 336 117 q 458 15 410 15 q 513 22 485 15 l 564 44 q 650 110 603 65 l 721 190 q 715 157 715 174 l 715 138 l 715 108 q 744 38 715 65 q 857 15 771 15 q 1028 92 942 15 q 1160 276 1115 168 q 1206 550 1206 388 q 1068 840 1206 710 q 683 971 932 971 q 249 775 432 971 q 65 310 65 579 q 235 -132 65 42 q 636 -304 403 -304 q 1038 -185 868 -304 q 1261 124 1207 -65 m 1243 110 q 1019 -181 1174 -76 q 843 -265 935 -240 q 635 -290 751 -290 q 244 -122 408 -290 q 79 313 79 47 q 261 765 79 574 q 683 957 443 957 q 897 926 806 957 q 1056 835 992 896 q 1192 550 1192 707 q 1149 281 1192 389 q 1025 104 1106 172 q 858 29 940 29 q 751 50 776 29 q 726 110 726 74 l 731 174 l 743 238 q 622 104 696 167 q 471 29 533 29 q 376 78 410 29 q 350 204 350 118 q 418 408 350 289 q 492 511 457 472 q 579 590 533 557 l 606 610 l 651 632 q 728 647 685 647 q 772 636 763 642 q 833 543 821 608 l 860 629 l 953 642 l 910 507 l 844 283 q 813 129 813 156 q 828 81 813 100 q 871 64 849 64 q 929 78 893 64 l 969 100 l 992 114 q 1119 286 1076 175 q 1164 553 1164 400 q 1036 819 1164 700 q 728 936 910 936 q 411 843 546 936 q 203 601 276 750 q 129 249 129 453 q 279 -108 129 49 q 640 -264 426 -264 q 999 -164 856 -264 q 1217 110 1144 -62 l 1243 110 m 814 521 q 790 600 814 569 q 722 628 765 628 q 586 543 654 628 q 485 363 526 467 q 443 210 443 257 q 465 126 443 161 q 519 96 490 96 q 578 110 551 96 l 624 135 q 760 310 703 201 q 814 521 814 417 m 801 524 q 742 310 801 428 q 607 139 681 190 l 583 124 l 561 115 q 521 110 549 110 q 476 138 496 110 q 457 211 457 165 q 497 358 457 250 l 518 408 l 544 456 l 564 486 l 596 532 q 713 615 667 615 q 779 589 757 615 q 801 524 801 563 z "},"A":{"ha":1017,"x_min":11,"x_max":1003,"o":"m 1003 -7 l 1003 32 l 994 32 q 899 76 936 32 q 844 178 875 106 l 521 947 l 488 947 l 163 186 l 129 114 q 85 58 107 74 q 11 31 53 35 l 11 -7 l 314 -7 l 315 32 l 307 32 q 250 39 281 32 q 208 86 208 58 q 221 140 211 106 l 258 231 l 290 300 l 638 300 l 683 199 q 719 82 719 115 q 683 40 719 53 q 633 32 663 32 l 625 32 l 625 -7 l 1003 -7 m 989 7 l 638 7 l 638 19 l 671 19 l 699 31 q 732 81 732 47 q 693 203 732 113 l 644 314 l 281 314 l 231 206 q 194 83 194 110 q 232 32 194 49 q 300 19 261 24 l 300 7 l 25 7 l 25 19 q 122 75 89 33 q 175 181 143 97 l 496 932 l 511 933 l 832 174 q 886 71 863 99 q 933 32 911 44 q 989 19 961 19 l 989 7 m 636 351 l 465 746 l 296 351 l 636 351 m 611 365 l 318 365 l 467 711 l 611 365 z "},"B":{"ha":939,"x_min":24,"x_max":864,"o":"m 864 278 q 850 339 864 311 q 808 397 836 367 q 671 471 760 449 q 801 575 764 517 q 825 653 825 611 q 667 886 825 819 q 428 926 575 926 l 24 926 l 24 888 q 111 867 82 888 q 156 757 156 835 l 156 161 q 119 71 156 110 q 24 32 83 32 l 24 -7 q 599 1 526 -7 q 719 33 668 7 q 819 117 782 63 q 853 183 840 144 q 864 278 864 225 m 850 286 l 850 226 l 840 186 l 825 150 l 808 124 q 713 44 774 74 q 686 32 693 33 q 671 28 683 31 q 656 24 667 26 q 592 13 629 17 l 560 7 l 499 7 l 483 7 l 465 7 l 38 7 l 38 18 q 136 64 103 31 q 169 163 169 101 l 169 753 q 149 849 169 815 q 38 901 117 901 l 38 913 l 431 913 q 551 903 501 913 q 654 874 606 892 q 807 654 807 808 q 714 514 807 574 q 665 488 696 501 q 622 471 642 476 q 782 406 729 446 q 850 286 850 346 m 679 678 q 594 836 679 781 q 524 871 557 860 q 451 881 493 881 l 347 881 l 286 865 l 286 500 l 356 493 l 444 489 l 463 489 q 599 526 535 489 q 679 678 679 574 m 665 678 q 588 536 665 581 q 447 503 524 503 l 368 506 l 300 513 l 300 856 l 354 868 l 450 868 q 585 825 515 868 q 665 678 665 774 m 708 247 q 613 410 708 354 q 456 457 536 457 l 347 456 l 286 449 l 286 58 l 325 49 l 367 42 l 382 42 l 410 42 l 444 42 l 460 42 l 478 42 q 625 88 554 42 q 708 247 708 140 m 693 235 q 614 96 693 146 q 546 65 579 74 q 481 56 515 56 q 376 60 413 56 l 300 72 l 300 438 l 332 443 l 403 443 q 461 439 431 443 q 514 429 478 436 l 525 428 q 640 372 600 411 q 693 235 693 324 z "},"C":{"ha":942,"x_min":50,"x_max":894,"o":"m 894 218 l 863 239 l 808 171 l 779 138 q 683 69 735 93 q 508 46 629 46 q 297 164 386 46 q 219 414 219 274 q 249 658 219 557 q 343 817 275 757 q 538 885 415 885 q 729 814 657 885 q 836 626 803 742 l 838 621 l 871 621 l 849 950 l 814 950 q 797 906 807 922 q 769 885 779 885 l 746 889 l 724 899 q 665 924 694 914 q 506 950 592 950 l 479 950 l 446 950 q 181 800 317 950 q 50 449 50 657 q 178 107 50 242 q 469 -28 304 -28 q 729 33 636 -28 q 890 213 819 94 l 894 218 m 875 214 q 717 42 803 99 q 468 -14 632 -14 q 185 119 306 -14 q 64 449 64 251 q 194 794 64 654 q 446 936 324 936 l 496 936 q 606 924 543 936 q 717 885 672 908 l 740 875 q 769 871 751 871 q 801 890 786 875 q 822 936 814 906 l 835 935 l 856 633 l 846 635 q 738 825 808 763 q 536 899 658 899 q 335 829 417 899 q 232 658 265 768 q 206 415 206 571 q 288 154 206 265 q 519 32 383 32 q 735 85 657 32 q 865 221 794 125 l 875 214 z "},"D":{"ha":1015,"x_min":24,"x_max":963,"o":"m 963 465 q 839 782 963 665 q 593 906 749 871 q 406 926 501 926 l 24 926 l 24 888 q 108 867 78 888 q 156 757 156 836 l 156 164 q 135 78 156 107 q 24 32 100 32 l 24 -7 l 442 -7 q 800 100 664 -7 q 939 311 901 182 q 951 350 950 339 q 954 363 951 353 q 957 382 956 374 q 958 390 957 386 q 963 428 960 411 l 963 465 m 949 468 q 926 322 949 401 q 792 113 883 188 q 442 7 665 7 l 38 7 l 38 18 q 121 40 86 18 q 169 163 169 76 l 169 756 q 149 850 169 817 q 38 901 114 901 l 38 913 l 403 913 q 588 892 499 913 q 829 772 743 853 q 949 468 949 661 m 808 460 q 713 753 808 639 q 504 875 608 875 q 365 871 394 875 l 317 861 l 286 854 l 286 61 l 436 42 l 468 42 q 582 61 526 42 q 714 165 663 93 q 808 460 808 279 m 794 460 q 703 174 794 286 q 507 56 606 56 l 422 56 l 371 60 l 300 72 l 300 843 l 365 857 q 500 861 403 861 q 701 743 604 861 q 794 460 794 633 z "},"E":{"ha":865,"x_min":29,"x_max":833,"o":"m 833 238 l 792 238 q 694 107 753 153 q 649 79 675 89 q 586 58 624 67 l 375 58 q 324 82 343 58 q 304 153 304 106 l 304 450 l 497 450 q 568 432 547 440 q 638 313 638 396 l 675 313 l 675 646 l 638 646 l 638 635 q 604 542 638 571 q 499 513 569 513 l 304 513 l 304 863 l 550 863 q 674 835 638 863 q 721 718 708 808 l 722 711 l 761 711 l 750 926 l 29 926 l 29 888 q 125 854 90 888 q 158 767 158 821 l 158 161 q 138 76 158 106 q 29 32 106 32 l 29 -7 l 749 -7 l 833 238 m 813 222 l 739 7 l 43 7 l 43 18 q 154 69 124 18 q 175 164 175 107 l 175 767 q 154 851 175 821 q 43 901 121 901 l 43 913 l 736 913 l 746 724 l 732 725 q 675 849 708 826 q 549 876 640 876 l 290 876 l 290 499 l 499 499 q 594 521 554 499 q 649 633 649 554 l 661 633 l 661 326 l 649 326 q 544 458 639 438 l 499 463 l 290 463 l 290 153 q 304 81 290 110 q 372 44 324 44 l 586 44 l 625 54 l 664 67 q 800 222 753 115 l 813 222 z "},"F":{"ha":786,"x_min":22,"x_max":729,"o":"m 729 710 l 719 926 l 22 926 l 22 888 q 108 867 79 888 q 154 757 154 833 l 154 161 q 135 81 154 113 q 22 32 103 32 l 22 -7 l 431 -7 l 431 32 q 317 81 349 32 q 299 163 299 108 l 299 444 l 456 444 q 528 425 500 444 q 572 317 572 393 l 610 317 l 610 640 l 572 640 l 558 578 q 458 517 529 517 l 299 517 l 299 863 l 493 863 q 603 838 556 863 q 693 710 676 797 l 729 710 m 715 724 l 703 724 q 606 854 685 817 q 492 876 561 876 l 285 876 l 285 503 l 460 503 q 529 521 503 503 q 583 626 575 556 l 596 626 l 596 331 l 585 331 q 554 429 585 399 q 460 458 524 458 l 285 458 l 285 161 q 306 67 285 99 q 417 18 338 18 l 417 7 l 36 7 l 36 18 q 147 74 117 18 q 168 163 168 107 l 168 764 q 146 853 168 821 q 36 901 114 901 l 36 913 l 706 913 l 715 724 z "},"G":{"ha":1017,"x_min":49,"x_max":997,"o":"m 997 469 l 997 508 l 626 508 l 626 469 q 688 451 675 458 q 747 342 747 417 l 747 81 q 531 32 663 32 q 303 176 401 32 q 219 475 219 304 q 299 760 219 646 q 529 886 392 886 q 749 819 668 886 q 854 643 829 753 l 890 643 l 864 947 l 826 947 l 819 908 q 808 893 815 900 l 804 889 l 776 894 l 751 900 l 647 935 q 536 947 604 947 l 469 943 l 410 933 q 299 888 350 918 q 117 701 186 822 q 49 404 49 582 q 200 97 49 228 q 500 -28 346 -28 q 639 -22 589 -28 q 729 -6 694 -15 q 894 57 797 14 l 894 344 q 911 421 894 392 q 997 469 943 469 m 983 482 l 932 458 q 881 342 881 419 l 881 63 q 724 4 804 24 q 669 -8 685 -7 q 626 -10 658 -10 l 496 -14 q 207 108 343 -14 q 63 406 63 240 q 129 694 63 576 q 307 876 194 814 q 414 919 353 907 q 444 928 425 921 q 475 933 460 933 l 507 933 l 538 933 l 597 933 l 653 922 q 747 890 686 915 l 772 881 q 807 875 785 875 q 833 904 824 875 l 839 933 l 851 932 l 875 657 l 864 657 q 750 838 825 775 q 529 900 675 900 q 289 768 383 900 q 206 475 206 650 q 293 167 206 296 q 533 18 396 18 q 761 71 671 18 l 761 340 q 700 461 761 424 q 640 482 678 474 l 640 494 l 983 494 l 983 482 z "},"H":{"ha":1017,"x_min":24,"x_max":988,"o":"m 988 -7 l 988 32 q 890 67 925 32 q 857 163 857 104 l 857 756 q 878 844 857 815 q 988 888 908 888 l 988 926 l 581 926 l 581 888 q 692 842 661 888 q 713 756 713 807 l 713 500 l 300 500 l 300 756 q 322 865 300 843 q 432 888 344 888 l 432 926 l 24 926 l 24 888 q 132 857 101 888 q 156 783 156 826 l 156 756 l 156 161 q 135 78 156 107 q 24 32 100 32 l 24 -7 l 432 -7 l 432 32 q 319 78 351 32 q 300 163 300 113 l 300 436 l 713 436 l 713 167 q 678 67 713 101 q 581 32 643 32 l 581 -7 l 988 -7 m 974 7 l 594 7 l 594 18 q 707 83 679 32 q 726 167 726 114 l 726 450 l 286 450 l 286 153 q 307 65 286 94 q 418 18 342 18 l 418 7 l 38 7 l 38 18 q 147 67 118 18 q 168 163 168 100 l 168 761 q 147 856 168 825 q 38 901 114 901 l 38 913 l 418 913 l 418 901 q 310 871 332 901 q 286 756 286 839 l 286 486 l 726 486 l 726 758 q 706 849 726 815 q 594 901 674 901 l 594 913 l 974 913 l 974 901 q 861 851 893 901 q 843 757 843 821 l 843 161 q 861 82 843 113 q 974 18 894 26 l 974 7 z "},"I":{"ha":476,"x_min":35,"x_max":442,"o":"m 442 -7 l 442 32 q 329 81 358 32 q 310 163 310 113 l 310 761 q 331 842 310 813 q 442 888 367 888 l 442 926 l 35 926 l 35 888 l 103 874 q 167 757 167 844 l 167 167 q 146 79 167 111 q 35 32 111 32 l 35 -7 l 442 -7 m 428 7 l 49 7 l 49 18 q 131 40 100 18 q 181 163 181 76 l 181 758 q 158 847 181 813 q 49 901 124 901 l 49 913 l 428 913 l 428 901 q 346 881 375 901 q 296 757 296 842 l 296 161 q 317 65 296 99 q 428 18 351 18 l 428 7 z "},"J":{"ha":554,"x_min":29,"x_max":546,"o":"m 546 888 l 546 926 l 139 926 l 139 888 q 226 867 197 888 q 271 757 271 835 l 271 122 l 263 72 q 231 35 249 35 q 176 99 206 35 q 110 161 147 161 q 49 139 67 161 q 29 74 29 115 q 76 -1 29 29 q 207 -28 115 -28 q 363 83 297 -28 q 414 307 414 172 l 414 756 q 449 853 414 818 q 546 888 483 888 m 532 901 q 419 846 450 901 q 400 757 400 811 l 400 308 l 393 226 q 351 92 381 135 q 207 -14 292 -14 q 86 8 122 -14 q 43 74 43 35 q 60 131 43 113 q 110 147 76 147 q 171 83 146 147 q 231 21 203 21 q 275 63 261 21 q 285 129 285 83 l 285 764 q 264 854 285 824 q 153 901 229 901 l 153 913 l 532 913 l 532 901 z "},"K":{"ha":1017,"x_min":24,"x_max":1028,"o":"m 1028 -7 l 1028 32 l 1018 32 q 929 53 975 32 q 842 106 885 71 q 801 142 819 125 q 764 176 776 164 l 431 510 l 568 644 l 663 747 q 776 844 726 811 q 907 888 840 888 l 907 926 l 556 926 l 556 888 l 607 888 q 639 853 639 876 q 565 744 639 826 l 299 492 l 299 756 q 318 833 299 797 q 429 888 354 888 l 429 926 l 24 926 l 24 888 q 107 867 76 888 q 154 757 154 836 l 154 164 q 138 103 146 121 q 24 32 103 40 l 24 -7 l 429 -7 l 429 32 q 315 90 347 32 q 299 161 299 124 l 299 442 l 604 140 l 635 108 q 650 68 650 89 q 628 38 644 43 q 576 32 611 32 l 576 -7 l 1028 -7 m 1014 7 l 590 7 l 590 18 q 642 32 619 18 q 664 65 664 44 q 647 114 664 89 l 614 150 l 290 467 l 328 499 l 388 556 l 476 638 q 593 756 554 711 q 653 854 653 828 q 629 893 653 885 q 569 901 604 901 l 569 913 l 893 913 l 893 901 q 769 856 839 901 q 651 754 718 821 l 556 654 l 410 510 l 754 167 l 832 99 q 921 43 879 60 q 965 28 939 35 q 1014 19 989 21 l 1014 7 m 415 7 l 38 7 l 38 18 q 150 88 122 36 q 168 163 168 118 l 168 758 q 147 854 168 824 q 38 901 113 901 l 38 913 l 415 913 l 415 901 l 372 890 l 350 882 q 285 757 285 846 l 285 163 q 318 64 285 101 q 415 18 353 26 l 415 7 z "},"L":{"ha":864,"x_min":28,"x_max":833,"o":"m 833 256 l 799 261 l 775 211 q 749 164 757 178 q 733 140 743 154 q 726 132 726 132 q 593 67 678 75 l 439 67 q 325 107 357 67 q 308 158 308 132 l 308 744 q 349 844 308 807 q 458 888 390 882 l 458 926 l 28 926 l 28 888 q 115 865 85 888 q 158 753 158 832 l 158 161 q 124 74 158 107 q 28 32 89 40 l 28 -7 l 751 -7 l 833 256 m 815 244 l 739 7 l 42 7 l 42 18 q 107 43 88 31 q 172 164 172 83 l 172 753 q 151 851 172 818 q 42 901 117 901 l 42 913 l 444 913 l 444 901 q 329 847 367 890 q 290 742 290 803 l 290 161 q 310 99 290 125 q 436 53 350 53 l 593 53 q 708 101 674 75 q 806 247 772 149 l 815 244 z "},"M":{"ha":1235,"x_min":17,"x_max":1213,"o":"m 1213 -7 l 1213 32 q 1089 122 1114 32 q 1083 164 1083 135 l 1083 764 q 1103 838 1083 806 q 1213 888 1139 888 l 1213 926 l 939 926 l 615 219 l 288 926 l 17 926 l 17 888 q 79 871 58 879 q 142 763 142 838 l 142 160 q 122 89 142 121 q 17 31 89 43 l 17 -7 l 350 -7 l 350 32 q 236 94 272 32 q 221 158 222 121 l 221 742 l 564 -7 l 593 -7 l 938 742 l 938 163 q 903 78 938 115 q 808 31 868 39 l 808 -7 l 1213 -7 m 1199 7 l 822 7 l 822 18 q 933 89 903 35 q 951 160 951 119 l 951 806 l 585 7 l 572 7 l 207 806 l 207 158 q 240 67 207 104 q 336 18 272 28 l 336 7 l 31 7 l 31 18 q 94 42 76 32 q 160 160 160 82 l 160 764 q 67 896 149 871 q 31 901 57 901 l 31 913 l 279 913 l 615 186 l 949 913 l 1199 913 l 1199 901 q 1133 885 1154 894 q 1069 761 1069 846 l 1069 161 q 1089 86 1069 122 q 1199 18 1124 26 l 1199 7 z "},"N":{"ha":1017,"x_min":-18,"x_max":997,"o":"m 997 888 l 997 926 l 663 926 l 663 888 q 742 868 714 888 q 781 822 768 849 q 793 758 793 796 l 793 247 l 239 926 l -18 926 l -18 888 q 85 867 46 888 l 121 839 q 163 797 142 822 l 163 158 q 144 88 163 119 q 32 32 111 32 l 32 -7 l 367 -7 l 367 32 q 251 93 285 32 q 242 117 243 107 l 236 151 l 236 706 l 831 -22 l 867 -22 l 867 761 q 883 825 875 804 q 997 888 919 888 m 983 901 q 918 883 943 893 q 853 761 853 847 l 853 -8 l 838 -8 l 222 746 l 222 153 q 257 63 222 97 q 353 18 292 26 l 353 7 l 46 7 l 46 18 q 154 78 125 35 q 174 158 174 108 l 174 804 l 153 829 l 131 849 q 97 876 114 865 q -4 901 51 901 l -4 913 l 235 913 l 807 208 l 807 765 q 774 867 807 832 q 676 901 739 901 l 676 913 l 983 913 l 983 901 z "},"O":{"ha":1015,"x_min":49,"x_max":963,"o":"m 963 463 q 838 801 963 663 q 510 947 704 947 q 181 807 313 947 q 49 463 49 667 q 176 115 49 258 q 503 -28 303 -28 q 836 121 704 -28 q 963 463 963 260 m 949 463 q 821 129 949 272 q 500 -14 694 -14 q 179 128 304 -14 q 63 463 63 264 q 189 799 63 664 q 514 933 315 933 q 826 792 700 933 q 949 463 949 657 m 807 450 q 783 654 807 553 q 744 757 764 721 q 693 826 725 794 q 501 899 621 899 q 319 829 393 899 q 231 674 256 765 q 204 467 204 582 q 229 267 204 357 q 267 167 246 208 q 319 94 299 115 q 503 21 393 21 q 688 88 615 21 q 782 249 753 144 q 807 450 807 340 m 793 447 q 768 257 793 343 q 679 99 735 150 q 503 35 611 35 q 326 106 396 35 q 242 261 265 168 q 218 467 218 358 q 240 665 218 571 q 325 817 269 761 q 504 885 393 885 q 683 814 615 885 q 771 647 746 754 q 793 447 793 571 z "},"P":{"ha":786,"x_min":24,"x_max":738,"o":"m 738 646 q 592 885 738 817 q 367 926 504 926 l 24 926 l 24 888 q 124 853 88 888 q 161 756 161 818 l 161 150 q 140 90 150 108 q 24 32 103 32 l 24 -7 l 431 -7 l 431 32 q 314 94 347 32 q 299 156 303 115 l 299 425 l 344 415 q 467 406 394 406 q 696 501 629 406 q 738 646 738 560 m 724 647 q 656 479 724 539 q 467 419 588 419 q 407 424 443 419 q 344 432 372 428 l 285 444 l 285 153 q 304 82 285 114 q 417 18 339 26 l 417 7 l 38 7 l 38 18 q 142 69 104 32 q 175 153 175 106 l 175 756 q 106 881 175 843 q 38 901 74 893 l 38 913 l 367 913 q 583 872 492 913 q 724 647 724 806 m 582 660 q 526 810 582 749 q 401 871 469 871 q 285 857 335 871 l 285 464 l 403 450 q 532 511 479 450 q 582 660 582 572 m 568 660 q 521 522 568 579 q 431 464 474 464 l 344 468 l 299 475 l 299 846 l 339 853 q 414 857 364 857 q 517 797 465 857 q 568 660 568 738 z "},"Q":{"ha":1017,"x_min":49,"x_max":964,"o":"m 964 460 q 839 800 964 658 q 510 947 708 947 q 181 806 313 947 q 49 475 49 664 q 131 168 49 286 q 381 -15 213 50 q 556 -150 456 -90 q 749 -240 656 -208 l 824 -260 l 957 -279 l 957 -243 l 951 -243 q 850 -225 903 -243 q 760 -171 810 -208 q 628 -14 686 -114 q 875 168 785 39 q 964 460 964 294 m 950 474 q 861 172 950 296 q 617 -3 772 47 l 608 -6 q 747 -175 658 -103 q 943 -257 831 -242 l 943 -264 q 869 -258 901 -264 q 794 -242 836 -253 q 643 -183 722 -219 q 385 -3 506 -114 q 221 89 279 42 q 154 158 182 119 q 106 238 125 196 l 83 293 l 71 344 q 63 529 63 393 q 192 796 63 657 q 510 933 319 933 q 689 896 608 933 q 829 790 769 858 q 950 474 950 653 m 808 411 q 783 646 808 554 q 692 819 754 756 q 504 896 618 896 q 319 825 393 896 q 231 669 256 765 q 204 463 204 576 q 229 261 204 353 q 321 90 263 153 q 529 18 393 18 q 744 156 665 18 q 808 411 808 265 m 794 442 q 769 253 794 339 q 681 97 739 151 q 506 32 611 32 q 329 103 399 32 q 243 264 268 164 q 218 464 218 363 q 240 654 218 568 q 326 815 272 761 q 504 882 400 882 q 683 810 615 882 q 769 646 744 749 q 794 442 794 544 z "},"R":{"ha":940,"x_min":24,"x_max":953,"o":"m 953 -7 l 953 32 q 813 79 856 47 q 715 186 772 107 l 531 442 q 688 522 635 469 q 754 674 754 588 q 601 889 754 826 q 365 926 504 926 l 24 926 l 24 888 q 104 868 72 888 q 156 756 156 835 l 156 158 q 138 94 147 121 q 24 32 100 32 l 24 -7 l 432 -7 l 432 32 q 319 79 350 32 q 300 163 300 107 l 300 424 l 344 424 l 385 424 l 696 -7 l 953 -7 m 939 7 l 703 7 l 392 438 l 364 438 l 340 438 l 286 439 l 286 161 q 307 67 286 99 q 418 18 339 18 l 418 7 l 38 7 l 38 18 l 104 42 q 169 163 169 82 l 169 756 q 149 851 169 818 q 38 901 114 901 l 38 913 l 363 913 l 401 913 q 607 875 524 913 q 740 672 740 811 q 669 524 740 586 q 508 451 606 472 l 704 179 q 801 69 760 99 q 939 18 857 26 l 939 7 m 601 667 q 514 850 601 799 q 431 875 485 867 l 399 875 q 385 874 393 875 q 335 868 358 871 l 286 861 l 286 465 q 517 513 440 465 q 601 667 601 568 m 588 664 q 497 518 588 568 q 314 479 429 479 l 300 479 l 300 851 l 350 861 l 431 861 q 543 811 500 861 q 588 664 588 760 z "},"S":{"ha":785,"x_min":88,"x_max":711,"o":"m 711 238 q 581 454 711 357 l 339 593 q 208 738 208 672 q 258 843 208 806 q 389 879 307 879 q 542 801 472 879 q 594 715 574 764 q 613 615 613 671 l 650 615 l 650 947 l 613 947 q 597 906 607 919 q 576 893 589 893 q 539 901 563 893 l 521 908 l 482 925 l 436 938 q 326 947 401 947 q 168 876 247 947 q 88 693 88 806 q 214 485 88 578 l 450 346 q 576 192 576 269 q 522 78 576 115 q 375 39 467 39 q 214 111 282 39 q 132 301 142 183 l 96 301 l 96 -28 l 133 -28 q 147 14 133 1 q 168 25 161 25 q 208 17 182 25 l 250 3 l 331 -19 q 454 -28 379 -28 q 619 43 535 -28 q 711 238 711 122 m 697 239 q 613 56 697 124 q 444 -14 526 -14 q 276 13 354 -14 q 169 39 197 39 q 133 25 142 39 q 121 -14 125 11 l 110 -14 l 110 288 l 121 288 q 163 154 138 203 q 260 61 193 99 q 401 25 325 25 q 533 67 475 25 q 590 190 590 107 q 461 351 590 272 l 225 490 q 101 692 101 581 q 181 869 101 806 q 331 933 258 933 q 460 915 407 933 l 571 879 q 608 897 597 883 q 624 933 619 911 l 636 933 l 636 629 l 624 629 q 546 815 606 750 q 388 893 476 893 q 249 851 301 893 q 194 738 194 808 q 325 585 194 665 l 567 447 q 697 239 697 354 z "},"T":{"ha":863,"x_min":42,"x_max":828,"o":"m 828 697 l 817 926 l 54 926 l 42 697 l 82 697 q 199 844 103 814 q 257 854 224 854 l 361 854 l 361 157 q 328 69 361 103 q 283 40 304 46 q 231 32 261 32 l 231 -7 l 635 -7 l 635 32 q 538 68 572 32 q 504 158 504 104 l 504 854 l 628 854 q 732 813 690 854 q 789 697 776 772 l 828 697 m 817 711 l 803 711 q 744 829 790 790 q 628 868 700 868 l 490 868 l 490 158 q 510 85 490 117 q 621 18 543 31 l 621 7 l 244 7 l 244 18 q 343 68 313 31 q 375 158 375 104 l 375 868 l 258 868 q 135 825 182 868 q 68 711 85 781 l 57 711 l 65 913 l 803 913 l 817 711 z "},"U":{"ha":1017,"x_min":7,"x_max":1001,"o":"m 1001 888 l 1001 926 l 663 926 l 663 888 q 749 867 719 888 q 793 757 793 833 q 789 267 793 307 q 776 206 782 228 q 758 163 768 179 q 675 82 729 111 q 601 53 636 61 q 549 44 567 44 l 490 44 q 425 54 454 44 l 394 68 l 368 88 q 300 201 317 131 l 288 279 l 288 761 q 306 832 288 800 q 419 888 339 888 l 419 926 l 7 926 l 7 888 q 122 835 89 888 q 142 757 142 803 l 146 619 l 146 483 l 146 268 l 151 213 l 163 169 q 300 13 203 60 q 393 -18 340 -10 q 501 -28 438 -28 q 707 14 624 -28 q 840 161 807 68 q 846 172 843 167 q 854 193 853 189 q 858 217 857 200 q 865 268 865 240 l 865 753 q 900 850 865 811 q 1001 888 940 888 m 988 901 q 875 833 904 889 q 865 814 871 828 q 861 801 864 810 q 860 794 860 796 l 856 751 q 851 278 856 314 l 840 213 l 828 167 q 699 25 794 74 q 610 -6 663 6 q 503 -14 560 -14 q 308 24 390 -14 q 175 174 215 69 q 160 267 160 219 l 160 758 q 136 851 160 813 q 21 901 99 901 l 21 913 l 406 913 l 406 901 q 367 892 381 896 q 349 886 358 889 q 338 882 340 883 q 271 757 271 844 l 271 281 l 282 206 q 364 76 310 119 q 511 31 421 31 q 681 71 603 31 q 769 154 739 103 q 803 261 794 201 l 803 758 q 769 861 803 824 q 676 901 738 901 l 676 913 l 988 913 l 988 901 z "},"V":{"ha":1017,"x_min":13,"x_max":1001,"o":"m 1001 889 l 1001 926 l 703 926 l 703 889 l 732 885 l 763 874 q 800 835 800 857 l 796 790 l 771 722 l 556 207 l 329 728 l 310 779 q 300 838 300 804 q 339 879 300 863 q 394 889 360 889 l 403 889 l 403 926 l 13 926 l 13 889 l 21 889 q 107 857 75 889 q 158 769 133 835 l 503 -28 l 536 -28 l 864 760 q 914 847 889 818 q 1001 889 951 889 m 988 899 q 901 853 929 885 q 850 763 875 822 l 529 -15 l 514 -14 l 171 775 l 135 847 q 26 901 104 893 l 26 913 l 388 913 l 388 901 l 347 893 l 321 886 q 288 840 288 869 q 297 778 288 815 l 318 725 l 557 174 l 782 718 l 803 774 l 814 810 l 814 839 q 771 885 814 868 l 718 900 l 718 913 l 986 913 l 988 899 z "},"W":{"ha":1325,"x_min":18,"x_max":1314,"o":"m 1314 888 l 1314 926 l 1025 926 l 1025 888 q 1096 878 1067 888 q 1126 842 1126 868 q 1121 810 1122 825 q 1114 779 1117 789 l 1096 724 l 926 233 l 757 715 l 735 786 q 729 818 729 801 l 729 844 q 763 883 729 871 q 826 888 782 888 l 826 926 l 456 926 l 456 888 q 536 865 506 888 q 583 789 565 843 l 631 651 l 485 233 l 310 731 l 292 783 q 282 817 282 804 l 282 846 q 314 882 282 869 q 372 888 326 888 l 372 926 l 18 926 l 22 888 q 115 844 89 888 q 157 740 126 826 l 432 -28 l 467 -28 l 669 546 l 872 -28 l 911 -28 l 1169 717 l 1213 835 q 1314 888 1244 888 m 1300 901 q 1200 838 1235 901 q 1157 722 1192 825 l 900 -14 l 885 -14 l 669 588 l 456 -14 l 442 -14 l 169 744 l 126 850 q 32 901 89 901 l 32 913 l 358 913 l 358 901 l 324 901 l 299 892 q 268 850 268 875 q 281 783 268 825 l 299 728 l 486 190 l 646 653 l 618 732 l 589 810 q 546 875 569 856 q 469 901 515 901 l 469 913 l 813 913 l 813 901 q 740 889 765 901 q 715 844 715 875 q 718 813 715 832 q 726 772 721 796 l 746 711 l 929 192 l 1110 717 l 1129 776 l 1136 803 l 1140 839 q 1117 883 1140 864 q 1039 901 1094 901 l 1039 913 l 1300 913 l 1300 901 z "},"X":{"ha":1017,"x_min":10,"x_max":1001,"o":"m 1001 -7 l 1001 32 l 994 32 q 906 58 949 32 q 831 132 867 85 l 775 217 l 579 507 l 763 739 l 821 810 q 896 869 864 853 q 975 889 932 889 l 981 889 l 981 926 l 639 926 l 639 889 l 653 889 l 700 882 q 738 849 738 869 q 724 803 736 826 l 696 769 l 538 567 l 404 772 l 382 806 l 374 829 l 374 850 q 425 883 374 875 l 467 888 l 467 926 l 28 926 l 28 889 l 32 889 q 129 863 85 889 q 207 799 178 833 l 236 761 l 271 713 l 451 450 l 238 182 q 138 82 190 122 q 15 32 69 32 l 10 32 l 10 -7 l 350 -7 l 350 32 l 342 32 l 317 32 l 293 38 q 261 72 261 53 q 276 117 264 96 l 301 153 l 489 390 l 639 165 l 665 122 q 683 74 683 100 q 649 36 683 46 q 592 32 635 32 l 592 -7 l 1001 -7 m 988 7 l 606 7 l 607 21 q 667 35 638 21 q 696 69 696 50 q 686 113 696 94 l 649 169 l 488 417 l 290 163 l 261 122 q 247 72 247 100 q 279 31 247 43 l 303 21 l 338 19 l 338 7 l 24 7 l 24 21 q 149 75 93 32 q 246 174 203 119 l 467 451 l 283 721 q 218 807 240 783 q 143 871 181 850 q 114 885 133 876 q 89 893 100 892 q 42 901 67 901 l 42 913 l 453 913 l 454 901 q 415 897 431 901 l 394 889 q 358 850 358 874 q 372 803 358 825 l 393 765 l 538 547 l 707 761 l 736 799 q 753 851 753 824 q 726 889 753 881 q 690 901 704 901 l 654 901 l 654 913 l 965 913 l 967 901 q 879 874 908 890 q 811 818 844 856 l 753 746 l 567 508 l 765 210 l 822 125 q 892 54 858 78 q 942 29 915 36 q 988 21 969 21 l 988 7 z "},"Y":{"ha":1017,"x_min":13,"x_max":996,"o":"m 996 888 l 996 926 l 661 926 l 661 888 l 669 888 l 696 888 l 722 878 q 754 838 754 858 q 739 782 754 815 l 714 738 l 540 463 l 354 751 q 329 792 331 783 q 314 844 314 819 q 353 882 314 869 q 419 888 365 888 l 419 926 l 13 926 l 15 888 q 131 826 78 888 l 150 799 l 179 758 l 432 379 l 432 158 l 432 128 q 410 54 426 64 q 300 32 386 32 l 300 -7 l 706 -7 l 706 32 q 597 54 618 32 q 575 158 575 76 l 575 388 l 796 735 l 846 810 l 876 842 l 908 865 q 996 888 949 888 m 982 901 q 899 878 938 901 q 835 817 864 854 l 811 785 l 783 742 l 561 392 l 561 161 l 567 75 q 583 49 575 50 q 692 18 608 18 l 692 7 l 314 7 l 314 18 q 422 47 397 18 q 446 160 446 75 l 446 379 l 192 767 l 149 828 q 96 878 113 869 q 26 901 60 901 l 26 913 l 406 913 l 406 901 q 326 882 353 901 q 300 840 300 861 q 317 788 300 819 l 343 743 l 540 438 l 725 731 l 747 764 q 768 835 768 806 q 740 883 768 864 q 675 901 714 901 l 675 913 l 982 913 l 982 901 z "},"Z":{"ha":863,"x_min":17,"x_max":824,"o":"m 824 250 l 789 254 l 749 151 q 682 83 721 101 q 579 63 643 63 l 213 63 l 818 926 l 118 926 l 99 682 l 138 682 l 138 688 q 189 824 157 792 q 318 857 222 857 l 597 857 l 17 28 l 17 -7 l 778 -7 l 824 250 m 807 238 l 764 7 l 31 7 l 31 22 l 626 871 l 313 871 q 236 863 274 871 q 175 835 200 853 q 124 696 143 803 l 110 696 l 131 913 l 790 913 l 186 49 l 582 49 l 636 56 q 724 99 697 72 q 797 240 764 139 l 807 238 z "},"[":{"ha":476,"x_min":114,"x_max":426,"o":"m 426 -282 l 426 -215 l 229 -215 l 229 879 l 426 879 l 426 947 l 114 947 l 114 -282 l 426 -282 m 413 -268 l 128 -268 l 128 933 l 413 933 l 413 893 l 215 893 l 215 -229 l 413 -229 l 413 -268 z "},"\\":{"ha":404,"x_min":1,"x_max":406,"o":"m 406 -26 l 69 969 l 1 971 l 339 -25 l 406 -26 m 388 -12 l 349 -11 l 19 956 l 60 956 l 388 -12 z "},"]":{"ha":476,"x_min":51,"x_max":363,"o":"m 363 -283 l 363 947 l 51 947 l 51 879 l 247 879 l 247 -215 l 51 -215 l 51 -283 l 363 -283 m 349 -269 l 65 -269 l 65 -229 l 261 -229 l 261 893 l 65 893 l 65 933 l 349 933 l 349 -269 z "},"^":{"ha":675,"x_min":25,"x_max":650,"o":"m 650 446 l 353 946 l 325 946 l 25 446 l 104 444 l 339 838 l 571 446 l 650 446 m 625 460 l 578 458 l 336 863 l 97 458 l 47 460 l 332 932 l 344 931 l 625 460 z "},"_":{"ha":708,"x_min":-11,"x_max":721,"o":"m 721 -307 l 721 -236 l -11 -236 l -11 -307 l 721 -307 m 707 -293 l 3 -293 l 3 -250 l 707 -250 l 707 -293 z "},"`":{"ha":486,"x_min":79,"x_max":326,"o":"m 326 703 l 251 950 l 79 950 l 289 703 l 326 703 m 308 717 l 297 717 l 108 936 l 240 936 l 308 717 z "},"a":{"ha":631,"x_min":50,"x_max":628,"o":"m 628 88 l 628 144 l 589 107 q 542 81 563 81 q 521 136 521 85 l 521 144 l 521 428 q 486 568 521 515 q 299 646 433 646 q 154 608 221 646 q 74 508 74 565 q 90 432 74 453 q 144 411 107 411 q 194 449 182 411 q 200 511 200 461 q 226 572 200 554 q 304 590 250 590 q 379 533 356 590 q 394 417 394 496 l 253 363 q 113 278 156 318 q 50 147 50 215 q 90 26 50 74 q 193 -19 136 -19 q 306 13 253 -19 l 394 76 q 414 8 394 36 q 474 -19 433 -19 q 560 17 515 -19 q 628 88 582 36 m 614 90 q 538 14 572 36 q 507 -1 518 1 l 475 -6 q 425 15 442 -6 q 408 93 408 43 l 408 103 l 313 31 q 283 14 294 18 q 250 1 274 8 q 197 -6 222 -6 q 100 38 139 -6 q 64 151 64 85 q 125 275 64 218 l 176 310 l 221 333 l 267 353 l 407 407 q 385 551 407 511 q 301 604 357 604 q 215 581 246 604 q 186 521 186 556 l 186 510 q 174 440 186 456 q 135 425 161 425 q 100 438 111 425 q 88 463 89 450 l 88 507 q 164 599 88 556 q 229 625 197 618 q 300 632 260 632 q 474 558 424 632 q 507 426 507 511 l 507 154 l 510 108 l 521 76 q 544 67 531 67 q 575 76 568 71 l 614 111 l 614 90 m 408 131 l 408 381 l 346 357 l 304 340 q 207 275 236 304 q 164 182 164 232 q 192 97 164 138 q 265 60 224 60 q 358 96 306 60 l 408 131 m 394 138 l 333 96 q 265 74 293 74 q 201 108 226 74 q 176 183 176 144 q 214 267 176 228 q 301 324 240 296 l 394 361 l 394 138 z "},"b":{"ha":710,"x_min":-3,"x_max":663,"o":"m 663 324 q 601 546 663 456 q 447 646 531 646 q 354 628 407 646 q 229 535 281 599 l 229 971 l 190 971 l -3 892 l 14 860 l 40 860 q 85 843 68 860 q 104 785 104 828 l 104 703 l 104 57 q 213 -1 146 22 q 378 -25 279 -25 q 572 86 476 -25 q 663 324 663 189 m 649 324 q 558 93 649 199 q 376 -11 467 -11 q 221 11 275 -11 q 118 64 171 31 l 118 781 q 82 860 118 836 q 18 874 60 874 l 13 885 l 192 957 l 215 957 l 215 503 q 351 611 289 583 q 440 632 400 632 q 593 535 529 632 q 649 324 649 454 m 543 315 q 496 489 543 428 q 367 550 447 550 q 300 533 333 550 q 215 460 253 507 l 215 96 q 288 44 246 61 q 322 29 303 33 l 363 25 q 493 99 440 25 q 543 315 543 172 m 529 314 q 486 126 529 204 q 364 39 443 46 q 293 54 331 39 q 229 103 257 75 l 229 450 l 260 492 q 363 535 303 535 q 488 478 443 535 q 529 314 529 419 z "},"c":{"ha":631,"x_min":47,"x_max":583,"o":"m 583 240 l 553 256 l 553 249 q 460 119 499 144 q 347 94 421 94 q 217 188 271 94 q 171 361 171 271 q 206 515 171 454 q 325 588 253 588 q 417 507 403 588 q 478 426 429 426 q 547 444 529 426 q 567 511 567 461 q 490 607 567 560 q 319 646 426 646 q 132 549 215 646 q 47 314 47 451 q 114 82 47 181 q 306 -25 188 -25 q 494 56 422 -25 q 582 236 557 122 l 583 240 m 569 232 q 486 63 549 131 q 306 -11 411 -11 q 124 92 197 -11 q 61 313 61 188 q 140 539 61 446 q 319 632 217 632 q 482 596 417 632 q 553 510 553 549 q 535 453 553 463 q 485 440 517 440 q 435 482 447 440 l 414 558 q 318 601 396 601 q 196 524 242 601 q 157 361 157 464 q 206 178 157 260 q 350 81 268 81 q 488 126 438 81 q 561 236 528 163 l 569 232 z "},"d":{"ha":710,"x_min":46,"x_max":713,"o":"m 713 54 l 701 90 q 653 76 675 76 q 617 100 625 76 q 608 150 608 124 l 608 971 l 569 971 l 376 892 l 393 860 l 422 860 q 472 838 458 860 q 482 789 482 824 l 482 604 q 422 640 450 633 q 382 650 397 650 l 347 650 l 325 650 l 304 650 q 128 532 217 650 q 46 296 46 425 q 114 75 46 164 q 272 -25 189 -25 q 403 -1 349 -25 q 482 56 446 25 l 482 -25 l 521 -25 l 713 54 m 694 61 l 518 -11 l 496 -11 l 496 90 l 439 38 l 407 15 l 379 1 q 271 -11 346 -11 q 124 85 194 -11 q 60 294 60 169 q 139 522 60 421 q 311 636 228 636 l 343 636 q 431 615 389 636 q 496 572 476 590 l 496 783 q 481 849 496 821 q 426 874 464 874 l 413 874 l 396 874 l 392 885 l 571 956 l 594 957 l 594 139 q 631 64 610 64 l 669 67 l 696 72 l 694 61 m 496 114 l 496 436 q 475 521 488 494 q 331 604 433 604 q 250 571 275 592 q 172 339 172 501 l 172 307 l 181 244 l 194 178 q 335 51 242 51 q 429 69 392 51 q 496 114 471 89 m 482 121 q 411 75 451 88 q 339 68 376 68 q 211 188 253 68 q 186 308 197 224 q 279 576 186 518 q 331 590 303 590 q 442 542 400 590 q 482 438 482 490 l 482 121 z "},"e":{"ha":631,"x_min":51,"x_max":590,"o":"m 590 231 l 560 251 q 496 143 522 169 q 364 99 451 99 q 215 190 276 99 q 175 276 186 232 q 161 381 161 322 l 590 381 q 525 575 590 501 q 331 647 461 647 q 124 543 203 647 q 51 308 51 450 q 122 76 51 171 q 317 -25 203 -25 q 506 53 432 -25 q 590 231 574 125 m 576 222 q 490 56 556 121 q 315 -12 425 -12 q 131 86 204 -12 q 65 308 65 176 q 133 532 65 443 q 329 633 208 633 q 513 567 449 633 q 576 394 576 494 l 147 394 q 161 281 147 331 q 203 185 176 226 q 360 86 268 86 q 497 125 454 86 q 565 231 540 164 l 576 222 m 449 419 q 365 588 449 553 q 340 597 353 594 q 308 599 333 599 q 257 585 286 593 q 231 576 243 582 q 226 575 228 575 q 147 419 147 528 l 449 419 m 435 433 l 161 433 q 267 578 181 549 q 306 585 283 585 q 397 544 364 585 q 435 433 435 506 z "},"f":{"ha":475,"x_min":54,"x_max":617,"o":"m 617 864 q 551 939 617 903 q 431 969 496 969 q 365 960 393 969 q 300 931 338 950 q 204 822 236 892 q 179 743 186 783 l 174 714 l 174 679 l 174 628 l 54 628 l 54 565 l 174 565 l 174 164 q 156 78 174 110 q 58 32 125 32 l 58 -7 l 442 -7 l 442 32 q 321 78 357 32 q 300 164 300 111 l 300 565 l 460 565 l 460 628 l 300 628 l 300 786 l 303 819 l 307 844 q 335 892 319 876 q 393 907 354 907 q 474 846 432 907 q 547 786 521 786 q 597 806 578 786 q 617 864 617 825 m 603 864 q 588 815 603 831 q 549 800 572 800 q 481 863 522 804 q 385 921 439 921 q 310 878 332 921 q 286 768 286 833 l 286 665 l 286 614 l 446 614 l 446 579 l 286 579 l 286 164 q 307 68 286 106 q 428 18 340 18 l 428 7 l 72 7 l 72 18 l 108 29 l 129 38 q 188 164 188 79 l 188 579 l 68 579 l 68 614 l 188 614 q 192 729 188 683 q 217 815 196 774 q 308 919 250 886 q 429 956 365 956 q 549 926 493 956 q 603 864 603 897 z "},"g":{"ha":708,"x_min":42,"x_max":683,"o":"m 683 569 q 668 604 683 596 l 632 604 l 501 604 q 429 635 469 626 q 314 646 392 646 q 168 583 243 646 q 92 436 92 519 q 121 304 92 354 q 204 225 154 254 q 138 163 158 188 q 101 81 101 118 q 121 35 106 54 l 161 4 l 114 -44 l 86 -76 q 42 -183 42 -133 q 153 -276 42 -235 q 319 -306 235 -306 q 536 -264 451 -306 q 674 -31 674 -197 q 571 81 674 49 q 404 100 513 100 l 318 96 q 221 111 249 96 q 206 138 206 122 q 236 199 206 176 l 250 207 q 369 194 299 194 q 519 253 444 194 q 593 376 593 310 l 593 422 l 588 474 l 574 508 l 564 529 q 669 533 664 529 q 683 569 683 543 m 669 567 l 669 547 l 660 543 l 600 543 l 536 542 q 574 482 563 511 q 582 385 582 453 q 511 261 582 322 q 351 207 439 207 l 296 211 l 247 222 l 219 197 q 192 132 192 165 q 210 100 196 110 q 317 79 246 79 l 403 85 l 435 86 q 574 67 515 86 q 660 -32 660 33 q 526 -254 660 -192 q 321 -293 447 -293 q 163 -264 246 -293 q 56 -179 56 -224 q 126 -50 56 -132 l 181 10 q 129 49 143 28 q 115 90 115 67 q 157 164 115 118 q 229 229 178 189 q 135 306 163 265 q 106 428 106 351 q 174 571 106 507 q 303 635 242 635 q 365 631 332 635 q 424 621 404 625 q 493 590 483 604 l 660 590 l 669 581 l 669 567 m 476 394 q 449 532 476 465 q 346 613 410 613 q 236 564 274 613 q 210 444 210 521 q 211 406 210 413 q 215 372 211 392 q 219 358 217 368 q 226 338 224 344 q 236 306 232 318 q 344 228 276 228 q 449 278 414 228 q 476 394 476 318 m 463 393 q 439 290 463 331 q 347 240 410 240 q 249 313 282 240 q 224 438 224 371 q 246 550 224 508 q 339 600 279 600 q 436 526 403 600 q 463 393 463 476 m 624 -99 q 519 -17 624 -37 q 344 -3 465 -3 l 254 1 l 210 7 q 161 -50 181 -22 q 139 -131 139 -85 q 236 -206 139 -181 q 369 -224 294 -224 q 528 -204 461 -224 q 624 -99 624 -171 m 610 -97 q 519 -196 610 -168 q 374 -211 463 -211 q 246 -194 319 -211 q 151 -129 151 -165 q 171 -61 151 -92 q 210 -7 189 -28 l 343 -14 l 383 -14 q 461 -18 422 -14 q 525 -28 503 -22 q 610 -97 610 -53 z "},"h":{"ha":710,"x_min":8,"x_max":701,"o":"m 701 -7 l 701 32 q 622 69 646 32 q 608 140 608 92 l 608 408 q 585 551 608 489 q 450 646 544 646 q 329 608 386 646 q 242 528 283 574 l 242 971 l 203 971 l 8 893 l 24 858 l 47 867 l 71 867 l 86 867 l 96 861 q 111 835 104 853 q 115 783 115 818 l 115 139 q 100 71 115 99 q 21 32 78 32 l 21 -7 l 342 -7 l 342 32 q 256 69 279 32 q 242 140 242 92 l 242 467 l 275 501 q 288 513 278 504 l 292 515 q 301 522 296 518 q 306 525 304 525 q 400 550 350 550 q 458 514 438 550 q 482 411 482 478 l 482 142 q 467 67 482 90 q 382 32 444 32 l 382 -7 l 701 -7 m 688 7 l 396 7 l 397 18 q 471 51 444 18 q 496 140 496 85 l 496 408 q 454 543 496 506 q 404 564 429 564 q 303 538 347 564 q 228 471 257 511 l 228 142 q 244 61 228 90 q 328 18 269 18 l 328 7 l 35 7 l 35 18 q 82 35 72 26 q 129 139 129 68 l 129 764 q 106 871 129 851 q 79 881 92 881 l 56 881 l 35 874 l 24 885 l 204 956 l 228 957 l 228 493 l 288 556 q 358 610 325 593 q 456 632 397 632 q 549 585 510 632 q 589 478 579 550 q 594 432 594 461 l 594 378 l 594 360 l 594 139 q 608 65 594 99 q 688 18 635 18 l 688 7 z "},"i":{"ha":401,"x_min":40,"x_max":368,"o":"m 286 896 q 263 949 286 925 q 208 971 239 971 q 156 947 179 971 q 135 894 135 921 q 158 840 135 864 q 210 818 181 818 q 263 842 239 818 q 286 896 286 865 m 272 896 q 253 851 272 871 q 210 832 233 832 q 168 851 188 832 q 149 896 149 871 q 165 939 149 921 q 210 957 188 957 q 254 939 236 957 q 272 896 272 921 m 368 -7 l 368 31 q 299 57 325 31 q 274 140 274 86 l 274 646 l 235 646 l 40 568 l 58 531 l 81 538 l 103 542 l 118 542 l 128 536 q 139 517 136 529 l 146 493 l 146 461 l 146 142 q 131 69 146 97 q 53 31 104 31 l 53 -7 l 368 -7 m 354 7 l 67 7 l 67 18 q 113 39 99 29 q 160 140 160 74 l 160 456 q 121 556 160 556 l 101 556 l 97 556 q 67 549 79 551 l 58 558 l 236 632 l 260 632 l 260 138 q 275 64 260 92 q 354 17 299 22 l 354 7 z "},"j":{"ha":400,"x_min":-107,"x_max":285,"o":"m 285 894 q 260 947 285 926 q 206 972 238 972 q 151 947 172 972 q 131 894 131 921 q 154 840 131 864 q 206 818 176 818 q 261 842 238 818 q 285 894 285 865 m 271 894 q 251 851 271 871 q 207 832 232 832 q 183 838 194 832 q 163 850 171 844 q 144 896 144 868 q 164 939 144 919 q 207 958 183 958 q 254 939 235 958 q 271 894 271 921 m 272 14 l 272 646 l 235 646 l 42 567 l 57 531 l 81 538 l 103 542 l 117 542 l 129 536 q 142 511 138 531 q 147 461 147 496 l 147 378 l 147 -136 q 106 -239 147 -239 q 32 -203 76 -239 q -12 -172 6 -179 l -40 -167 q -87 -186 -71 -167 q -107 -237 -107 -206 q -58 -290 -107 -269 q 64 -307 -18 -307 q 217 -207 153 -307 q 272 14 272 -122 m 258 10 q 250 -76 258 -35 q 206 -199 229 -157 q 63 -293 139 -293 q -51 -281 -18 -293 q -93 -236 -93 -258 q -79 -196 -93 -210 q -39 -181 -64 -181 q 26 -219 -12 -185 q 108 -253 67 -253 q 158 -144 158 -253 l 158 -64 l 158 218 l 158 467 q 136 546 158 532 q 103 556 122 556 l 61 549 l 57 557 l 236 632 l 258 632 l 258 10 z "},"k":{"ha":711,"x_min":11,"x_max":717,"o":"m 717 -7 l 717 32 l 681 32 l 653 36 q 574 103 618 56 l 507 182 l 353 381 l 508 521 q 590 578 554 563 q 676 593 629 593 l 685 593 l 685 628 l 400 628 l 400 593 l 406 593 q 439 583 431 589 q 450 567 450 576 q 410 518 450 554 l 386 496 l 242 364 l 242 971 l 201 971 l 11 893 l 25 857 l 49 865 l 68 869 l 83 869 l 96 861 q 107 836 103 858 q 114 786 114 818 l 114 140 q 97 72 114 97 q 11 32 69 32 l 11 -7 l 342 -7 l 342 32 q 256 69 279 32 q 242 140 242 92 l 242 326 l 300 254 l 394 133 q 444 50 444 58 q 428 32 439 36 l 400 29 l 400 -7 l 717 -7 m 703 7 l 414 7 l 414 18 q 444 26 439 21 q 458 49 458 32 q 446 81 451 71 l 429 107 l 243 347 l 394 486 l 435 521 q 463 564 458 544 q 446 594 458 586 q 414 606 432 606 l 414 614 l 671 614 l 671 606 l 621 600 l 578 586 q 499 531 532 563 l 333 382 l 499 174 l 567 92 q 647 22 619 35 l 668 18 l 703 15 l 703 7 m 328 7 l 25 7 l 25 18 q 65 26 47 18 q 97 49 83 35 q 128 136 128 79 l 128 810 q 86 883 113 883 q 31 874 60 883 l 25 882 l 203 956 l 228 957 l 228 139 q 243 61 228 89 q 328 18 269 18 l 328 7 z "},"l":{"ha":403,"x_min":42,"x_max":374,"o":"m 374 -7 l 374 32 q 292 54 308 32 q 274 140 274 76 l 274 971 l 235 971 l 42 892 l 63 860 l 88 868 l 106 868 l 118 868 l 129 863 q 146 786 146 846 l 146 133 q 133 76 146 101 q 56 32 106 32 l 56 -7 l 374 -7 m 360 7 l 69 7 l 69 18 l 115 39 q 160 140 160 75 l 160 810 q 118 882 150 882 q 65 874 86 882 l 61 885 l 236 956 l 263 957 l 263 142 l 263 83 q 275 49 267 61 q 360 18 297 18 l 360 7 z "},"m":{"ha":1097,"x_min":11,"x_max":1090,"o":"m 1090 -7 l 1090 32 q 1010 76 1033 32 q 997 140 997 106 l 997 411 q 972 560 997 504 q 842 646 932 646 q 708 610 760 646 q 613 522 658 575 q 551 615 592 583 q 463 646 511 646 q 371 628 413 646 l 336 607 l 304 583 l 244 524 l 244 646 l 207 646 l 11 568 l 28 531 l 51 538 l 74 542 l 89 542 l 100 536 q 118 460 118 518 l 118 139 q 104 78 118 107 q 25 31 81 36 l 25 -7 l 346 -7 l 346 32 q 260 72 285 32 q 244 140 244 99 l 244 469 q 317 529 274 507 q 406 551 357 551 q 478 504 457 551 q 496 406 496 469 l 496 146 q 479 76 496 101 q 394 29 453 38 l 394 -7 l 722 -7 l 722 32 q 633 75 658 32 q 619 139 619 101 l 619 465 l 619 471 q 689 526 660 510 q 781 551 731 551 q 854 506 832 551 q 869 407 869 472 l 869 142 q 854 81 869 108 q 769 31 828 39 l 769 -7 l 1090 -7 m 1076 7 l 783 7 l 783 18 l 833 40 q 883 140 883 78 l 883 411 q 867 504 883 469 q 785 565 839 557 q 683 538 732 565 l 644 508 l 608 476 l 608 142 q 625 63 608 92 q 708 18 649 18 l 708 7 l 408 7 l 408 18 q 493 71 469 31 q 510 139 510 96 l 510 408 q 493 507 510 468 q 410 565 468 565 q 356 560 382 565 l 304 538 q 231 476 246 506 l 231 139 q 247 63 231 92 q 332 18 271 18 l 332 7 l 38 7 l 38 18 l 85 40 q 132 140 132 75 l 132 465 q 108 544 124 536 q 81 556 93 556 l 54 556 l 33 549 l 28 560 l 207 632 l 231 632 l 231 493 l 282 542 l 329 583 q 453 632 390 632 q 556 592 515 632 q 606 493 593 556 l 667 560 l 704 589 l 738 611 q 849 632 786 632 q 954 558 914 632 q 983 406 983 499 l 983 138 q 997 63 983 96 q 1076 18 1022 18 l 1076 7 z "},"n":{"ha":767,"x_min":11,"x_max":722,"o":"m 722 -7 l 722 32 q 633 75 658 32 q 619 139 619 101 l 619 465 q 540 624 619 578 q 463 646 515 638 q 371 628 413 646 l 336 607 l 304 583 l 244 524 l 244 646 l 207 646 l 11 568 l 28 531 l 51 538 l 74 542 l 89 542 l 100 536 q 118 460 118 518 l 118 139 q 104 78 118 107 q 25 31 81 36 l 25 -7 l 346 -7 l 346 32 q 260 74 285 32 q 244 142 244 100 l 244 472 q 315 532 271 508 q 404 554 356 554 q 476 506 456 554 q 494 407 494 471 l 494 147 q 478 78 494 103 q 394 31 451 39 l 394 -7 l 722 -7 m 708 7 l 408 7 l 408 18 q 493 72 471 33 q 508 140 508 99 l 508 411 q 493 510 508 468 q 410 568 468 568 q 356 560 383 568 l 304 538 q 231 476 246 506 l 231 139 q 247 63 231 92 q 332 18 271 18 l 332 7 l 39 7 l 39 18 l 85 40 q 132 140 132 75 l 132 465 q 111 544 126 536 q 85 556 96 556 l 58 556 l 39 549 l 28 560 l 207 632 l 231 632 l 231 493 l 282 542 l 329 583 q 453 632 390 632 q 543 607 508 632 q 608 475 600 567 l 608 140 q 625 61 608 90 q 708 18 647 18 l 708 7 z "},"o":{"ha":707,"x_min":47,"x_max":660,"o":"m 660 319 q 571 551 660 457 q 353 646 481 646 q 131 542 221 646 q 47 304 47 442 q 128 75 47 168 q 350 -25 218 -25 q 575 81 486 -25 q 660 319 660 178 m 646 318 q 560 89 646 190 q 349 -11 475 -11 q 140 83 218 -11 q 61 307 61 178 q 143 535 61 436 q 354 632 224 632 q 563 539 478 632 q 646 318 646 446 m 533 256 q 517 410 533 342 q 456 543 489 503 q 333 604 403 604 q 204 521 246 604 q 174 375 174 463 q 193 210 174 294 q 254 85 215 129 q 385 24 303 24 q 506 107 467 24 q 533 256 533 169 m 519 271 q 475 86 519 147 q 357 38 439 38 q 226 158 279 38 q 197 253 206 204 q 188 351 188 297 q 215 513 188 450 q 326 590 256 590 q 446 532 400 590 q 481 478 468 510 q 503 406 493 454 q 519 271 519 338 z "},"p":{"ha":707,"x_min":-4,"x_max":660,"o":"m 660 324 q 603 544 660 454 q 447 646 535 646 q 308 607 360 646 q 231 517 261 568 l 231 646 l 194 646 l -4 564 l 10 529 l 32 533 l 69 539 q 103 503 92 535 l 103 436 l 103 -149 q 86 -225 103 -200 q -4 -262 57 -262 l -4 -304 l 335 -304 l 335 -262 q 244 -222 269 -262 q 231 -151 231 -200 l 231 22 q 290 -14 264 -7 q 417 -25 319 -25 q 588 89 507 -25 q 660 324 660 190 m 646 322 q 576 99 646 201 q 410 -11 500 -11 q 335 -8 374 -11 l 288 3 l 250 24 l 217 51 l 217 -153 q 232 -235 217 -204 q 321 -276 260 -276 l 321 -290 l 10 -290 l 10 -276 q 101 -232 76 -276 q 119 -146 119 -201 l 119 444 l 114 488 l 110 515 q 65 553 93 553 l 15 546 l 15 554 l 197 632 l 217 632 l 217 488 l 301 583 q 440 632 358 632 q 592 532 529 632 q 646 322 646 444 m 540 269 q 538 318 540 288 q 529 365 533 342 q 504 447 521 410 q 383 546 456 546 q 308 531 346 546 q 217 456 258 508 l 217 121 q 229 90 224 107 q 240 67 235 75 q 386 14 285 14 q 504 101 458 14 q 540 269 540 172 m 526 272 q 493 113 526 178 q 386 29 447 29 q 282 54 319 29 q 238 110 243 85 q 231 176 231 138 l 231 219 l 231 450 l 265 488 l 289 508 q 368 533 325 533 q 494 438 453 533 q 519 368 513 397 q 525 321 522 350 l 525 317 q 526 272 526 300 z "},"q":{"ha":708,"x_min":46,"x_max":708,"o":"m 708 -304 l 708 -262 q 668 -257 683 -262 q 665 -256 667 -257 q 644 -246 649 -250 q 622 -221 631 -236 q 607 -158 607 -197 l 607 646 l 574 646 l 547 633 l 501 604 q 428 638 456 633 q 406 643 417 642 l 401 644 q 372 646 394 646 l 317 646 q 135 539 225 646 q 46 299 46 433 q 61 176 46 235 q 104 76 76 118 q 257 -25 172 -25 q 394 10 339 -25 q 481 89 432 31 l 481 -164 q 453 -232 481 -204 q 381 -265 424 -257 l 381 -304 l 708 -304 m 694 -290 l 394 -290 l 394 -276 q 444 -257 426 -268 q 494 -158 494 -218 l 494 117 l 476 100 l 454 83 l 381 17 q 260 -11 336 -11 q 115 88 178 -11 q 60 301 60 172 q 146 531 60 425 q 321 635 232 635 l 351 635 l 390 635 l 428 626 q 501 590 468 615 l 540 611 l 579 635 l 593 635 l 593 -160 q 610 -231 593 -204 q 694 -276 639 -276 l 694 -290 m 494 149 l 494 443 l 489 490 l 472 532 q 338 600 431 600 q 201 511 251 600 q 160 335 160 436 q 204 156 160 229 q 336 69 257 69 q 457 110 404 69 l 494 149 m 481 153 q 425 103 447 113 q 354 83 394 83 q 211 165 260 83 q 174 333 174 231 q 210 501 174 432 q 336 586 260 586 q 449 544 415 586 q 481 442 481 501 l 481 153 z "},"r":{"ha":478,"x_min":8,"x_max":488,"o":"m 488 568 q 458 622 488 601 q 388 646 431 646 q 303 606 347 646 q 242 525 265 568 l 242 646 l 204 646 l 8 568 l 19 531 l 47 542 l 83 542 q 115 474 115 542 l 115 142 q 100 74 115 101 q 18 32 71 32 l 18 -7 l 349 -7 l 349 32 q 257 75 282 32 q 242 144 242 108 l 242 442 l 275 500 q 318 542 308 542 q 368 517 338 538 q 422 494 396 494 q 469 517 451 494 q 488 568 488 539 m 474 567 q 456 525 474 539 q 422 508 438 508 q 371 532 401 508 q 318 556 339 556 q 265 508 300 554 l 228 442 l 228 146 q 229 114 228 119 q 233 90 229 103 l 244 61 q 335 18 271 18 l 335 7 l 32 7 l 32 18 q 114 72 92 35 q 129 139 129 96 l 129 486 q 89 556 114 556 l 47 556 l 26 549 l 25 560 l 204 632 l 228 632 l 228 474 q 293 575 267 544 q 383 632 342 632 q 449 611 422 632 q 474 567 474 590 z "},"s":{"ha":553,"x_min":68,"x_max":504,"o":"m 504 172 q 414 321 504 260 l 250 407 q 161 504 161 454 q 194 575 161 553 q 279 593 221 593 q 374 542 335 593 q 424 421 407 503 l 458 421 l 458 646 l 424 646 l 413 632 q 393 624 403 624 l 332 638 q 288 646 301 646 l 231 646 q 121 596 178 646 q 68 458 68 542 q 151 313 68 374 l 306 226 q 390 128 390 181 q 358 54 390 79 q 272 29 328 29 q 214 46 243 29 q 161 88 183 61 l 128 128 l 115 150 q 101 219 101 179 l 68 219 l 68 -17 l 101 -17 l 101 -11 l 108 -4 q 128 1 114 1 l 197 -11 q 317 -25 251 -25 q 440 31 376 -25 q 504 172 504 85 m 490 174 q 429 39 490 88 q 311 -11 367 -11 l 251 -8 l 197 1 q 121 15 146 15 q 93 -3 101 13 l 82 -3 l 82 206 l 92 206 q 158 74 111 125 q 275 15 213 15 q 371 44 338 15 q 404 128 404 72 q 321 236 404 185 l 161 321 q 82 457 82 378 q 135 583 82 535 q 236 632 188 632 q 335 621 283 632 q 393 608 383 608 l 415 613 l 426 622 l 432 632 l 444 632 l 444 435 l 435 435 q 406 510 421 479 q 378 556 390 543 q 276 607 335 607 q 182 582 215 607 q 147 504 147 557 q 236 399 147 450 l 403 315 q 490 174 490 257 z "},"t":{"ha":403,"x_min":14,"x_max":404,"o":"m 404 131 l 364 131 l 336 92 q 289 76 318 76 q 244 110 257 76 q 238 171 238 131 l 238 568 l 382 568 l 382 628 l 238 628 l 238 832 l 204 832 l 160 735 q 99 660 126 685 q 14 601 65 631 l 14 568 l 113 568 l 113 158 l 117 92 l 124 67 l 136 38 q 233 -17 172 -17 q 344 29 299 -17 q 404 131 375 64 m 385 117 q 322 31 360 64 q 231 -3 285 -3 q 146 49 172 -3 q 126 156 126 92 l 126 582 l 28 582 l 28 592 q 143 688 93 619 q 214 818 182 738 l 224 818 l 224 614 l 368 614 l 368 582 l 224 582 l 224 169 l 224 117 q 244 79 231 96 q 286 63 257 63 q 338 76 314 63 q 371 117 364 94 l 385 117 z "},"u":{"ha":710,"x_min":1,"x_max":706,"o":"m 706 54 l 692 90 l 665 82 l 626 78 q 600 178 600 78 l 600 244 l 600 628 l 376 628 l 376 590 l 383 590 q 453 575 429 590 q 475 504 475 557 l 475 156 q 407 100 439 119 q 317 72 363 72 q 247 114 271 72 q 233 206 233 142 l 233 628 l 1 628 l 1 590 q 82 578 64 590 q 107 501 107 556 l 107 224 q 129 65 107 124 q 253 -25 169 -25 q 385 13 322 -25 q 475 96 418 35 l 475 -25 l 514 -25 l 706 54 m 689 63 l 510 -11 l 489 -11 l 489 131 l 394 35 q 268 -11 335 -11 q 164 36 203 -11 q 121 225 121 92 l 121 499 q 103 565 121 542 q 15 604 78 604 l 15 614 l 219 614 l 219 201 l 224 153 l 233 115 q 317 58 258 58 q 417 89 368 58 q 489 150 458 119 l 489 506 q 472 569 489 547 q 390 604 446 604 l 390 614 l 588 614 l 588 138 q 624 64 600 64 l 661 64 l 685 69 l 689 63 z "},"v":{"ha":708,"x_min":11,"x_max":694,"o":"m 694 590 l 694 628 l 478 628 l 478 590 l 508 590 q 549 569 549 590 l 543 538 l 533 507 l 394 169 l 257 494 l 247 525 l 243 560 q 268 590 243 581 l 318 592 l 318 628 l 11 628 l 11 590 q 82 565 60 582 q 119 503 103 547 l 343 -25 l 381 -25 l 603 511 q 635 569 624 558 q 689 590 656 590 l 694 590 m 681 614 l 681 604 q 621 576 649 604 l 607 554 l 589 515 l 372 -11 l 351 -12 l 132 508 q 92 571 107 557 q 25 601 69 593 l 25 614 l 304 614 l 303 604 q 250 592 269 604 q 231 558 231 576 l 232 521 l 243 489 l 396 129 l 547 501 l 557 535 q 563 568 563 544 q 539 596 558 585 q 492 604 521 604 l 492 614 l 681 614 z "},"w":{"ha":1017,"x_min":8,"x_max":1004,"o":"m 1004 590 l 1004 628 l 794 628 l 794 590 l 836 583 q 858 563 858 578 l 856 539 l 846 504 l 719 176 l 674 288 l 610 443 q 581 549 581 525 q 604 579 583 571 q 626 588 614 582 l 632 589 q 657 590 636 590 l 665 590 l 665 628 l 356 628 l 354 590 l 360 590 q 460 519 429 590 l 489 438 l 361 164 l 233 504 l 226 529 l 222 560 q 236 582 225 578 q 272 590 251 590 l 283 590 l 283 628 l 8 628 l 8 590 q 72 561 51 582 q 107 501 94 538 l 308 -25 l 342 -25 l 518 358 l 668 -25 l 707 -25 l 917 514 q 950 567 929 550 q 1004 590 974 590 m 990 603 q 935 571 957 594 q 903 519 914 547 l 697 -12 l 679 -11 l 519 394 l 333 -11 l 318 -11 l 119 506 q 85 569 101 556 q 22 601 65 592 l 22 614 l 269 614 l 268 603 q 229 590 244 603 q 210 560 210 578 l 214 528 l 222 501 l 361 131 l 501 435 l 474 514 q 439 574 461 557 q 369 601 411 597 l 369 614 l 651 614 l 651 603 q 590 590 615 603 q 567 551 567 575 l 572 513 l 721 140 l 858 501 l 867 533 l 871 567 q 849 596 869 586 l 829 603 l 808 603 l 808 614 l 990 614 l 990 603 z "},"x":{"ha":708,"x_min":18,"x_max":690,"o":"m 690 -7 l 688 32 q 604 68 640 32 l 581 96 l 546 146 l 393 363 l 475 474 l 513 524 l 538 551 q 625 590 576 590 l 625 628 l 400 628 l 400 590 l 433 585 q 450 565 450 575 q 406 486 443 542 l 357 419 l 314 488 q 274 569 274 553 q 299 590 274 585 l 325 589 l 325 628 l 18 628 l 18 590 q 106 558 69 590 l 131 528 l 165 482 l 281 315 l 153 146 l 96 75 q 24 31 56 35 l 24 -7 l 240 -7 l 240 32 q 197 39 218 32 q 178 63 178 50 q 213 125 182 85 l 278 214 l 317 264 l 383 169 q 443 61 443 81 q 425 38 440 42 q 383 32 414 32 l 383 -7 l 690 -7 m 675 7 l 397 7 l 397 18 q 438 28 433 25 q 457 58 457 43 q 421 131 450 85 l 357 229 l 317 288 l 274 232 l 201 135 q 165 63 165 75 q 189 31 169 43 q 226 18 208 18 l 226 7 l 38 7 l 38 18 q 108 67 72 28 l 163 138 l 296 314 l 175 489 q 93 583 122 563 q 32 604 63 604 l 32 614 l 311 614 l 311 604 q 275 593 288 603 q 261 565 261 579 q 306 474 265 540 l 357 396 l 432 500 q 463 565 463 547 q 447 592 458 585 q 414 604 438 604 l 414 614 l 611 614 l 611 604 q 525 558 563 593 q 464 482 506 544 l 376 364 l 533 139 l 592 60 q 675 18 632 22 l 675 7 z "},"y":{"ha":708,"x_min":8,"x_max":700,"o":"m 700 590 l 700 628 l 483 628 l 483 590 l 521 590 q 546 560 546 581 q 542 539 544 551 q 533 510 540 525 l 401 178 l 256 479 q 239 521 243 503 l 236 557 q 263 585 239 576 l 311 588 l 311 628 l 8 628 l 8 590 q 74 556 57 572 q 118 489 96 540 l 340 22 l 297 -89 q 211 -179 247 -179 l 157 -161 q 108 -154 133 -154 q 60 -172 82 -154 q 40 -225 40 -192 q 71 -283 40 -261 q 154 -304 103 -304 q 271 -244 207 -304 q 356 -119 324 -193 l 608 500 q 639 563 629 550 q 700 590 663 590 m 686 603 q 626 568 649 597 q 594 504 613 554 l 344 -117 q 264 -232 314 -186 q 154 -290 204 -290 q 79 -271 106 -290 q 54 -225 54 -250 q 71 -181 54 -196 q 113 -168 88 -168 l 135 -168 l 168 -179 q 224 -193 196 -193 q 279 -144 247 -189 q 328 -51 299 -115 l 356 24 l 131 496 q 88 563 107 544 q 22 600 57 592 l 22 614 l 297 614 l 297 603 q 247 592 272 603 q 222 554 222 575 l 228 510 l 243 472 l 403 143 l 549 503 l 556 533 l 560 568 q 539 596 560 586 l 521 603 l 497 603 l 497 614 l 686 614 l 686 603 z "},"z":{"ha":631,"x_min":28,"x_max":607,"o":"m 606 593 l 607 628 l 74 628 l 68 442 l 110 442 l 110 450 l 114 489 q 132 538 118 515 q 178 568 146 561 l 243 568 l 432 567 l 28 25 l 28 -7 l 589 -7 l 596 197 l 561 197 q 522 94 561 136 q 411 53 483 53 l 199 51 l 606 593 m 593 614 l 593 599 l 171 39 l 411 39 q 531 78 488 39 q 572 183 572 119 l 582 183 l 576 7 l 42 7 l 42 22 l 460 582 l 178 582 l 153 572 l 136 565 q 97 456 97 535 l 83 456 l 88 614 l 593 614 z "},"{":{"ha":681,"x_min":192,"x_max":583,"o":"m 583 -307 l 583 -271 q 478 -221 515 -254 q 431 -118 431 -178 l 435 -67 l 446 -7 q 458 58 457 33 q 461 119 461 94 q 406 242 461 178 q 274 335 350 306 q 347 375 311 350 q 404 424 385 400 q 461 547 461 489 l 457 610 l 446 675 q 433 738 436 713 q 431 797 431 768 q 478 888 431 849 q 583 936 517 919 l 583 972 l 576 972 q 394 885 463 949 q 315 739 315 810 l 319 665 l 331 596 q 347 479 347 525 q 296 393 347 432 q 192 353 247 353 l 192 314 q 296 272 254 308 q 347 186 347 229 q 332 71 347 143 q 315 -72 315 3 q 394 -219 315 -144 q 576 -306 468 -289 l 583 -307 m 569 -292 q 401 -208 469 -276 q 329 -69 329 -136 q 344 68 329 -15 l 356 133 l 361 188 q 311 278 361 236 q 206 325 265 315 l 206 342 q 311 389 272 354 q 361 479 361 433 q 346 589 361 515 q 329 735 329 658 q 401 874 329 804 q 569 957 472 944 l 569 946 q 458 886 497 929 q 417 799 417 843 l 417 749 l 424 703 q 447 539 447 589 q 379 418 447 482 q 233 335 325 367 q 260 324 239 332 q 269 319 267 321 q 317 294 301 306 q 379 249 354 274 q 447 124 447 185 l 447 65 l 439 17 q 417 -135 417 -89 q 463 -226 417 -183 q 569 -281 506 -264 l 569 -292 z "},"|":{"ha":292,"x_min":110,"x_max":179,"o":"m 179 -307 l 179 971 l 110 971 l 110 -307 l 179 -307 m 165 -293 l 124 -293 l 124 957 l 165 957 l 165 -293 z "},"}":{"ha":681,"x_min":119,"x_max":513,"o":"m 513 313 l 513 353 q 457 363 490 353 q 407 393 431 375 q 357 476 357 435 q 378 624 357 522 q 388 671 388 653 l 388 708 l 388 742 q 307 885 388 808 q 126 971 233 954 l 119 972 l 119 936 q 225 886 188 918 q 274 785 274 846 q 254 678 274 756 q 247 644 253 667 q 242 607 242 626 l 242 576 l 242 547 q 300 422 242 492 q 431 332 351 363 q 299 242 346 297 q 242 122 242 176 q 264 -37 242 64 q 274 -83 274 -67 l 274 -112 l 274 -135 q 225 -221 274 -181 q 119 -271 186 -249 l 119 -307 l 128 -307 q 308 -219 236 -287 q 388 -74 388 -144 q 383 -3 388 -39 q 372 64 381 24 q 357 185 357 129 q 407 272 357 233 q 513 313 450 307 m 499 325 q 393 278 432 313 q 343 192 343 231 q 364 43 343 154 q 374 -71 374 3 q 299 -207 374 -135 q 133 -292 231 -275 l 133 -281 q 239 -226 200 -264 q 288 -132 288 -178 q 282 -79 288 -108 q 278 -56 281 -72 q 276 -47 276 -49 q 271 -22 272 -31 q 261 21 267 6 q 256 57 256 38 l 256 90 l 256 122 q 322 249 256 185 q 469 331 378 300 q 324 417 367 375 q 256 543 256 481 l 260 607 l 271 675 q 288 796 288 740 q 239 892 288 847 q 133 946 196 929 l 133 957 q 303 868 233 940 q 374 733 374 796 q 356 594 374 663 l 343 533 l 343 508 l 343 479 q 393 388 343 432 q 499 342 439 350 l 499 325 z "},"~":{"ha":765,"x_min":31,"x_max":767,"o":"m 767 460 l 767 467 l 722 467 l 722 456 q 689 376 722 414 q 603 339 647 339 q 478 372 561 339 l 331 433 q 181 467 243 467 q 72 406 117 467 q 40 349 47 372 q 31 311 31 328 l 31 272 l 31 264 l 72 264 q 107 350 72 311 q 190 389 142 389 q 318 356 238 389 l 463 293 q 606 264 536 264 q 719 322 672 264 q 754 382 744 356 q 765 421 763 403 q 767 460 767 429 m 753 453 q 707 331 753 383 q 603 278 661 278 q 461 310 544 278 l 321 369 q 188 403 238 403 q 104 368 135 403 q 60 278 72 331 l 44 278 l 44 313 l 51 343 q 82 399 63 367 q 183 453 128 453 q 329 419 242 453 l 472 357 q 606 325 557 325 q 692 361 656 325 q 735 453 726 400 l 753 453 z "},"‚":{"ha":475,"x_min":138,"x_max":353,"o":"m 353 -6 q 319 97 353 51 q 240 143 286 143 q 165 119 193 143 q 138 56 138 94 q 158 -3 138 18 q 204 -26 178 -26 l 242 -21 l 275 -7 l 285 -18 l 285 -56 q 239 -135 285 -87 q 138 -196 199 -176 l 138 -240 q 286 -157 232 -211 q 353 -6 353 -89 m 339 -21 q 281 -143 339 -85 q 151 -221 232 -192 l 151 -206 q 251 -139 214 -185 q 296 -51 296 -86 l 296 -19 l 292 -3 q 286 3 289 0 l 283 4 q 279 6 282 6 q 276 7 276 7 q 247 -1 265 7 q 207 -12 228 -12 q 168 6 183 -11 q 151 57 151 29 q 174 108 151 89 q 239 129 200 129 q 311 85 279 129 q 339 -21 339 44 z "},"ƒ":{"ha":707,"x_min":1,"x_max":690,"o":"m 690 871 q 661 925 690 903 q 572 947 631 947 q 465 883 513 947 q 401 746 432 836 q 351 631 371 654 q 297 604 333 608 l 249 600 l 236 600 l 224 540 l 344 540 l 315 429 l 288 314 l 263 204 l 243 104 l 225 11 l 204 -79 l 174 -178 q 119 -244 144 -244 l 96 -237 l 106 -219 q 111 -194 111 -210 q 92 -167 108 -178 q 56 -154 74 -154 q 17 -175 32 -154 q 1 -225 1 -194 q 28 -276 1 -254 q 108 -299 54 -299 q 222 -232 163 -299 q 306 -82 268 -178 q 353 67 328 -28 l 394 225 l 433 388 l 468 540 l 585 540 l 601 600 l 481 600 l 499 718 l 522 835 q 549 885 536 868 q 589 901 561 901 l 603 901 l 603 893 l 597 878 q 589 846 589 860 q 603 817 593 826 q 640 804 619 804 q 678 821 664 804 q 690 871 690 838 m 676 872 q 665 832 676 846 q 640 818 653 818 q 611 831 619 822 q 603 847 603 839 l 608 871 l 617 892 q 608 911 617 901 l 579 915 q 543 897 558 913 q 504 821 519 876 q 479 686 489 761 l 464 586 l 585 586 l 575 554 l 451 554 l 450 551 l 421 389 l 383 228 l 340 69 q 294 -69 321 -3 q 215 -218 258 -167 q 110 -285 160 -285 q 38 -268 61 -285 q 15 -225 15 -250 q 26 -183 15 -199 q 57 -168 42 -168 q 86 -176 74 -168 q 97 -196 97 -187 l 92 -215 q 82 -243 82 -229 q 104 -258 86 -258 q 182 -190 153 -258 q 215 -83 201 -150 l 239 22 l 275 199 l 301 317 l 331 436 l 361 554 l 240 554 l 249 586 l 304 592 l 329 596 q 399 700 365 611 q 463 853 449 831 q 569 933 517 933 q 651 917 626 933 q 676 872 676 894 z "},"„":{"ha":631,"x_min":46,"x_max":590,"o":"m 590 -1 q 554 99 590 54 q 471 143 517 143 q 399 118 426 143 q 369 58 369 93 q 392 0 369 21 q 436 -21 415 -21 l 474 -17 q 499 -12 485 -12 q 511 -28 507 -17 l 511 -60 q 476 -128 511 -87 q 400 -181 440 -168 l 400 -224 q 532 -143 483 -196 q 590 -1 590 -83 m 576 -11 q 531 -126 576 -72 q 414 -204 482 -182 l 414 -190 q 490 -132 465 -164 q 525 -57 525 -93 q 517 -10 525 -25 q 499 1 506 1 l 471 -3 q 436 -7 457 -7 q 400 14 417 -4 q 383 60 383 31 q 407 108 383 88 q 472 129 436 129 q 544 89 513 129 q 576 -11 576 49 m 265 0 q 232 97 265 54 q 149 143 194 143 q 75 118 104 143 q 46 58 46 93 q 68 1 46 24 q 110 -21 88 -21 l 146 -17 q 172 -12 161 -12 q 185 -22 179 -15 q 189 -62 189 -37 q 154 -128 189 -93 q 78 -182 135 -147 l 78 -224 q 211 -143 165 -189 q 265 0 265 -81 m 253 -12 q 208 -129 253 -72 q 92 -206 164 -185 l 92 -190 q 169 -132 146 -161 q 203 -61 203 -94 q 196 -14 203 -35 q 176 1 185 1 l 147 -3 q 114 -7 133 -7 q 78 11 94 -6 q 58 58 58 31 q 83 108 58 88 q 149 129 107 129 q 221 88 192 129 q 253 -12 253 47 z "},"…":{"ha":1403,"x_min":156,"x_max":1246,"o":"m 1246 57 q 1222 115 1246 88 q 1163 140 1197 140 q 1106 117 1129 140 q 1082 57 1082 92 q 1106 -1 1082 22 q 1164 -25 1129 -25 q 1222 1 1199 -25 q 1246 57 1246 29 m 1232 57 q 1213 8 1232 32 q 1164 -11 1189 -11 q 1115 10 1135 -11 q 1096 58 1096 32 q 1115 107 1096 85 q 1164 126 1135 126 q 1213 104 1193 126 q 1232 57 1232 81 m 782 57 q 758 115 782 88 q 700 140 736 140 q 642 115 665 140 q 618 57 618 88 q 642 -1 618 22 q 700 -25 665 -25 q 758 -1 735 -25 q 782 57 782 25 m 768 57 q 749 8 768 32 q 699 -11 725 -11 q 653 10 674 -11 q 632 58 632 29 q 651 107 632 85 q 700 126 671 126 q 749 104 729 126 q 768 57 768 81 m 319 58 q 294 115 319 94 q 238 140 271 140 q 179 115 201 140 q 156 57 156 88 q 179 -1 156 22 q 238 -25 203 -25 q 294 -1 272 -25 q 319 58 319 22 m 306 57 q 285 8 306 28 q 238 -11 263 -11 q 189 10 207 -11 q 169 58 169 32 q 189 107 169 85 q 238 126 208 126 q 286 107 267 126 q 306 57 306 85 z "},"†":{"ha":708,"x_min":68,"x_max":639,"o":"m 639 621 q 614 672 639 651 q 561 692 586 692 q 489 676 535 692 q 368 639 389 642 q 376 685 368 660 l 388 715 l 415 792 q 432 865 432 832 q 407 929 432 899 q 349 958 382 958 q 292 931 315 958 q 268 865 268 903 q 289 778 268 828 q 329 639 329 672 l 289 644 l 232 667 q 143 692 172 692 q 90 669 110 692 q 68 618 68 647 q 92 567 68 586 q 143 547 115 547 q 213 561 169 547 q 329 600 311 600 q 313 515 324 544 q 261 449 292 471 q 304 222 286 383 l 318 78 l 322 -43 l 325 -158 l 329 -292 l 368 -292 l 368 -262 l 368 -244 l 368 -211 l 368 -174 l 374 -117 l 374 -60 l 379 69 l 394 225 q 438 450 417 386 q 385 517 397 478 l 374 554 q 368 600 368 564 l 561 547 q 617 569 594 547 q 639 621 639 592 m 626 619 q 607 578 626 593 q 557 561 586 561 q 481 581 535 561 q 456 592 464 588 q 444 599 453 593 q 440 600 442 600 q 408 608 419 608 l 383 613 l 354 615 l 368 522 q 422 444 383 478 q 407 386 410 403 q 394 325 401 364 q 383 261 385 276 q 379 206 379 236 l 368 97 l 367 -26 l 357 -278 l 343 -278 l 342 -221 l 340 -165 l 339 -36 l 335 78 l 318 225 q 276 444 306 326 q 329 522 317 481 q 336 547 336 539 l 339 567 l 344 615 l 293 604 l 264 594 l 246 589 l 194 571 q 164 561 175 561 l 140 561 q 99 575 117 561 q 82 618 82 596 q 100 661 82 643 q 144 678 122 678 q 197 665 168 678 l 246 644 q 294 631 263 635 l 344 624 q 336 679 344 650 l 313 747 q 282 858 282 821 q 301 921 282 897 q 349 944 321 944 q 399 919 381 944 q 414 893 411 906 l 418 868 l 418 847 q 410 817 414 843 l 379 740 l 367 685 l 360 657 l 356 625 l 408 633 q 454 646 438 638 l 506 667 q 536 676 524 674 q 563 678 543 678 q 607 663 588 678 q 626 619 626 646 z "},"‡":{"ha":707,"x_min":94,"x_max":611,"o":"m 611 -10 q 592 38 611 21 q 540 57 572 57 q 457 36 510 57 l 372 8 q 394 69 381 53 q 440 115 410 89 q 385 214 397 164 q 372 332 372 263 q 386 444 372 394 q 410 497 399 476 q 440 549 425 526 q 390 596 404 571 q 372 654 376 618 l 542 610 q 592 629 572 610 q 611 676 611 649 q 593 725 611 707 q 543 743 575 743 q 456 719 514 743 q 372 696 396 696 q 403 796 372 726 q 428 890 428 857 q 410 947 428 925 q 354 971 390 971 q 300 947 319 971 q 279 904 279 925 l 279 872 l 279 857 l 310 778 l 324 729 q 329 696 329 714 l 158 743 q 113 725 129 743 q 94 676 94 707 q 114 629 94 649 q 161 610 133 610 l 196 615 l 244 632 l 282 647 q 329 656 307 656 q 306 589 321 614 q 263 549 288 563 q 315 453 303 494 q 329 340 329 413 q 313 215 329 282 q 263 115 294 149 l 308 71 q 329 14 325 51 l 165 57 q 114 38 133 57 q 94 -12 94 18 q 114 -60 94 -43 q 161 -79 133 -79 q 225 -64 183 -79 q 329 -32 304 -32 l 279 -226 q 300 -283 279 -258 q 354 -307 322 -307 q 407 -282 386 -307 q 428 -231 428 -257 l 424 -197 l 413 -157 q 382 -74 396 -115 q 372 -32 372 -44 l 543 -79 q 592 -60 575 -79 q 611 -10 611 -40 m 597 -10 q 582 -50 597 -35 q 544 -65 564 -65 l 519 -65 l 492 -57 l 407 -24 l 382 -18 l 357 -18 l 367 -79 l 388 -135 q 414 -226 414 -193 q 396 -274 414 -256 q 351 -293 376 -293 q 308 -274 324 -293 q 290 -228 290 -256 l 290 -206 l 300 -171 l 321 -117 q 335 -68 331 -99 l 346 -18 l 304 -18 l 288 -22 l 163 -65 q 124 -50 139 -65 q 108 -11 108 -35 q 124 28 108 15 q 163 43 139 43 l 188 38 l 213 32 l 296 3 l 315 0 l 346 -1 l 336 40 l 329 64 q 282 117 317 86 q 332 218 318 167 q 346 336 346 265 l 340 396 l 329 453 q 282 546 313 514 q 329 601 319 575 l 346 669 l 325 669 l 296 664 l 228 638 q 163 624 192 624 q 121 638 139 624 q 108 678 108 653 q 124 715 108 700 q 163 729 138 729 q 231 710 185 729 l 296 685 l 321 681 l 346 681 l 339 732 l 317 790 q 290 888 290 851 q 307 938 290 921 q 354 957 322 957 q 397 938 385 957 q 414 892 414 924 l 410 864 l 403 839 l 382 793 q 371 764 372 776 l 367 743 l 361 713 l 357 681 l 407 686 l 458 704 q 540 729 515 729 q 582 714 569 729 q 597 676 597 699 q 579 638 593 651 q 538 624 565 624 q 457 647 515 624 l 413 664 l 382 669 l 357 669 l 365 632 l 375 599 q 419 546 392 569 q 371 444 383 492 q 357 329 357 399 q 361 268 357 300 q 371 214 367 232 q 419 117 388 167 q 372 64 382 83 q 357 -7 361 39 l 397 4 l 472 29 l 513 43 l 540 43 q 582 29 568 43 q 597 -10 597 14 z "},"ˆ":{"ha":486,"x_min":40,"x_max":446,"o":"m 446 708 l 310 946 l 176 946 l 40 708 l 74 708 l 228 849 l 407 708 l 446 708 m 419 721 l 415 722 l 228 868 l 71 722 l 65 721 l 183 932 l 301 932 l 419 721 z "},"‰":{"ha":1403,"x_min":44,"x_max":1357,"o":"m 1357 228 q 1304 385 1357 311 q 1188 464 1246 464 q 1106 457 1133 464 q 1057 435 1079 449 q 976 340 997 403 q 954 204 954 279 q 1004 36 954 107 q 1121 -43 1063 -43 q 1207 -33 1178 -43 q 1256 -11 1229 -26 q 1336 89 1311 24 q 1357 228 1357 146 m 1343 226 q 1324 94 1343 153 q 1249 0 1300 33 q 1201 -22 1232 -12 q 1122 -31 1175 -31 q 1014 46 1069 -31 q 967 194 967 114 q 972 268 967 240 q 989 333 979 301 q 1065 422 1015 393 q 1107 443 1085 435 q 1154 450 1132 450 q 1294 375 1240 450 q 1343 226 1343 306 m 1247 217 l 1243 292 l 1233 349 q 1154 428 1208 428 q 1072 340 1096 428 q 1063 210 1063 303 q 1075 76 1063 125 q 1157 -6 1103 -6 q 1236 86 1215 -6 q 1247 217 1247 133 m 1235 224 l 1232 149 l 1225 96 q 1156 7 1203 7 q 1086 88 1103 7 q 1076 139 1079 113 q 1075 222 1075 154 q 1094 361 1075 307 q 1158 414 1118 414 q 1222 338 1206 414 q 1235 224 1235 286 m 450 693 q 399 865 450 793 q 244 947 342 947 q 93 865 150 947 q 44 693 44 792 q 94 521 44 594 q 249 440 150 440 q 401 521 346 440 q 450 693 450 594 m 436 693 q 390 531 436 600 q 249 454 339 454 q 167 475 203 454 q 104 531 128 496 q 58 694 58 604 q 103 857 58 788 q 246 933 154 933 q 389 856 336 933 q 436 693 436 788 m 340 699 l 336 774 l 326 829 q 243 911 301 911 q 165 824 186 911 q 153 693 153 781 q 167 560 153 606 q 246 475 189 475 q 326 565 303 475 q 340 699 340 608 m 326 699 q 321 613 326 646 q 306 546 317 581 q 240 489 281 489 q 176 569 193 489 q 167 703 167 604 q 185 844 167 786 q 250 897 208 897 q 315 818 294 897 q 326 699 326 765 m 846 947 l 769 947 l 101 -44 l 178 -44 l 846 947 m 821 933 l 171 -31 l 126 -31 l 778 933 l 821 933 m 906 211 q 854 382 906 310 q 701 464 793 464 q 550 381 607 464 q 500 208 500 306 q 550 38 500 111 q 703 -44 607 -44 q 856 39 800 -44 q 906 211 906 117 m 893 210 q 844 49 893 118 q 701 -31 789 -31 q 560 47 613 -31 q 514 210 514 118 q 561 372 514 304 q 704 450 614 450 q 844 371 790 450 q 893 210 893 297 m 797 207 q 782 339 797 275 q 701 428 760 428 q 619 339 640 428 q 610 210 610 301 q 622 76 610 125 q 700 -6 647 -6 q 782 78 757 -6 q 797 207 797 126 m 783 206 q 771 88 783 138 q 700 7 750 7 q 633 88 650 7 q 622 207 622 129 l 625 279 l 632 329 q 700 414 650 414 q 771 328 751 414 q 783 206 783 272 z "},"Š":{"ha":785,"x_min":88,"x_max":711,"o":"m 592 1222 l 557 1222 l 403 1083 l 221 1222 l 186 1222 l 324 985 l 456 985 l 592 1222 m 567 1208 l 449 999 l 329 999 l 210 1208 l 217 1208 l 406 1065 l 563 1208 l 567 1208 m 711 238 q 581 454 711 357 l 339 593 q 208 738 208 672 q 258 843 208 806 q 389 879 307 879 q 542 801 472 879 q 594 715 574 764 q 613 615 613 671 l 650 615 l 650 947 l 613 947 q 597 906 607 919 q 576 893 589 893 q 539 901 563 893 l 521 908 l 482 925 l 436 938 q 326 947 401 947 q 168 876 247 947 q 88 693 88 806 q 214 485 88 578 l 450 346 q 576 192 576 269 q 522 78 576 115 q 375 39 467 39 q 214 111 282 39 q 132 301 142 183 l 96 301 l 96 -28 l 133 -28 q 147 14 133 1 q 168 25 161 25 q 208 17 182 25 l 250 3 l 331 -19 q 454 -28 379 -28 q 619 43 535 -28 q 711 238 711 122 m 697 239 q 613 56 697 124 q 444 -14 526 -14 q 276 13 354 -14 q 169 39 197 39 q 133 25 142 39 q 121 -14 125 11 l 110 -14 l 110 288 l 121 288 q 163 154 138 203 q 260 61 193 99 q 401 25 325 25 q 533 67 475 25 q 590 190 590 107 q 461 351 590 272 l 225 490 q 101 692 101 581 q 181 869 101 806 q 331 933 258 933 q 460 917 406 933 l 571 882 q 608 899 596 886 q 624 933 619 913 l 636 933 l 636 629 l 624 629 q 546 815 606 750 q 388 893 476 893 q 249 851 301 893 q 194 738 194 808 q 325 585 194 665 l 567 447 q 697 239 697 354 z "},"‹":{"ha":482,"x_min":81,"x_max":401,"o":"m 400 -12 l 231 315 l 401 640 l 349 640 l 81 315 l 349 -12 l 400 -12 m 378 1 l 354 1 l 97 314 l 354 626 l 378 626 l 214 315 l 378 1 z "},"Œ":{"ha":1250,"x_min":51,"x_max":1211,"o":"m 1211 238 l 1171 238 l 1168 233 q 1086 107 1125 142 q 986 63 1049 74 q 904 58 956 58 l 888 58 l 868 58 q 767 124 788 58 l 763 153 l 763 450 l 881 450 q 967 413 932 450 q 1015 313 1006 376 l 1056 313 l 1056 646 l 1015 646 q 993 579 1003 603 q 879 514 957 514 l 763 514 l 763 863 l 929 863 q 1051 836 1021 863 q 1099 717 1082 810 l 1100 711 l 1135 711 l 1115 935 l 488 935 q 411 929 443 935 q 335 913 372 922 q 165 796 228 879 q 51 464 51 665 q 163 128 51 264 q 243 54 211 75 q 469 -18 349 -18 l 800 -7 l 1133 -7 l 1211 238 m 1192 224 l 1122 7 l 799 7 l 701 -1 l 646 -1 l 510 -6 l 471 -1 q 171 140 286 -1 q 64 464 64 275 q 175 786 64 658 q 246 854 215 832 q 456 921 344 921 l 488 919 l 1107 919 l 1122 724 l 1113 724 q 1058 851 1088 826 q 929 876 1029 876 l 749 878 l 749 500 l 883 500 q 978 533 939 500 q 1028 633 1015 567 l 1042 633 l 1042 326 l 1028 326 q 956 444 1010 411 q 879 464 921 464 l 749 464 l 749 150 q 753 117 750 135 q 754 111 753 117 l 765 89 q 869 44 793 44 l 971 47 l 1021 54 q 1114 119 1074 72 q 1178 224 1150 164 l 1192 224 m 632 231 l 632 708 l 628 768 q 608 840 617 833 q 481 892 575 892 q 313 818 382 892 q 231 663 253 754 q 207 457 207 567 q 233 260 207 356 q 317 101 261 160 q 483 31 388 31 q 613 88 581 31 q 628 142 624 108 l 632 231 m 618 231 q 601 99 618 135 q 482 44 571 44 q 324 113 388 44 q 242 271 268 169 q 221 456 221 358 q 240 642 221 544 q 319 807 265 747 q 481 878 390 878 q 600 831 574 878 q 618 707 618 800 l 618 231 z "},"‘":{"ha":475,"x_min":125,"x_max":344,"o":"m 344 665 q 321 724 344 703 q 281 749 299 749 l 242 743 l 217 738 q 206 750 207 740 q 201 782 201 761 q 225 839 201 803 q 314 908 254 875 l 314 951 q 181 868 228 922 q 125 724 125 808 q 160 625 125 672 q 243 582 197 582 q 318 606 290 582 q 344 665 344 628 m 331 665 q 307 615 331 635 q 242 596 281 596 q 171 636 203 596 q 139 736 139 676 q 186 851 139 799 q 300 931 232 904 l 300 914 q 210 839 233 875 q 188 779 188 804 q 197 736 188 750 q 217 721 206 721 l 231 721 l 250 728 l 281 735 q 315 713 297 733 q 331 665 331 690 z "},"’":{"ha":476,"x_min":131,"x_max":351,"o":"m 351 806 q 314 904 351 861 q 232 947 276 947 q 158 922 185 947 q 131 867 131 897 q 156 810 131 835 q 196 783 178 783 l 231 789 q 258 794 243 794 q 274 775 268 793 l 274 740 q 235 678 274 708 l 161 624 l 161 578 q 294 663 251 615 q 351 806 351 724 m 338 793 q 289 676 338 733 q 175 599 249 631 l 175 617 q 251 674 232 653 q 288 744 288 714 q 279 793 288 776 q 260 808 268 808 l 231 803 q 199 797 219 797 q 161 819 176 801 q 144 867 144 836 q 168 914 144 897 q 233 933 192 933 q 306 896 275 933 q 338 793 338 856 z "},"“":{"ha":629,"x_min":46,"x_max":590,"o":"m 590 668 q 565 724 590 703 q 524 749 543 749 l 488 744 q 461 739 475 739 q 449 749 454 742 q 446 788 446 768 q 481 856 446 817 q 558 911 517 892 l 558 950 q 422 869 469 922 q 369 724 369 808 q 404 628 369 671 q 485 582 440 582 q 558 608 528 582 q 590 668 590 640 m 576 668 q 550 617 576 638 q 486 596 524 596 q 413 638 446 596 q 383 738 383 679 q 432 854 383 797 q 544 931 479 910 l 544 919 l 493 885 q 465 861 481 876 q 435 789 435 825 l 435 758 l 438 740 q 461 725 444 729 l 481 725 q 522 735 500 735 q 560 715 540 733 q 576 668 576 697 m 265 667 q 240 725 265 700 q 197 749 215 749 l 161 744 l 138 739 q 126 749 128 739 l 124 790 q 158 856 124 817 q 193 886 175 874 q 218 901 211 900 q 236 908 222 903 l 236 950 q 100 869 153 926 q 46 725 46 810 q 82 626 46 671 q 163 582 118 582 q 238 607 208 582 q 265 667 265 633 m 251 665 q 228 617 251 636 q 163 596 203 596 q 90 636 122 596 q 60 736 60 675 q 106 853 60 799 q 222 932 150 907 l 222 919 q 144 861 168 890 q 111 790 111 824 q 115 742 111 757 q 139 725 126 725 l 163 731 l 197 735 q 235 713 217 728 q 251 665 251 694 z "},"”":{"ha":631,"x_min":46,"x_max":590,"o":"m 590 938 q 554 1039 590 992 q 471 1083 517 1083 q 399 1058 426 1083 q 369 997 369 1032 q 393 939 369 961 q 436 918 417 918 l 472 924 l 499 929 q 511 914 507 926 l 511 879 q 476 814 511 854 q 400 758 442 772 l 400 717 q 536 800 479 742 q 590 938 590 858 m 576 928 q 531 814 576 867 q 414 735 485 760 l 414 750 q 490 807 475 792 q 525 882 525 846 q 517 931 525 918 q 499 943 507 943 l 471 938 q 436 932 458 932 q 400 954 415 936 q 383 1000 383 974 q 410 1050 383 1029 q 472 1069 438 1069 q 544 1029 513 1069 q 576 928 576 986 m 265 939 q 232 1036 265 993 q 149 1083 194 1083 q 75 1058 104 1083 q 46 997 46 1032 q 67 939 46 963 q 110 918 93 918 l 146 924 l 172 929 q 185 918 179 926 q 189 878 189 904 q 154 813 189 847 q 78 757 136 794 l 78 717 q 211 796 165 746 q 265 939 265 858 m 253 929 q 207 813 253 867 q 92 736 163 757 l 92 750 q 169 808 146 781 q 203 879 203 846 q 194 926 203 910 q 176 943 186 943 l 147 938 q 114 932 135 932 q 78 951 93 936 q 58 1000 58 971 q 83 1050 58 1029 q 149 1069 107 1069 q 221 1029 192 1069 q 253 929 253 989 z "},"•":{"ha":499,"x_min":76,"x_max":429,"o":"m 429 460 q 378 585 429 533 q 251 636 326 636 q 126 582 176 636 q 76 460 76 528 q 131 333 76 383 q 254 283 183 283 q 378 335 326 283 q 429 460 429 386 m 415 460 q 367 346 415 394 q 253 297 318 297 q 139 346 188 297 q 90 460 90 394 q 138 575 90 528 q 253 622 185 622 q 367 574 321 622 q 415 460 415 525 z "},"–":{"ha":708,"x_min":-12,"x_max":719,"o":"m 719 300 l 719 364 l -12 364 l -12 300 l 719 300 m 706 314 l 1 314 l 1 350 l 706 350 l 706 314 z "},"—":{"ha":1403,"x_min":-12,"x_max":1415,"o":"m 1415 300 l 1415 364 l -12 364 l -12 300 l 1415 300 m 1401 314 l 1 314 l 1 350 l 1401 350 l 1401 314 z "},"˜":{"ha":476,"x_min":15,"x_max":463,"o":"m 463 926 l 429 926 q 421 892 426 910 l 414 869 l 414 868 q 372 832 397 832 q 274 879 346 832 q 139 926 201 926 q 44 867 78 926 l 40 858 q 36 849 38 851 q 33 842 35 843 q 25 817 31 838 q 18 776 18 793 l 18 742 l 15 735 l 50 735 q 54 775 50 758 l 69 807 q 107 829 86 829 q 168 804 129 829 l 240 757 q 343 735 288 735 q 435 799 400 735 q 463 926 463 853 m 449 913 q 421 803 449 851 q 339 749 383 749 q 244 774 290 749 l 171 819 q 101 843 131 843 q 58 818 69 843 q 39 749 47 790 l 29 749 l 29 768 l 36 808 q 57 860 44 839 q 143 913 93 913 q 268 865 194 913 q 371 818 340 818 q 421 851 403 818 q 440 913 432 872 l 449 913 z "},"™":{"ha":979,"x_min":19,"x_max":969,"o":"m 969 485 l 969 506 q 922 528 940 506 q 908 571 913 542 l 908 874 q 917 910 908 897 q 969 935 936 935 l 969 956 l 840 956 l 689 596 l 536 954 l 411 956 l 411 935 l 440 926 q 469 872 469 910 l 469 568 q 454 525 469 540 q 411 504 438 508 l 411 485 l 567 485 l 567 506 q 513 538 528 506 q 506 569 507 550 l 506 863 l 667 485 l 679 485 l 842 863 l 842 571 l 833 542 q 781 506 814 510 l 781 485 l 969 485 m 963 493 l 786 493 l 786 499 q 832 524 819 507 q 847 569 847 539 l 847 894 l 676 493 l 669 493 l 500 894 l 500 568 q 508 532 500 547 q 560 499 525 503 l 560 493 l 417 493 l 417 499 l 447 510 q 479 569 479 533 l 479 874 q 447 933 479 914 q 417 942 435 942 l 417 947 l 532 946 l 689 582 l 844 947 l 963 947 l 963 942 l 932 933 q 903 872 903 913 l 903 569 q 918 521 903 540 q 963 499 938 503 l 963 493 m 386 840 l 382 956 l 25 956 l 19 840 l 39 840 q 79 910 50 894 q 119 919 97 919 l 168 919 l 168 568 q 160 533 168 546 q 108 506 144 510 l 108 485 l 296 485 l 296 506 q 239 550 251 506 q 236 569 236 558 l 236 919 l 293 919 q 342 899 325 919 q 368 840 363 878 l 386 840 m 381 847 l 374 847 q 349 906 369 889 q 293 925 326 925 l 229 925 l 229 568 q 244 522 229 542 q 290 499 260 503 l 290 493 l 114 493 l 114 499 q 168 538 156 507 q 175 568 174 547 l 175 925 l 121 925 q 75 913 96 925 q 32 847 40 890 l 26 847 l 31 947 l 375 947 l 381 847 z "},"š":{"ha":553,"x_min":68,"x_max":504,"o":"m 479 946 l 444 946 l 289 804 l 108 946 l 72 946 l 211 707 l 342 707 l 479 946 m 454 932 l 336 721 l 217 721 l 97 932 l 104 932 l 292 786 l 450 932 l 454 932 m 504 172 q 414 321 504 260 l 250 407 q 161 504 161 454 q 194 575 161 553 q 279 592 222 592 q 374 542 335 592 q 424 421 407 503 l 458 421 l 458 647 l 424 647 l 413 631 q 393 621 403 621 l 332 635 q 231 647 282 647 q 176 633 204 647 q 121 594 146 619 q 68 458 68 538 q 151 313 68 374 l 306 226 q 390 126 390 179 q 358 53 390 78 q 272 28 328 28 q 214 44 243 28 q 161 88 182 63 l 128 128 l 115 150 q 101 219 101 179 l 68 219 l 68 -17 l 101 -17 l 101 -11 l 108 -4 q 128 1 114 1 l 197 -11 q 317 -25 251 -25 q 440 31 376 -25 q 504 172 504 85 m 490 174 q 429 39 490 88 q 311 -11 367 -11 l 251 -8 l 197 1 q 121 15 146 15 q 93 -3 101 13 l 82 -3 l 82 206 l 92 206 q 158 74 111 125 q 275 15 213 15 q 371 44 338 15 q 404 128 404 72 q 321 236 404 185 l 161 321 q 82 457 82 379 q 135 585 82 536 q 236 633 188 633 q 335 621 288 633 q 393 608 383 608 l 415 614 l 426 624 l 432 633 l 444 633 l 444 435 l 435 435 q 406 508 422 474 q 378 554 390 542 q 276 606 335 606 q 182 581 215 606 q 147 503 147 556 q 236 399 147 449 l 403 315 q 490 174 490 257 z "},"›":{"ha":483,"x_min":78,"x_max":404,"o":"m 404 314 l 132 640 l 78 640 l 247 314 l 78 -12 l 132 -12 l 404 314 m 385 314 l 125 0 l 100 1 l 263 314 l 100 626 l 125 626 l 385 314 z "},"œ":{"ha":958,"x_min":39,"x_max":918,"o":"m 918 231 l 890 251 q 836 143 864 175 q 726 99 800 99 q 607 188 654 99 q 557 381 557 278 l 918 381 q 863 575 918 503 q 699 647 807 647 q 524 543 590 647 l 507 515 l 485 550 q 297 647 410 647 q 111 543 182 647 q 39 304 39 440 q 108 75 39 169 q 296 -25 183 -25 q 485 81 408 -25 l 504 110 l 522 76 q 688 -25 593 -25 q 846 49 785 -25 q 918 231 906 121 m 904 224 q 835 60 885 121 q 685 -11 776 -11 q 528 86 590 -11 l 510 121 l 504 135 l 496 122 l 475 89 q 293 -12 403 -12 q 117 83 182 -12 q 50 306 50 178 q 119 535 50 436 q 297 633 189 633 q 476 540 404 633 l 500 504 l 507 490 l 514 501 l 531 533 q 696 633 600 633 q 851 564 797 633 q 904 394 904 492 l 551 394 l 549 351 l 550 315 l 556 281 q 589 185 572 221 q 722 86 642 86 q 838 126 797 86 q 896 231 875 167 l 904 224 m 799 419 q 749 574 799 531 q 681 599 718 599 q 611 575 629 585 q 543 419 543 528 l 799 419 m 785 433 l 557 433 q 646 578 572 549 q 679 585 656 583 q 756 544 724 585 q 785 433 785 506 m 450 256 q 446 336 450 294 q 436 410 442 382 q 385 543 414 499 q 282 603 338 603 q 172 521 208 603 q 147 375 147 458 q 151 294 147 336 q 161 221 156 247 q 214 85 183 125 q 325 24 258 24 q 426 107 393 24 q 450 256 450 169 m 440 269 q 401 85 440 146 q 303 36 369 36 q 192 157 236 36 q 157 350 157 244 q 182 511 157 451 q 275 589 218 589 q 378 531 339 589 q 425 404 413 479 l 431 375 l 436 336 l 440 269 z "},"Ÿ":{"ha":1072,"x_min":13,"x_max":996,"o":"m 732 1171 q 707 1226 732 1206 q 650 1250 683 1250 q 594 1226 618 1250 q 571 1169 571 1203 q 594 1113 571 1136 q 651 1089 618 1089 q 707 1113 686 1089 q 732 1171 732 1136 m 718 1169 q 699 1122 718 1142 q 651 1103 679 1103 q 607 1124 628 1103 q 585 1171 585 1142 q 606 1217 585 1199 q 653 1236 625 1236 q 699 1217 682 1236 q 718 1169 718 1197 m 493 1171 q 469 1226 493 1206 q 413 1250 446 1250 q 357 1226 381 1250 q 333 1169 333 1203 q 357 1113 333 1136 q 414 1089 381 1089 q 469 1113 446 1089 q 493 1171 493 1136 m 479 1169 q 460 1122 479 1142 q 411 1103 438 1103 q 365 1122 385 1103 q 346 1171 346 1142 q 365 1218 346 1199 q 411 1236 383 1236 q 460 1217 438 1236 q 479 1169 479 1197 m 996 888 l 996 926 l 661 926 l 661 888 l 669 888 l 696 888 l 722 878 q 754 838 754 858 q 739 782 754 815 l 715 739 l 540 463 l 354 751 q 329 792 331 783 q 315 844 315 818 q 353 882 315 869 q 419 888 365 888 l 419 926 l 13 926 l 15 888 q 131 826 78 888 l 150 799 l 179 758 l 432 379 l 432 158 l 432 128 q 410 54 426 64 q 301 32 388 32 l 301 -7 l 706 -7 l 706 32 q 597 54 618 32 q 575 158 575 76 l 575 388 l 796 735 l 846 810 l 876 842 l 908 865 q 996 888 949 888 m 982 901 q 899 878 938 901 q 835 817 864 854 l 811 785 l 783 742 l 561 392 l 561 161 l 567 75 q 583 49 575 50 q 692 18 608 18 l 692 7 l 315 7 l 315 18 q 422 47 397 18 q 446 160 446 75 l 446 379 l 192 767 l 149 828 q 96 878 113 869 q 26 901 60 901 l 26 913 l 406 913 l 406 901 q 326 882 353 901 q 301 840 301 861 q 317 788 301 821 l 343 743 l 540 438 l 725 731 l 747 764 q 768 835 768 806 q 740 883 768 864 q 675 901 714 901 l 675 913 l 982 913 l 982 901 z "},"¡":{"ha":475,"x_min":154,"x_max":319,"o":"m 319 585 q 294 642 319 621 q 235 667 271 667 q 178 643 201 667 q 154 583 154 619 q 178 526 154 550 q 235 503 201 503 q 296 526 269 503 q 319 585 319 550 m 306 585 q 283 536 306 554 q 235 517 260 517 q 188 538 206 517 q 168 585 168 557 q 188 631 168 607 q 235 653 210 653 q 285 631 264 653 q 306 585 306 608 m 319 -221 l 319 -179 l 318 -151 l 256 406 l 217 406 l 154 -150 l 154 -197 q 175 -274 154 -239 q 233 -307 196 -307 q 297 -274 274 -307 q 319 -221 319 -247 m 306 -215 q 285 -268 301 -240 q 233 -293 265 -293 q 181 -261 200 -293 q 168 -203 168 -235 l 167 -151 l 229 392 l 244 392 l 303 -153 l 306 -183 l 306 -215 z "},"¢":{"ha":753,"x_min":147,"x_max":683,"o":"m 683 349 l 653 364 l 653 357 q 560 228 599 253 q 447 203 521 203 q 347 253 392 203 l 489 672 q 515 614 511 650 q 578 535 531 535 q 647 551 629 535 q 667 618 667 568 q 589 713 667 664 q 513 742 551 733 l 590 971 l 522 969 l 446 753 l 419 754 q 232 656 315 754 q 147 421 147 558 q 215 189 147 286 l 246 156 l 185 -25 l 253 -26 l 299 110 q 406 83 343 83 q 594 164 522 83 q 682 344 657 231 l 683 349 m 669 340 q 586 171 649 239 q 406 97 511 97 q 328 113 371 97 l 297 126 l 243 -12 l 203 -11 q 238 74 213 -7 l 264 156 l 249 169 l 224 203 q 161 424 161 297 q 236 644 161 551 q 285 693 268 681 q 413 742 349 742 l 433 742 q 454 736 439 736 l 531 957 l 571 957 l 494 736 l 531 726 q 581 706 568 714 q 653 619 653 658 q 635 561 653 574 q 583 549 617 549 q 532 590 544 549 l 511 667 l 506 679 q 481 697 496 693 l 328 250 l 364 219 q 449 189 407 189 q 586 235 536 189 q 661 344 625 269 l 669 340 m 446 708 q 382 699 407 708 q 326 669 354 689 q 294 632 314 663 q 257 469 257 572 q 279 344 257 406 l 301 294 l 446 708 m 424 694 l 303 319 q 279 385 283 361 q 272 425 275 400 q 272 429 272 426 q 271 468 271 442 q 304 622 271 560 q 424 694 351 694 z "},"£":{"ha":708,"x_min":42,"x_max":676,"o":"m 676 211 l 640 221 q 590 138 624 165 q 504 110 556 110 q 367 138 458 110 l 289 163 l 301 196 l 308 232 q 318 267 313 250 q 319 293 319 272 q 329 440 329 346 l 504 440 l 504 517 l 326 517 l 319 589 l 319 653 l 314 739 q 349 858 314 811 q 436 894 376 894 q 508 817 496 894 q 553 739 519 739 q 607 758 588 739 q 625 822 625 776 q 569 908 625 869 q 421 946 514 946 q 257 851 331 946 q 192 693 192 763 l 192 583 l 197 517 l 67 517 l 67 440 l 200 440 l 211 293 l 211 219 l 211 192 l 211 179 l 186 185 l 142 185 q 76 153 111 185 q 42 76 42 121 q 64 4 42 31 q 128 -22 86 -22 q 204 13 169 -22 q 256 82 238 44 l 322 32 q 397 -7 356 6 q 497 -22 431 -22 q 617 51 563 -22 q 675 204 658 111 l 676 211 m 661 201 q 606 58 644 108 q 486 -8 550 -8 q 354 29 419 -8 l 308 58 l 251 103 q 203 29 229 56 q 129 -8 164 -8 q 74 14 92 -8 q 56 76 56 36 q 85 143 56 117 q 153 171 115 171 l 192 171 l 224 164 l 224 197 l 224 240 l 225 308 l 211 447 l 211 454 l 81 454 l 81 503 l 211 503 l 203 579 l 203 689 q 265 842 203 761 q 422 932 339 932 q 561 894 510 932 q 611 822 611 857 q 596 768 611 783 q 556 753 581 753 q 517 831 529 753 q 431 908 501 908 q 324 840 354 908 q 300 732 300 793 l 306 617 l 317 503 l 490 503 l 490 454 l 315 454 l 315 417 q 311 318 315 350 l 293 235 l 272 154 l 356 125 q 531 96 447 96 q 649 204 614 96 l 661 201 m 217 119 q 153 143 185 143 q 119 136 133 143 q 101 126 113 133 l 100 125 q 81 81 81 106 q 93 35 81 54 q 138 17 111 17 q 189 53 165 17 q 217 119 203 67 m 201 114 q 176 60 192 81 q 131 29 158 29 q 101 47 110 33 q 93 81 93 60 q 113 117 97 101 q 153 129 128 129 l 176 125 l 201 114 z "},"¤":{"ha":714,"x_min":17,"x_max":693,"o":"m 693 172 l 594 271 q 647 360 632 319 q 661 419 661 397 l 661 446 l 661 461 q 628 600 661 533 q 594 653 619 621 l 693 750 l 646 797 l 550 700 l 494 733 q 353 765 424 765 q 257 747 307 765 q 165 700 203 728 l 65 797 l 17 749 l 115 651 q 79 594 89 617 q 63 558 67 572 q 50 517 57 544 q 43 451 43 486 q 61 360 43 406 q 115 269 78 311 l 17 171 l 64 124 l 164 222 q 253 174 213 186 q 286 161 274 165 l 311 157 l 353 157 q 494 190 422 157 l 549 222 l 644 124 l 693 172 m 674 172 l 644 143 l 547 240 q 451 182 492 197 q 358 167 410 167 q 218 203 286 167 q 164 240 196 215 l 65 143 l 36 171 l 133 268 q 76 363 93 315 q 60 454 60 411 q 97 597 60 526 q 114 626 104 608 q 133 653 121 636 l 36 749 l 65 778 l 164 682 l 168 685 q 217 717 203 711 q 356 751 285 751 q 451 736 401 751 q 549 682 496 719 l 646 778 l 674 750 l 576 654 l 593 626 l 608 603 q 647 465 647 542 q 629 375 647 429 q 576 269 608 313 l 674 172 m 607 461 q 533 639 607 565 q 356 713 460 713 q 178 639 251 713 q 104 461 104 565 q 178 282 104 356 q 354 210 250 210 q 533 283 460 210 q 607 461 607 357 m 593 461 q 519 294 593 364 q 354 224 447 224 q 189 294 260 224 q 118 461 118 365 q 189 626 118 554 q 354 699 257 699 q 524 628 453 699 q 593 461 593 557 z "},"¥":{"ha":708,"x_min":1,"x_max":707,"o":"m 707 232 l 707 297 l 418 297 l 418 399 l 421 403 l 707 403 l 707 467 l 447 467 l 588 786 q 631 860 615 844 q 707 888 658 888 l 707 926 l 458 926 l 458 889 l 504 882 q 535 858 535 869 l 535 847 l 526 821 l 519 804 l 382 478 l 335 585 l 267 750 l 239 819 l 232 856 q 265 881 232 871 q 307 888 282 888 l 315 888 l 315 926 l 1 926 l 1 886 l 6 886 q 72 861 46 886 q 111 793 90 843 l 251 467 l 1 467 l 1 403 l 281 403 l 289 383 l 289 297 l 1 297 l 1 232 l 289 232 q 275 60 289 78 q 172 35 253 35 l 172 -7 l 535 -7 l 535 35 q 435 57 451 35 q 418 165 418 81 l 418 232 l 707 232 m 693 246 l 404 246 q 408 76 404 96 q 521 21 426 21 l 521 7 l 186 7 l 186 21 q 290 56 268 21 q 303 165 303 83 l 303 246 l 15 246 l 15 283 l 303 283 l 303 388 l 289 417 l 15 417 l 15 456 l 272 456 l 125 799 q 86 868 101 853 q 15 900 58 900 l 15 913 l 301 913 l 301 900 q 246 889 279 900 q 219 861 219 875 l 222 833 l 231 808 l 382 443 l 533 800 l 546 829 l 549 861 q 521 892 544 883 l 472 900 l 472 913 l 693 913 l 693 900 q 617 867 649 900 q 575 792 599 844 l 428 456 l 693 456 l 693 417 l 410 417 l 404 401 l 404 283 l 693 283 l 693 246 z "},"¦":{"ha":292,"x_min":110,"x_max":179,"o":"m 179 453 l 179 971 l 110 971 l 110 453 l 179 453 m 165 467 l 124 467 l 124 957 l 165 957 l 165 467 m 179 -307 l 179 211 l 110 211 l 110 -307 l 179 -307 m 165 -293 l 124 -293 l 124 197 l 165 197 l 165 -293 z "},"§":{"ha":707,"x_min":106,"x_max":601,"o":"m 601 342 q 513 514 601 425 l 349 649 q 260 782 260 724 q 292 871 260 839 q 361 903 324 903 q 419 888 400 903 q 438 853 438 874 l 433 811 l 429 772 q 446 738 429 754 q 490 721 469 721 q 532 740 515 721 q 549 808 549 765 q 494 900 549 858 q 363 946 440 946 q 229 889 286 946 q 172 765 172 832 q 196 656 172 701 q 253 574 219 610 q 147 476 186 532 q 106 342 106 408 q 196 154 106 244 l 363 15 q 451 -117 451 -61 q 414 -206 451 -172 q 347 -237 375 -237 q 293 -228 321 -237 q 267 -197 267 -214 l 271 -156 q 276 -111 276 -137 q 260 -71 276 -90 q 218 -51 243 -51 q 176 -71 192 -51 q 160 -139 160 -90 q 215 -232 160 -186 q 344 -276 272 -276 q 481 -221 425 -276 q 535 -96 535 -165 q 515 13 535 -29 q 456 93 494 50 q 564 197 525 142 q 601 342 601 254 m 588 342 q 542 193 588 260 q 438 94 501 133 q 506 -1 492 31 q 521 -94 521 -36 q 467 -208 521 -153 q 342 -262 413 -262 q 222 -224 269 -262 q 174 -139 174 -175 q 185 -81 174 -96 q 219 -65 200 -65 q 251 -83 242 -69 q 263 -114 263 -99 l 258 -153 q 253 -199 253 -168 q 281 -236 257 -225 q 347 -251 304 -251 q 425 -215 388 -251 q 465 -118 465 -179 q 375 21 465 -61 l 208 160 q 119 329 119 249 q 165 476 119 410 q 271 575 200 535 q 210 654 231 615 q 185 764 185 707 q 242 879 185 825 q 364 932 299 932 q 486 890 436 932 q 535 810 535 849 q 522 751 535 768 q 488 735 508 735 q 454 749 464 739 q 443 776 443 768 l 446 806 l 451 829 l 451 858 q 429 899 451 881 q 363 917 407 917 q 282 881 318 917 q 246 782 246 844 q 335 640 246 717 l 501 510 q 588 342 588 424 m 535 267 q 490 376 535 319 q 389 475 447 429 l 289 556 q 208 494 229 521 q 175 399 175 453 q 219 286 175 343 q 317 192 249 246 l 417 111 q 451 128 433 117 l 500 172 q 518 197 508 181 q 531 225 522 206 q 535 267 535 240 m 521 263 q 489 182 521 222 q 422 124 464 151 l 275 242 q 189 383 189 326 q 217 482 189 442 q 283 542 242 515 l 378 464 q 475 371 442 413 q 521 263 521 313 z "},"¨":{"ha":475,"x_min":39,"x_max":438,"o":"m 438 835 q 413 890 438 869 q 356 914 389 914 q 300 890 324 914 q 276 833 276 867 q 300 776 276 800 q 357 753 324 753 q 413 776 392 753 q 438 835 438 800 m 424 833 q 404 786 424 806 q 357 767 385 767 q 313 788 333 767 q 290 835 290 806 q 311 881 290 863 q 358 900 331 900 q 404 881 388 900 q 424 833 424 861 m 199 835 q 175 890 199 869 q 118 914 151 914 q 63 890 86 914 q 39 833 39 867 q 63 776 39 800 q 119 753 86 753 q 175 776 151 753 q 199 835 199 800 m 185 833 q 165 786 185 806 q 118 767 146 767 q 72 786 92 767 q 53 835 53 806 q 72 882 53 863 q 118 900 90 900 q 165 881 146 900 q 185 833 185 861 z "},"©":{"ha":1069,"x_min":47,"x_max":1022,"o":"m 1022 461 q 878 806 1022 661 q 533 947 735 947 q 189 803 332 947 q 47 460 47 657 q 192 115 47 258 q 535 -28 335 -28 q 879 115 736 -28 q 1022 461 1022 258 m 1008 461 q 868 124 1008 263 q 533 -14 726 -14 q 199 126 338 -14 q 61 460 61 267 q 200 794 61 656 q 535 933 339 933 q 869 796 731 933 q 1008 461 1008 657 m 981 461 q 850 776 981 646 q 535 906 719 906 q 218 774 349 906 q 89 460 89 640 q 221 144 89 275 q 533 14 351 14 q 850 144 719 14 q 981 461 981 275 m 967 460 q 840 154 967 279 q 533 28 714 28 q 229 156 356 28 q 103 461 103 282 q 229 765 103 639 q 535 892 356 892 q 840 765 714 892 q 967 460 967 639 m 807 294 l 769 314 q 679 231 725 257 q 629 210 650 213 l 619 208 q 581 203 592 204 l 536 203 q 390 286 447 203 q 343 471 343 354 q 393 654 343 586 q 538 732 450 732 q 685 688 628 732 q 754 572 742 642 l 793 572 l 779 776 l 740 776 l 731 756 q 711 746 721 746 l 647 761 q 507 776 594 776 q 318 686 419 776 q 217 460 217 594 q 311 233 217 324 q 557 149 400 149 q 807 294 711 149 m 788 290 q 551 163 689 163 q 321 244 411 163 q 231 461 231 329 q 328 679 231 594 q 506 763 424 763 q 621 754 590 763 l 713 732 q 733 739 731 736 l 750 763 l 765 763 l 779 586 l 764 586 q 683 707 735 668 q 539 746 632 746 q 382 664 443 746 q 329 469 329 590 q 379 275 329 349 q 565 189 440 189 q 775 297 694 189 l 788 290 z "},"ª":{"ha":397,"x_min":-4,"x_max":394,"o":"m 394 578 l 394 626 l 349 599 q 338 631 338 610 l 338 796 q 315 894 338 858 q 193 946 281 946 q 76 925 121 946 q 18 860 18 894 q 31 810 18 825 q 71 794 42 794 q 107 853 107 794 q 160 913 117 913 q 221 878 208 913 q 229 849 229 861 l 229 808 q 82 739 129 764 q -4 617 -4 678 q 24 550 -4 576 q 89 525 57 525 l 125 529 l 163 543 q 229 585 203 563 q 247 542 238 556 q 286 525 264 525 l 314 531 l 340 543 l 394 578 m 381 585 l 338 554 q 289 539 310 539 q 244 585 251 539 q 243 608 243 589 q 163 557 200 574 q 88 539 126 539 q 33 561 60 539 q 10 617 10 585 q 29 674 10 650 q 189 785 69 732 l 243 808 l 243 854 l 233 888 q 160 926 211 926 q 94 868 103 926 q 68 808 89 808 q 39 818 44 813 q 31 861 31 833 q 79 913 31 896 q 193 932 129 932 q 290 900 254 932 q 325 799 325 869 q 331 596 325 611 q 346 585 338 585 l 364 590 l 381 601 l 381 585 m 243 618 l 243 783 q 111 708 153 758 l 97 686 q 90 646 90 665 q 111 603 93 619 q 151 585 128 585 q 214 603 181 590 l 243 618 m 229 625 l 193 608 q 154 599 175 599 q 121 614 133 599 q 107 661 107 628 q 147 725 107 693 q 207 758 186 751 l 229 765 l 229 625 z "},"«":{"ha":714,"x_min":43,"x_max":671,"o":"m 671 -12 l 503 314 l 671 640 l 617 640 l 343 315 l 617 -12 l 671 -12 m 647 1 l 622 0 l 361 314 l 622 626 l 647 626 l 486 315 l 647 1 m 363 -12 l 194 314 l 363 640 l 310 640 l 43 315 l 310 -12 l 363 -12 m 340 0 l 318 0 l 60 314 l 317 628 l 340 626 l 178 315 l 340 0 z "},"¬":{"ha":797,"x_min":25,"x_max":771,"o":"m 771 314 l 771 604 l 25 604 l 25 533 l 703 533 l 703 314 l 771 314 m 757 328 l 717 328 l 717 547 l 39 547 l 39 590 l 757 590 l 757 328 z "},"­":{"ha":694,"x_min":43,"x_max":651,"o":"m 43 0 l 651 0 l 651 1256 l 43 1256 l 43 0 m 608 43 l 86 43 l 86 1213 l 608 1213 l 608 43 z "},"−":{"ha":694,"x_min":43,"x_max":651,"o":"m 43 0 l 651 0 l 651 1256 l 43 1256 l 43 0 m 608 43 l 86 43 l 86 1213 l 608 1213 l 608 43 z "},"®":{"ha":1069,"x_min":47,"x_max":1022,"o":"m 1022 461 q 878 806 1022 661 q 533 947 735 947 q 189 803 332 947 q 47 460 47 657 q 192 115 47 258 q 535 -28 335 -28 q 879 115 736 -28 q 1022 461 1022 258 m 1008 461 q 868 124 1008 263 q 533 -14 726 -14 q 199 126 338 -14 q 60 460 60 265 q 200 794 60 654 q 535 933 339 933 q 869 796 731 933 q 1008 461 1008 657 m 981 461 q 850 776 981 646 q 535 906 719 906 q 218 774 349 906 q 89 460 89 640 q 221 144 89 275 q 533 14 351 14 q 850 144 719 14 q 981 461 981 275 m 967 460 q 840 154 967 279 q 533 28 714 28 q 228 157 353 28 q 103 461 103 285 q 229 767 103 640 q 535 893 356 893 q 842 767 715 893 q 967 460 967 640 m 811 163 l 807 199 q 760 214 782 199 l 726 254 l 592 450 q 694 503 665 474 q 738 614 738 546 q 671 726 738 683 q 649 740 661 733 q 640 744 640 744 q 600 756 622 750 q 531 763 568 763 l 261 763 l 263 725 l 268 725 q 319 704 310 725 q 325 639 325 694 q 317 218 325 233 q 254 199 301 199 l 254 163 l 517 163 l 517 199 l 458 204 q 436 235 436 210 l 436 436 l 476 436 l 676 163 l 811 163 m 797 176 l 681 175 l 483 450 l 422 450 l 422 238 q 433 207 426 217 q 503 185 456 185 l 503 176 l 268 176 l 268 185 q 329 214 317 185 q 339 285 339 229 l 339 410 q 332 708 339 690 q 276 738 318 738 l 276 749 l 528 749 q 672 713 619 749 q 725 610 725 676 q 675 504 725 544 q 569 458 633 471 l 717 247 q 756 201 740 213 q 797 185 772 189 l 797 176 m 629 599 q 588 694 629 656 q 554 717 578 708 q 522 728 532 728 l 438 725 l 422 721 l 422 471 l 494 469 q 593 513 558 482 q 629 599 629 544 m 615 590 q 554 500 615 529 q 503 485 532 489 l 436 481 l 436 710 q 501 719 457 719 q 578 683 538 719 q 615 590 615 649 z "},"¯":{"ha":708,"x_min":-11,"x_max":721,"o":"m 721 985 l 721 1056 l -11 1056 l -11 985 l 721 985 m 707 999 l 3 999 l 3 1042 l 707 1042 l 707 999 z "},"°":{"ha":569,"x_min":67,"x_max":497,"o":"m 497 732 q 435 885 497 821 q 281 947 372 947 q 131 883 193 947 q 67 731 67 819 q 129 579 67 640 q 282 517 192 517 q 435 581 371 517 q 497 732 497 646 m 483 732 q 422 589 483 646 q 281 531 363 531 q 139 592 199 531 q 81 732 81 653 q 142 875 81 814 q 282 933 203 933 q 424 875 364 933 q 483 732 483 815 m 439 732 q 394 844 439 796 q 282 889 346 889 q 169 844 214 889 q 124 733 124 799 q 169 622 124 668 q 281 575 213 575 q 393 622 346 575 q 439 732 439 671 m 425 732 q 381 631 425 671 q 281 589 338 589 q 178 629 221 589 q 138 732 138 678 q 176 835 138 792 q 279 875 221 875 q 382 835 338 875 q 425 732 425 792 z "},"±":{"ha":776,"x_min":15,"x_max":761,"o":"m 761 89 l 761 158 l 421 158 l 421 426 l 761 426 l 761 496 l 421 496 l 421 832 l 353 832 l 353 496 l 15 496 l 15 426 l 353 426 l 353 158 l 15 158 l 15 89 l 761 89 m 747 103 l 29 103 l 29 144 l 367 144 l 367 440 l 29 440 l 29 482 l 367 482 l 367 818 l 407 818 l 407 482 l 747 482 l 747 440 l 407 440 l 407 144 l 747 144 l 747 103 z "},"²":{"ha":433,"x_min":14,"x_max":406,"o":"m 406 561 l 363 561 q 315 522 336 526 l 256 522 l 147 522 l 238 601 q 328 703 294 657 q 368 818 368 764 q 311 911 368 871 q 193 946 264 946 q 81 904 125 946 q 28 789 36 863 l 68 789 q 108 847 97 838 q 175 869 136 869 q 243 843 217 869 q 268 774 268 817 q 219 667 268 732 q 114 561 182 622 l 14 474 l 14 443 l 360 443 l 406 561 m 386 547 l 350 457 l 28 457 l 28 467 l 129 551 q 233 663 204 618 q 282 776 282 728 q 250 854 282 822 q 157 883 219 883 q 60 803 90 883 l 42 803 q 96 900 54 869 q 196 932 136 932 q 304 899 258 932 q 354 814 354 868 q 342 757 354 786 q 307 699 322 721 q 206 590 260 640 l 110 508 q 319 514 292 508 q 369 547 351 521 l 386 547 z "},"³":{"ha":429,"x_min":29,"x_max":368,"o":"m 368 589 q 342 689 368 654 q 276 736 315 724 l 318 782 q 340 851 340 813 q 293 921 340 890 q 196 946 250 946 q 101 917 138 946 q 35 831 63 885 l 72 814 q 113 858 97 849 q 169 875 144 875 q 222 857 200 875 q 244 801 244 839 q 206 736 244 763 q 121 708 165 708 l 121 676 q 226 657 181 676 q 278 585 278 631 q 251 514 278 539 q 200 488 225 488 q 131 504 171 488 q 78 521 92 521 q 43 508 56 517 q 29 476 29 496 q 72 442 31 454 q 147 435 93 435 l 164 435 q 293 475 228 435 q 368 589 368 528 m 354 593 q 282 485 354 528 q 164 449 217 449 l 113 449 l 82 453 q 43 479 43 463 q 57 503 47 499 q 78 507 65 507 l 111 497 l 146 483 q 203 474 169 474 q 263 503 232 474 q 292 582 292 532 q 242 664 292 633 q 140 690 203 690 l 135 690 l 135 694 q 219 728 181 694 q 258 801 258 758 q 233 867 258 844 q 174 889 210 889 q 114 875 140 889 q 67 832 86 860 l 53 838 q 114 911 81 886 q 197 932 146 932 l 244 926 l 283 910 q 326 849 326 879 q 299 779 326 815 l 250 732 q 322 689 301 714 q 354 593 354 657 z "},"´":{"ha":486,"x_min":160,"x_max":407,"o":"m 407 950 l 235 950 l 160 703 l 196 703 l 407 950 m 376 936 l 188 717 l 176 717 l 244 936 l 376 936 z "},"µ":{"ha":814,"x_min":90,"x_max":756,"o":"m 756 146 l 714 146 l 710 121 l 700 94 q 658 63 683 63 q 626 128 626 63 l 628 178 l 628 628 l 500 628 l 500 158 l 463 121 q 433 99 451 107 q 339 72 394 72 q 267 142 286 72 q 258 260 258 178 l 258 628 l 133 628 l 133 78 l 133 18 l 126 -42 l 90 -226 q 108 -283 90 -264 q 157 -304 125 -304 q 207 -281 188 -304 q 226 -225 226 -257 q 204 -74 226 -190 l 196 -22 l 196 19 l 218 -3 l 244 -17 q 307 -25 264 -25 q 408 13 353 -25 l 456 49 l 500 94 q 536 8 511 38 q 624 -25 561 -25 q 721 28 685 -25 q 756 146 747 67 m 742 132 q 704 31 735 69 q 617 -11 671 -11 q 533 31 558 -11 q 517 72 521 51 l 513 126 q 417 33 467 69 q 303 -11 349 -11 q 228 7 254 -11 q 206 31 219 14 q 189 51 200 36 l 182 60 l 182 46 q 197 -110 182 -25 l 210 -179 q 213 -219 213 -199 q 197 -272 213 -253 q 156 -290 183 -290 q 117 -271 129 -290 q 104 -224 104 -250 l 107 -193 l 114 -157 l 138 -44 l 143 11 l 143 39 l 143 129 l 143 614 l 244 614 l 244 257 l 244 225 q 260 119 244 163 q 340 58 289 58 q 458 103 403 58 l 514 153 l 514 614 l 613 614 l 615 97 q 660 49 631 49 q 708 74 694 49 q 725 132 721 97 l 742 132 z "},"¶":{"ha":643,"x_min":-10,"x_max":644,"o":"m 644 875 l 644 926 l 300 926 q 74 856 157 926 q -10 658 -10 783 q 88 457 -10 521 q 186 414 129 426 q 317 400 238 400 l 317 -307 l 379 -307 l 379 875 l 492 875 l 492 -307 l 554 -307 l 554 875 l 644 875 m 631 889 l 540 889 l 540 -293 l 506 -293 l 506 889 l 365 889 l 365 -293 l 331 -293 l 331 414 l 310 414 q 103 465 183 414 q 4 661 4 531 q 93 856 4 792 q 301 913 171 913 l 631 913 l 631 889 m 344 433 l 343 893 q 107 840 181 893 q 25 676 25 778 q 68 519 25 571 q 188 451 111 468 l 215 443 l 261 438 l 344 433 m 333 447 q 90 529 160 447 q 44 675 44 588 q 89 799 44 750 q 333 875 164 875 l 333 447 z "},"·":{"ha":360,"x_min":99,"x_max":263,"o":"m 263 461 q 239 518 263 493 q 181 542 214 542 q 122 518 146 542 q 99 460 99 493 q 122 401 99 425 q 181 378 146 378 q 239 403 214 378 q 263 461 263 429 m 249 461 q 226 414 249 435 q 179 392 204 392 q 132 414 150 392 q 113 461 113 436 q 133 508 113 490 q 181 528 156 528 q 228 507 206 528 q 249 461 249 486 z "},"∙":{"ha":360,"x_min":99,"x_max":263,"o":"m 263 461 q 239 518 263 493 q 181 542 214 542 q 122 518 146 542 q 99 460 99 493 q 122 401 99 425 q 181 378 146 378 q 239 403 214 378 q 263 461 263 429 m 249 461 q 226 414 249 435 q 179 392 204 392 q 132 414 150 392 q 113 461 113 436 q 133 508 113 490 q 181 528 156 528 q 228 507 206 528 q 249 461 249 486 z "},"¸":{"ha":475,"x_min":126,"x_max":349,"o":"m 349 -150 q 326 -75 349 -101 q 268 -37 304 -49 l 304 18 l 247 18 l 161 -115 l 194 -115 q 228 -126 215 -119 q 240 -162 240 -143 q 217 -207 240 -187 q 172 -226 193 -226 l 126 -222 l 126 -268 l 158 -271 l 219 -271 q 304 -233 258 -271 q 349 -150 349 -196 m 335 -150 q 290 -231 335 -194 q 218 -261 251 -261 l 169 -261 l 140 -258 l 140 -240 l 153 -240 l 181 -240 q 229 -215 201 -236 q 254 -164 254 -193 q 235 -118 254 -133 q 189 -101 215 -101 l 256 4 l 279 4 l 247 -49 q 314 -82 293 -61 q 335 -150 335 -103 z "},"¹":{"ha":351,"x_min":57,"x_max":289,"o":"m 289 440 l 289 461 l 281 461 q 228 476 236 461 q 219 531 219 492 l 219 946 l 200 946 l 57 886 l 68 868 l 89 876 q 128 868 115 876 q 140 832 140 856 l 140 529 q 129 485 140 504 q 69 461 110 461 l 69 440 l 289 440 m 281 450 l 78 450 l 78 454 q 138 482 121 454 q 146 494 144 493 q 147 503 146 499 l 147 531 l 147 835 q 133 875 147 865 q 90 885 119 885 l 68 876 l 68 881 l 201 939 l 210 939 l 210 528 q 217 472 210 483 q 281 456 232 456 l 281 450 z "},"º":{"ha":443,"x_min":19,"x_max":428,"o":"m 428 740 q 369 888 428 828 q 222 946 311 946 q 76 885 133 946 q 19 729 19 824 q 78 586 19 644 q 218 526 133 526 q 367 593 304 526 q 428 740 428 658 m 414 740 q 356 601 414 663 q 218 540 297 540 q 86 596 138 540 q 33 725 33 653 q 60 843 33 799 q 96 886 83 876 q 150 919 117 903 l 176 932 l 201 936 l 221 936 l 239 933 q 304 917 288 925 l 333 903 l 360 876 q 414 740 414 817 m 333 697 q 310 825 333 747 q 221 911 274 911 q 138 878 163 911 q 115 781 115 851 q 140 646 115 711 q 233 563 176 563 q 311 603 288 563 q 333 697 333 642 m 319 694 q 303 614 319 646 q 231 576 281 576 q 149 654 181 576 q 129 771 129 715 q 144 865 129 826 q 213 903 165 903 q 296 822 267 903 q 319 694 319 760 z "},"»":{"ha":714,"x_min":43,"x_max":671,"o":"m 671 314 l 404 640 l 351 640 l 519 314 l 351 -12 l 404 -12 l 671 314 m 653 314 l 397 1 l 372 0 l 535 314 l 372 626 l 397 626 l 653 314 m 371 314 l 97 640 l 43 640 l 211 314 l 43 -12 l 96 -12 l 371 314 m 351 313 l 90 0 l 65 1 l 226 314 l 65 626 l 90 626 l 351 313 z "},"¼":{"ha":1201,"x_min":106,"x_max":1169,"o":"m 1169 140 l 1169 207 l 1090 207 l 1090 568 l 1033 568 l 754 199 l 754 140 l 1007 140 l 1008 -4 l 1090 -4 l 1090 140 l 1169 140 m 1160 149 l 1081 149 l 1081 4 l 1015 4 l 1015 149 l 763 149 l 763 197 l 1039 560 l 1081 560 l 1081 199 l 1160 199 l 1160 149 m 1015 199 l 1015 490 l 792 199 l 1015 199 m 1007 207 l 810 207 l 1007 465 l 1007 207 m 1046 1014 l 949 1014 l 253 -40 l 350 -40 l 1046 1014 m 1029 1003 l 349 -28 l 271 -29 l 956 1003 l 1029 1003 m 353 299 l 353 324 l 344 324 q 286 339 294 324 q 278 401 278 354 l 278 874 l 257 874 l 106 806 l 119 786 l 140 794 q 179 783 161 794 q 193 743 193 769 l 193 401 q 182 350 193 369 q 118 322 163 322 l 118 299 l 353 299 m 343 308 l 128 308 l 128 317 q 193 347 175 317 q 203 369 203 361 l 203 403 l 203 747 q 188 793 203 785 q 142 804 172 804 l 119 796 l 119 800 l 258 864 l 268 865 l 268 400 q 275 336 268 347 q 343 317 290 317 l 343 308 z "},"½":{"ha":1203,"x_min":106,"x_max":1165,"o":"m 1165 110 l 1139 110 l 1124 89 q 1064 65 1100 65 l 1014 65 l 869 65 l 933 125 l 1001 196 l 1057 260 q 1115 360 1099 310 q 1125 393 1125 379 l 1125 431 q 1075 533 1125 499 q 947 569 1022 569 q 828 522 874 569 q 778 411 788 482 l 776 403 l 801 403 q 851 472 817 447 q 931 497 888 497 q 1013 464 983 497 q 1042 375 1042 431 q 990 247 1042 324 q 876 119 949 188 l 760 18 l 760 -4 l 1119 -4 l 1165 110 m 1151 103 l 1113 4 l 768 4 l 767 14 l 883 115 l 950 185 l 999 244 q 1051 376 1051 326 q 1021 471 1051 436 q 932 506 990 506 q 846 479 878 506 q 794 411 813 454 l 786 411 q 838 518 797 478 q 950 560 883 560 q 1076 518 1031 560 q 1118 431 1106 493 q 1097 339 1118 381 l 1076 304 l 1049 263 q 921 126 1013 218 l 847 57 l 1064 57 l 1097 64 q 1144 103 1136 78 l 1151 103 m 1046 1014 l 949 1013 l 253 -40 l 350 -40 l 1046 1014 m 1028 997 l 347 -28 l 274 -29 l 950 996 l 1028 997 m 353 299 l 353 324 l 344 324 q 286 339 294 324 q 278 401 278 354 l 278 874 l 257 874 l 106 806 l 119 786 l 140 794 q 179 783 161 794 q 193 743 193 769 l 193 401 q 182 350 193 369 q 118 322 163 322 l 118 299 l 353 299 m 343 308 l 128 308 l 128 317 q 193 347 175 317 q 203 369 203 361 l 203 403 l 203 747 q 188 793 203 785 q 142 804 172 804 l 119 796 l 119 800 l 258 864 l 268 865 l 268 400 q 275 336 268 347 q 343 317 290 317 l 343 308 z "},"¾":{"ha":1199,"x_min":38,"x_max":1167,"o":"m 1167 140 l 1167 207 l 1088 207 l 1088 568 l 1031 568 l 751 199 l 751 140 l 1004 140 l 1006 -4 l 1088 -4 l 1088 140 l 1167 140 m 1157 149 l 1078 149 l 1078 4 l 1013 4 l 1013 149 l 760 149 l 760 197 l 1036 560 l 1078 560 l 1078 199 l 1157 199 l 1157 149 m 1013 199 l 1013 490 l 789 199 l 1013 199 m 1004 207 l 807 207 l 1004 465 l 1004 207 m 1043 1014 l 946 1014 l 251 -40 l 347 -40 l 1043 1014 m 1029 1003 l 344 -32 l 268 -31 l 953 1003 l 1029 1003 m 385 468 q 354 576 385 540 q 278 633 326 617 q 296 650 283 638 l 310 663 l 329 688 q 356 767 356 724 q 311 842 356 808 q 210 874 264 874 q 107 838 156 874 q 44 750 63 807 l 65 740 q 126 797 101 789 q 185 808 149 808 q 247 782 221 808 q 272 714 272 756 q 232 636 272 669 q 138 596 188 596 l 138 575 q 261 542 211 575 q 311 453 311 504 q 279 365 311 396 q 211 336 249 336 q 167 343 192 336 q 133 354 149 347 q 79 374 97 374 q 47 363 56 372 q 38 332 38 353 q 79 299 38 311 q 113 293 90 293 l 160 293 l 176 293 q 317 344 249 293 q 385 468 385 396 m 376 471 q 307 350 376 400 q 176 300 239 300 l 117 300 l 85 304 q 46 332 46 318 q 60 358 50 353 q 79 365 69 365 q 136 344 94 363 q 213 328 176 328 q 286 363 251 328 q 319 451 319 399 q 268 547 319 508 q 211 576 236 569 q 146 588 182 588 q 243 633 206 600 q 282 715 282 671 q 254 789 282 764 q 186 817 226 817 q 138 808 161 817 l 114 799 q 64 751 81 779 l 56 754 q 118 836 78 804 q 210 865 156 865 q 304 836 261 865 q 347 764 347 806 q 318 686 347 724 q 261 632 293 657 q 344 578 319 614 q 376 471 376 538 z "},"¿":{"ha":629,"x_min":60,"x_max":572,"o":"m 396 586 q 371 644 396 619 q 313 669 346 669 q 256 646 279 669 q 232 586 232 621 q 256 526 232 550 q 313 503 279 503 q 372 529 349 503 q 396 586 396 557 m 382 586 q 361 538 382 557 q 313 517 340 517 q 267 538 288 517 q 246 588 246 557 q 267 636 246 615 q 314 656 289 656 q 363 633 343 656 q 382 586 382 610 m 572 -129 q 547 -28 572 -61 q 493 7 522 7 q 444 -11 463 7 q 428 -51 428 -35 q 451 -115 432 -74 q 469 -179 469 -151 q 428 -233 469 -211 q 335 -251 396 -251 q 236 -200 274 -251 q 197 -82 197 -149 q 222 53 197 -17 l 275 171 q 321 289 313 247 l 333 368 l 339 432 l 299 432 l 299 421 q 240 246 299 332 l 124 99 q 60 -85 60 10 q 140 -250 60 -186 q 317 -304 214 -304 q 490 -256 417 -304 q 572 -129 572 -194 m 558 -129 q 481 -244 558 -190 q 315 -290 413 -290 q 150 -239 218 -290 q 74 -93 74 -181 q 115 63 74 -7 l 149 106 l 204 174 q 288 296 268 251 q 304 353 300 325 l 313 418 l 325 418 l 319 351 l 308 293 q 261 174 292 240 q 228 101 238 125 l 208 56 q 183 -85 183 -18 q 226 -210 183 -154 q 335 -265 269 -265 q 394 -260 374 -265 q 438 -243 415 -254 q 483 -182 483 -212 q 463 -110 483 -151 q 442 -53 442 -68 q 456 -19 446 -29 q 497 -7 472 -7 q 543 -40 522 -7 q 557 -76 556 -62 q 558 -107 558 -87 l 558 -129 z "},"À":{"ha":1056,"x_min":11,"x_max":1003,"o":"m 588 1001 l 513 1250 l 342 1250 l 551 1001 l 588 1001 m 571 1015 l 558 1015 l 371 1236 l 501 1236 l 571 1015 m 1003 -7 l 1003 32 l 994 32 q 899 76 936 32 q 844 178 875 106 l 521 947 l 488 947 l 163 186 l 129 114 q 85 58 107 74 q 11 31 53 35 l 11 -7 l 314 -7 l 315 32 l 307 32 q 250 39 281 32 q 208 86 208 58 q 221 140 211 106 l 258 231 l 290 300 l 638 300 l 683 199 q 719 82 719 115 q 683 40 719 53 q 633 32 663 32 l 625 32 l 625 -7 l 1003 -7 m 989 7 l 638 7 l 638 19 l 671 19 l 699 31 q 732 81 732 47 q 693 203 732 113 l 644 314 l 281 314 l 231 206 q 194 83 194 110 q 232 32 194 49 q 300 19 261 24 l 300 7 l 25 7 l 25 19 q 122 75 89 33 q 175 181 143 97 l 496 932 l 511 933 l 832 174 q 886 71 863 99 q 933 32 911 44 q 989 19 961 19 l 989 7 m 636 351 l 465 746 l 296 351 l 636 351 m 611 365 l 318 365 l 467 711 l 611 365 z "},"Á":{"ha":1022,"x_min":11,"x_max":1003,"o":"m 674 1250 l 501 1250 l 428 1001 l 463 1001 l 674 1250 m 643 1236 l 456 1015 l 443 1015 l 511 1236 l 643 1236 m 1003 -7 l 1003 32 l 994 32 q 899 76 936 32 q 844 178 875 106 l 521 947 l 488 947 l 163 186 l 129 114 q 85 58 107 74 q 11 31 53 35 l 11 -7 l 314 -7 l 315 32 l 307 32 q 250 39 281 32 q 208 86 208 58 q 221 140 211 106 l 258 231 l 290 300 l 638 300 l 683 199 q 719 82 719 115 q 683 40 719 53 q 633 32 663 32 l 625 32 l 625 -7 l 1003 -7 m 989 7 l 638 7 l 638 19 l 671 19 l 699 31 q 732 81 732 47 q 693 203 732 113 l 644 314 l 281 314 l 231 206 q 194 83 194 110 q 232 32 194 49 q 300 19 261 24 l 300 7 l 25 7 l 25 19 q 122 75 89 33 q 175 181 143 97 l 496 932 l 511 933 l 832 174 q 886 71 863 99 q 933 32 911 44 q 989 19 961 19 l 989 7 m 636 351 l 465 746 l 296 351 l 636 351 m 611 365 l 318 365 l 467 711 l 611 365 z "},"Â":{"ha":1033,"x_min":11,"x_max":1003,"o":"m 707 1018 l 571 1256 l 438 1256 l 301 1018 l 335 1018 l 489 1157 l 668 1018 l 707 1018 m 682 1031 l 676 1032 l 489 1176 l 332 1032 l 326 1031 l 444 1242 l 563 1242 l 682 1031 m 1003 -7 l 1003 32 l 994 32 q 899 76 936 32 q 844 178 875 106 l 521 947 l 488 947 l 163 186 l 129 114 q 85 58 107 74 q 11 31 53 35 l 11 -7 l 314 -7 l 315 32 l 307 32 q 250 39 281 32 q 208 86 208 58 q 221 140 211 106 l 258 231 l 290 300 l 638 300 l 683 199 q 719 82 719 115 q 683 40 719 53 q 633 32 663 32 l 625 32 l 625 -7 l 1003 -7 m 989 7 l 638 7 l 638 19 l 671 19 l 699 31 q 732 81 732 47 q 693 203 732 113 l 644 314 l 281 314 l 231 206 q 194 83 194 110 q 232 32 194 49 q 300 19 261 24 l 300 7 l 25 7 l 25 19 q 122 75 89 33 q 175 181 143 97 l 496 932 l 511 933 l 832 174 q 886 71 863 99 q 933 32 911 44 q 989 19 961 19 l 989 7 m 636 351 l 465 746 l 296 351 l 636 351 m 613 365 l 318 365 l 467 711 l 613 365 z "},"Ã":{"ha":1022,"x_min":11,"x_max":1003,"o":"m 724 1250 l 690 1250 q 682 1215 688 1233 l 675 1193 l 675 1192 q 633 1156 658 1156 q 535 1203 607 1156 q 400 1250 463 1250 q 306 1192 339 1250 l 301 1183 q 297 1174 299 1176 q 294 1167 296 1168 q 288 1143 292 1161 q 281 1103 281 1119 l 281 1068 l 278 1061 l 314 1061 l 314 1100 l 329 1132 q 367 1153 346 1153 q 428 1128 389 1153 l 500 1083 q 603 1061 547 1061 q 694 1124 660 1061 q 724 1250 724 1174 m 711 1236 q 682 1128 711 1174 q 600 1075 644 1075 q 506 1099 553 1075 l 432 1143 q 363 1167 392 1167 q 319 1143 331 1167 q 300 1076 313 1129 l 300 1075 l 290 1075 l 290 1094 l 297 1135 q 318 1185 308 1164 q 404 1236 353 1236 q 529 1189 456 1236 q 632 1142 601 1142 q 682 1175 664 1142 q 701 1236 693 1196 l 711 1236 m 1003 -7 l 1003 32 l 994 32 q 899 76 936 32 q 844 178 875 106 l 521 947 l 488 947 l 163 186 l 129 114 q 85 58 107 74 q 11 31 53 35 l 11 -7 l 314 -7 l 315 32 l 307 32 q 250 39 281 32 q 208 86 208 58 q 221 140 211 106 l 258 231 l 290 300 l 638 300 l 683 199 q 719 82 719 115 q 683 40 719 53 q 633 32 663 32 l 625 32 l 625 -7 l 1003 -7 m 989 7 l 638 7 l 638 19 l 671 19 l 699 31 q 732 81 732 47 q 693 203 732 113 l 644 314 l 279 314 l 231 206 q 194 83 194 110 q 232 32 194 49 q 300 19 261 24 l 300 7 l 25 7 l 25 19 q 122 75 89 33 q 175 181 143 97 l 496 932 l 511 933 l 832 174 q 886 71 863 99 q 933 32 911 44 q 989 19 961 19 l 989 7 m 636 351 l 465 746 l 296 351 l 636 351 m 611 365 l 318 365 l 467 711 l 611 365 z "},"Ä":{"ha":1039,"x_min":11,"x_max":1003,"o":"m 689 1176 q 663 1232 689 1211 q 606 1256 639 1256 q 550 1232 574 1256 q 526 1175 526 1208 q 550 1118 526 1142 q 607 1094 574 1094 q 663 1118 642 1094 q 689 1176 689 1140 m 674 1175 q 654 1128 674 1147 q 607 1108 635 1108 q 563 1129 583 1108 q 542 1176 542 1149 q 561 1222 542 1203 q 608 1242 581 1242 q 654 1222 638 1242 q 674 1175 674 1203 m 450 1176 q 425 1232 450 1211 q 368 1256 401 1256 q 313 1232 336 1256 q 289 1175 289 1208 q 313 1118 289 1142 q 369 1094 336 1094 q 425 1118 401 1094 q 450 1176 450 1142 m 435 1175 q 415 1128 435 1147 q 367 1108 393 1108 q 321 1128 340 1108 q 301 1176 301 1147 q 321 1224 301 1204 q 367 1242 339 1242 q 415 1222 393 1242 q 435 1175 435 1203 m 1003 -7 l 1003 32 l 994 32 q 899 76 936 32 q 844 178 875 106 l 521 947 l 488 947 l 163 186 l 129 114 q 85 58 107 74 q 11 31 53 35 l 11 -7 l 314 -7 l 315 32 l 307 32 q 250 39 281 32 q 207 86 207 57 q 219 135 208 97 q 221 140 221 139 l 258 231 l 290 300 l 638 300 l 683 199 q 719 82 719 115 q 683 40 719 53 q 633 32 663 32 l 625 32 l 625 -7 l 1003 -7 m 989 7 l 638 7 l 638 19 l 671 19 l 699 31 q 732 81 732 47 q 693 203 732 113 l 644 314 l 281 314 l 231 206 q 194 83 194 110 q 232 32 194 49 q 300 19 261 24 l 300 7 l 25 7 l 25 19 q 122 75 89 33 q 175 181 143 97 l 496 932 l 511 933 l 832 174 q 886 71 863 99 q 933 32 911 44 q 989 19 961 19 l 989 7 m 636 351 l 465 746 l 296 351 l 636 351 m 611 365 l 318 365 l 467 711 l 611 365 z "},"Å":{"ha":1044,"x_min":11,"x_max":1001,"o":"m 636 1113 q 596 1210 636 1172 q 499 1250 556 1250 q 404 1211 443 1250 q 364 1113 364 1171 q 374 1061 364 1082 q 403 1015 385 1039 q 500 976 442 976 q 597 1015 558 976 q 636 1113 636 1054 m 628 1113 q 589 1022 628 1057 q 499 983 550 983 q 410 1022 449 983 q 374 1113 374 1063 q 410 1204 374 1164 q 500 1240 450 1240 q 590 1201 551 1240 q 628 1113 628 1163 m 599 1113 l 593 1149 l 583 1169 l 571 1185 q 500 1213 543 1213 q 429 1185 457 1213 q 400 1114 400 1156 q 406 1078 400 1090 l 407 1074 q 415 1057 413 1061 q 422 1049 417 1054 q 428 1042 424 1046 q 499 1013 457 1013 q 569 1042 539 1013 q 599 1113 599 1069 m 592 1113 q 564 1049 592 1076 q 500 1021 536 1021 q 435 1047 465 1021 q 408 1113 408 1074 q 435 1178 408 1151 q 499 1204 461 1204 q 564 1176 539 1204 q 592 1113 592 1149 m 1001 -7 l 1001 32 l 993 32 q 897 76 935 32 q 843 178 874 106 l 521 947 l 488 947 l 163 186 l 129 114 q 85 58 107 74 q 11 31 53 35 l 11 -7 l 314 -7 l 314 32 l 306 32 q 249 39 279 32 q 208 86 208 58 q 221 140 211 106 l 258 231 l 290 300 l 638 300 l 683 199 q 718 82 718 119 q 683 40 718 53 q 635 32 665 32 l 628 32 l 628 -7 l 1001 -7 m 988 7 l 636 7 l 636 19 l 669 19 l 699 31 q 732 81 732 47 q 693 203 732 113 l 644 314 l 281 314 l 231 206 q 194 83 194 110 q 232 32 194 49 q 300 19 261 24 l 300 7 l 25 7 l 25 19 q 122 75 89 33 q 175 181 143 97 l 496 932 l 511 933 l 831 174 q 885 71 861 99 q 932 32 910 44 q 988 19 960 19 l 988 7 m 635 351 l 465 746 l 296 351 l 635 351 m 611 365 l 318 365 l 467 711 l 611 365 z "},"Æ":{"ha":1250,"x_min":-17,"x_max":1213,"o":"m 1213 238 l 1172 239 q 1044 83 1119 124 q 953 58 999 58 l 831 58 q 726 99 756 58 q 710 151 710 126 l 710 450 l 878 450 q 942 433 921 444 q 1018 314 1010 396 l 1056 314 l 1056 646 l 1018 646 q 942 531 990 563 q 878 513 911 513 l 710 513 l 710 863 l 928 863 q 1039 838 997 863 q 1100 711 1100 801 l 1136 711 l 1126 926 l 360 926 l 360 889 l 368 889 l 400 889 l 446 876 q 476 846 476 868 q 454 775 476 818 l 425 711 l 144 189 q 82 86 111 119 q -17 32 36 32 l -17 -7 l 286 -7 l 286 32 l 278 32 q 222 40 250 32 q 179 78 179 54 q 188 114 179 92 l 211 168 l 272 286 l 308 350 l 567 350 l 567 161 q 547 90 567 122 q 433 32 510 40 l 433 -7 l 1136 -7 l 1213 238 m 1193 224 l 1126 7 l 447 7 l 447 18 q 547 67 514 29 q 581 163 581 104 l 581 364 l 300 364 l 263 296 l 200 174 q 167 76 167 99 q 206 32 167 49 q 272 19 231 24 l 272 7 l -3 7 l -3 19 q 94 81 46 19 q 124 125 104 94 q 157 183 140 153 l 435 706 l 469 772 q 490 846 490 821 q 447 890 490 876 l 415 899 q 374 901 404 901 l 369 913 l 1113 913 l 1122 724 l 1111 724 q 1057 849 1099 819 q 1006 869 1035 865 q 968 875 993 875 l 924 876 l 696 876 l 696 499 l 874 499 q 965 535 921 499 q 1029 633 1008 569 l 1042 633 l 1042 326 l 1029 328 q 946 446 1017 413 q 876 463 919 458 l 696 463 l 696 153 q 731 72 696 103 q 829 43 768 43 l 951 43 q 1049 68 999 43 q 1182 224 1131 115 l 1193 224 m 581 399 l 579 890 l 321 399 l 581 399 m 567 413 l 340 413 l 567 843 l 567 413 z "},"Ç":{"ha":942,"x_min":50,"x_max":894,"o":"m 894 218 l 863 239 l 813 176 l 778 138 q 679 67 731 88 q 508 46 628 46 q 297 164 386 46 q 219 414 219 274 q 249 660 219 558 q 343 818 275 758 q 535 888 417 888 q 733 813 653 888 q 838 624 813 735 l 871 624 l 849 950 l 814 950 l 797 908 q 769 888 779 888 l 746 892 l 724 899 q 628 938 676 928 q 504 950 576 950 l 447 950 q 181 800 317 950 q 50 460 50 657 q 161 126 50 261 q 449 -25 271 -8 l 390 -118 l 422 -115 q 457 -131 443 -119 q 469 -162 469 -142 q 444 -206 469 -187 q 403 -225 418 -225 l 374 -225 l 356 -222 l 356 -268 l 388 -271 l 449 -271 q 532 -233 485 -271 q 578 -150 578 -196 q 556 -75 578 -101 q 497 -37 533 -49 l 503 -28 q 729 33 635 -28 q 890 213 822 94 l 894 218 m 875 214 q 726 47 801 94 q 513 -14 633 -14 l 496 -14 l 476 -49 q 543 -82 521 -61 q 564 -150 564 -103 q 522 -228 564 -193 q 446 -261 479 -261 l 399 -261 l 369 -258 l 369 -236 l 382 -236 l 408 -236 q 458 -212 431 -235 q 483 -164 483 -192 q 464 -119 483 -135 q 418 -104 444 -104 l 472 -12 l 457 -12 q 171 136 278 4 q 64 458 64 268 q 194 797 64 654 q 447 938 326 938 l 500 938 l 550 938 l 604 928 q 717 888 667 914 l 740 878 q 769 872 750 872 q 801 892 786 874 q 822 938 814 904 l 835 936 l 856 633 l 846 635 q 738 825 808 758 q 535 899 656 899 q 335 829 417 899 q 232 658 265 768 q 206 415 206 571 q 288 154 206 265 q 519 32 383 32 q 735 85 657 32 q 865 221 794 125 l 875 214 z "},"È":{"ha":856,"x_min":29,"x_max":833,"o":"m 515 1007 l 440 1256 l 268 1256 l 479 1007 l 515 1007 m 497 1021 l 486 1021 l 297 1242 l 429 1242 l 497 1021 m 833 238 l 792 238 q 694 107 753 153 q 649 79 675 89 q 586 58 624 67 l 375 58 q 324 82 343 58 q 304 153 304 106 l 304 450 l 497 450 q 568 432 547 440 q 638 313 638 396 l 675 313 l 675 646 l 638 646 l 638 635 q 604 542 638 571 q 499 513 569 513 l 304 513 l 304 863 l 550 863 q 674 835 638 863 q 721 718 708 808 l 722 711 l 761 711 l 750 926 l 29 926 l 29 888 q 125 854 90 888 q 158 767 158 821 l 158 161 q 138 76 158 106 q 29 32 106 32 l 29 -7 l 749 -7 l 833 238 m 813 222 l 739 7 l 43 7 l 43 18 q 154 69 124 18 q 175 164 175 107 l 175 767 q 154 851 175 821 q 43 901 121 901 l 43 913 l 736 913 l 746 724 l 732 725 q 675 849 708 826 q 549 876 640 876 l 290 876 l 290 499 l 499 499 q 594 521 554 499 q 649 633 649 554 l 661 633 l 661 326 l 649 326 q 544 458 639 438 l 499 463 l 290 463 l 290 153 q 304 81 290 110 q 372 44 324 44 l 586 44 l 625 54 l 664 67 q 800 222 753 115 l 813 222 z "},"É":{"ha":883,"x_min":29,"x_max":833,"o":"m 596 1244 l 424 1244 l 349 997 l 385 997 l 596 1244 m 565 1231 l 376 1011 l 365 1011 l 433 1231 l 565 1231 m 833 238 l 792 238 q 694 107 753 153 q 649 79 675 89 q 586 58 624 67 l 375 58 q 324 82 343 58 q 304 153 304 106 l 304 450 l 497 450 q 568 432 547 440 q 638 313 638 396 l 675 313 l 675 646 l 638 646 l 638 635 q 604 542 638 571 q 499 513 569 513 l 304 513 l 304 863 l 550 863 q 674 835 638 863 q 721 718 708 808 l 722 711 l 761 711 l 750 926 l 29 926 l 29 888 q 125 854 90 888 q 158 767 158 821 l 158 161 q 138 76 158 106 q 29 32 106 32 l 29 -7 l 749 -7 l 833 238 m 813 222 l 739 7 l 43 7 l 43 18 q 154 69 124 18 q 175 164 175 107 l 175 767 q 154 851 175 821 q 43 901 121 901 l 43 913 l 736 913 l 746 724 l 732 725 q 675 849 708 826 q 549 878 642 878 l 290 878 l 290 499 l 499 499 q 594 521 554 499 q 649 633 649 554 l 661 633 l 661 326 l 649 326 q 544 458 639 438 l 499 463 l 290 463 l 290 153 q 304 81 290 110 q 372 44 324 44 l 586 44 l 625 54 l 664 67 q 800 222 753 115 l 813 222 z "},"Ê":{"ha":878,"x_min":29,"x_max":833,"o":"m 618 1013 l 482 1250 l 349 1250 l 213 1013 l 246 1013 l 400 1153 l 579 1013 l 618 1013 m 592 1025 l 588 1026 l 400 1172 l 243 1026 l 238 1025 l 356 1236 l 474 1236 l 592 1025 m 833 238 l 792 238 q 694 107 753 153 q 649 79 675 89 q 586 58 624 67 l 375 58 q 324 82 343 58 q 304 153 304 106 l 304 450 l 497 450 q 568 432 547 440 q 638 313 638 396 l 675 313 l 675 646 l 638 646 l 638 635 q 604 542 638 571 q 499 513 569 513 l 304 513 l 304 863 l 550 863 q 674 835 638 863 q 721 718 708 808 l 722 711 l 761 711 l 750 926 l 29 926 l 29 888 q 125 854 90 888 q 158 767 158 821 l 158 161 q 138 76 158 106 q 29 32 106 32 l 29 -7 l 749 -7 l 833 238 m 813 222 l 739 7 l 43 7 l 43 18 q 154 69 124 18 q 175 164 175 107 l 175 767 q 154 851 175 821 q 43 901 121 901 l 43 913 l 736 913 l 746 724 l 732 725 q 675 849 708 826 q 549 876 640 876 l 290 876 l 290 499 l 499 499 q 594 521 554 499 q 649 633 649 554 l 661 633 l 661 326 l 649 326 q 544 458 639 438 l 499 463 l 290 463 l 290 153 q 304 81 290 110 q 372 44 324 44 l 586 44 l 625 54 l 664 67 q 800 222 753 115 l 813 222 z "},"Ë":{"ha":883,"x_min":29,"x_max":833,"o":"m 621 1171 q 597 1226 621 1206 q 540 1250 574 1250 q 485 1226 508 1250 q 461 1169 461 1203 q 485 1113 461 1136 q 542 1089 508 1089 q 597 1113 576 1089 q 621 1171 621 1136 m 607 1169 q 588 1122 607 1142 q 540 1103 568 1103 q 496 1124 517 1103 q 474 1171 474 1142 q 494 1217 474 1199 q 542 1236 514 1236 q 588 1217 571 1236 q 607 1169 607 1197 m 382 1171 q 358 1226 382 1206 q 301 1250 335 1250 q 246 1226 269 1250 q 222 1169 222 1203 q 246 1113 222 1136 q 303 1089 269 1089 q 358 1113 335 1089 q 382 1171 382 1136 m 368 1169 q 349 1122 368 1142 q 301 1103 329 1103 q 256 1122 275 1103 q 236 1171 236 1142 q 256 1218 236 1199 q 301 1236 274 1236 q 349 1217 329 1236 q 368 1169 368 1197 m 833 238 l 792 238 q 694 107 753 153 q 649 79 675 89 q 586 58 624 67 l 375 58 q 324 82 343 58 q 304 153 304 106 l 304 450 l 497 450 q 568 432 547 440 q 638 313 638 396 l 675 313 l 675 646 l 638 646 l 638 635 q 604 542 638 571 q 499 513 569 513 l 304 513 l 304 863 l 550 863 q 674 835 638 863 q 721 718 708 808 l 722 711 l 761 711 l 750 926 l 29 926 l 29 888 q 125 854 90 888 q 158 767 158 821 l 158 161 q 138 76 158 106 q 29 32 106 32 l 29 -7 l 749 -7 l 833 238 m 813 222 l 739 7 l 43 7 l 43 18 q 154 69 124 18 q 175 164 175 107 l 175 767 q 154 851 175 821 q 43 901 121 901 l 43 913 l 736 913 l 746 724 l 732 725 q 675 849 708 826 q 549 876 640 876 l 290 876 l 290 499 l 499 499 q 594 521 554 499 q 649 633 649 554 l 661 633 l 661 326 l 649 326 q 544 458 639 438 l 499 463 l 290 463 l 290 153 q 304 81 290 110 q 372 44 324 44 l 586 44 l 625 54 l 664 67 q 800 222 753 115 l 813 222 z "},"Ì":{"ha":517,"x_min":35,"x_max":442,"o":"m 354 1001 l 279 1250 l 107 1250 l 318 1001 l 354 1001 m 336 1015 l 325 1015 l 136 1236 l 268 1236 l 336 1015 m 442 -7 l 442 32 q 329 81 358 32 q 310 163 310 113 l 310 761 q 331 842 310 813 q 442 888 367 888 l 442 926 l 35 926 l 35 888 l 103 874 q 167 757 167 844 l 167 167 q 146 79 167 111 q 35 32 111 32 l 35 -7 l 442 -7 m 428 7 l 49 7 l 49 18 q 131 40 100 18 q 181 163 181 76 l 181 758 q 158 847 181 813 q 49 901 124 901 l 49 913 l 428 913 l 428 901 q 346 881 375 901 q 296 757 296 842 l 296 161 q 317 65 296 99 q 428 18 351 18 l 428 7 z "},"Í":{"ha":517,"x_min":35,"x_max":442,"o":"m 424 1256 l 251 1256 l 176 1007 l 213 1007 l 424 1256 m 393 1242 l 204 1021 l 193 1021 l 261 1242 l 393 1242 m 442 -7 l 442 32 q 329 81 358 32 q 310 163 310 113 l 310 761 q 331 842 310 813 q 442 888 367 888 l 442 926 l 35 926 l 35 888 l 103 874 q 167 757 167 844 l 167 167 q 146 79 167 111 q 35 32 111 32 l 35 -7 l 442 -7 m 428 7 l 49 7 l 49 18 q 131 40 100 18 q 181 163 181 76 l 181 758 q 158 847 181 813 q 49 901 124 901 l 49 913 l 428 913 l 428 901 q 346 881 375 901 q 296 757 296 842 l 296 161 q 317 65 296 99 q 428 18 351 18 l 428 7 z "},"Î":{"ha":500,"x_min":29,"x_max":442,"o":"m 435 1018 l 300 1256 l 167 1256 l 29 1018 l 63 1018 l 217 1158 l 396 1018 l 435 1018 m 410 1031 l 404 1032 l 217 1178 l 60 1032 l 54 1031 l 174 1242 l 292 1242 l 410 1031 m 442 -7 l 442 32 q 329 81 358 32 q 310 163 310 113 l 310 761 q 331 842 310 813 q 442 888 367 888 l 442 926 l 35 926 l 35 888 l 103 874 q 167 757 167 844 l 167 167 q 146 79 167 111 q 35 32 111 32 l 35 -7 l 442 -7 m 428 7 l 49 7 l 49 18 q 131 40 100 18 q 181 163 181 76 l 181 758 q 158 847 181 813 q 49 901 124 901 l 49 913 l 428 913 l 428 901 q 346 881 375 901 q 296 757 296 842 l 296 161 q 317 65 296 99 q 428 18 351 18 l 428 7 z "},"Ï":{"ha":567,"x_min":57,"x_max":464,"o":"m 460 1165 q 435 1221 460 1200 q 378 1244 411 1244 q 322 1221 346 1244 q 299 1164 299 1197 q 322 1107 299 1131 q 379 1083 346 1083 q 435 1107 414 1083 q 460 1165 460 1131 m 446 1164 q 426 1117 446 1136 q 379 1097 407 1097 q 335 1118 356 1097 q 313 1165 313 1136 q 333 1211 313 1193 q 381 1231 353 1231 q 426 1211 410 1231 q 446 1164 446 1192 m 221 1165 q 197 1221 221 1200 q 140 1244 174 1244 q 85 1221 108 1244 q 61 1164 61 1197 q 85 1107 61 1131 q 142 1083 108 1083 q 197 1107 174 1083 q 221 1165 221 1131 m 207 1164 q 188 1117 207 1136 q 140 1097 168 1097 q 94 1117 114 1097 q 75 1165 75 1136 q 94 1213 75 1193 q 140 1231 113 1231 q 188 1211 168 1231 q 207 1164 207 1192 m 464 -7 l 464 32 q 351 81 381 32 q 332 163 332 113 l 332 761 q 353 842 332 813 q 464 888 389 888 l 464 926 l 57 926 l 57 888 l 125 874 q 189 757 189 844 l 189 167 q 168 79 189 111 q 57 32 133 32 l 57 -7 l 464 -7 m 450 7 l 71 7 l 71 18 q 153 40 122 18 q 203 163 203 76 l 203 758 q 181 847 203 813 q 71 901 146 901 l 71 913 l 450 913 l 450 901 q 368 881 397 901 q 318 757 318 842 l 318 161 q 339 65 318 99 q 450 18 374 18 l 450 7 z "},"Ð":{"ha":1015,"x_min":24,"x_max":963,"o":"m 963 467 q 899 711 963 600 q 724 878 835 824 q 610 914 683 899 q 406 926 538 926 l 24 926 l 24 888 q 106 867 75 888 q 156 757 156 832 l 156 517 l 24 517 l 24 453 l 156 453 l 156 158 q 136 82 156 114 q 24 32 103 32 l 24 -7 l 439 -7 q 632 17 538 -7 q 856 147 774 57 q 963 467 963 267 m 949 454 q 847 153 949 267 q 640 29 769 67 q 590 17 611 19 q 556 13 572 15 q 544 11 551 13 q 511 7 522 8 l 469 7 l 439 7 l 38 7 l 38 18 q 150 74 115 18 q 169 163 169 108 l 169 467 l 38 467 l 38 503 l 169 503 l 169 758 q 149 850 169 817 q 38 901 114 901 l 38 913 q 601 900 517 913 q 758 843 683 888 q 882 713 829 799 q 932 594 919 657 q 949 454 949 526 m 808 463 q 713 754 808 642 q 504 876 611 876 l 413 875 l 357 871 l 318 863 l 288 856 l 288 503 l 553 503 l 553 467 l 288 467 l 288 63 q 351 46 296 54 q 467 38 408 38 l 508 39 q 586 63 528 39 q 731 178 679 106 q 808 463 808 288 m 794 461 q 703 175 794 288 q 508 56 604 56 l 424 56 l 372 60 l 301 72 l 301 453 l 567 453 l 567 517 l 301 517 l 301 844 l 368 858 q 503 863 406 863 q 701 744 604 863 q 794 461 794 635 z "},"Ñ":{"ha":1039,"x_min":-18,"x_max":997,"o":"m 696 1256 l 663 1256 q 654 1221 660 1239 l 647 1199 l 647 1197 q 606 1161 631 1161 q 507 1208 579 1161 q 372 1256 435 1256 q 278 1196 311 1256 l 274 1188 q 269 1178 271 1181 q 267 1171 268 1172 q 258 1146 265 1167 q 251 1106 251 1122 l 251 1071 l 249 1064 l 283 1064 q 288 1104 283 1088 l 303 1136 q 340 1158 319 1158 q 401 1133 363 1158 l 474 1086 q 576 1064 521 1064 q 668 1128 633 1064 q 696 1256 696 1182 m 682 1242 q 654 1132 682 1181 q 572 1078 617 1078 q 478 1103 524 1078 l 404 1149 q 335 1172 364 1172 q 292 1147 303 1172 q 272 1078 281 1119 l 263 1078 l 263 1097 l 269 1138 q 290 1189 278 1168 q 376 1242 326 1242 q 501 1194 428 1242 q 604 1147 574 1147 q 654 1181 636 1147 q 674 1242 665 1201 l 682 1242 m 997 888 l 997 926 l 663 926 l 663 888 q 742 868 714 888 q 781 822 768 849 q 793 758 793 796 l 793 247 l 239 926 l -18 926 l -18 888 q 85 867 46 888 l 121 839 q 163 797 142 822 l 163 158 q 144 88 163 119 q 32 32 111 32 l 32 -7 l 367 -7 l 367 32 q 251 93 285 32 q 242 117 243 107 l 236 151 l 236 706 l 831 -22 l 867 -22 l 867 761 q 883 825 875 804 q 997 888 919 888 m 983 901 q 918 883 943 893 q 853 761 853 847 l 853 -8 l 838 -8 l 222 746 l 222 153 q 257 63 222 97 q 353 18 292 26 l 353 7 l 46 7 l 46 18 q 154 78 125 35 q 174 158 174 108 l 174 804 l 153 829 l 131 849 q 97 876 114 865 q -4 901 51 901 l -4 913 l 235 913 l 807 208 l 807 765 q 774 867 807 832 q 676 901 739 901 l 676 913 l 983 913 l 983 901 z "},"Ò":{"ha":1050,"x_min":49,"x_max":963,"o":"m 599 997 l 524 1244 l 351 1244 l 561 997 l 599 997 m 581 1011 l 569 1011 l 381 1231 l 513 1231 l 581 1011 m 963 463 q 838 801 963 663 q 510 947 704 947 q 181 807 313 947 q 49 463 49 667 q 176 115 49 258 q 503 -28 303 -28 q 836 121 704 -28 q 963 463 963 260 m 949 463 q 821 129 949 272 q 500 -14 694 -14 q 179 128 304 -14 q 63 463 63 264 q 189 799 63 664 q 514 933 315 933 q 826 792 700 933 q 949 463 949 657 m 807 450 q 783 654 807 553 q 744 757 764 721 q 693 826 725 794 q 501 899 621 899 q 319 829 393 899 q 231 674 256 765 q 204 467 204 582 q 229 267 204 357 q 267 167 246 208 q 319 94 299 115 q 503 21 393 21 q 688 88 615 21 q 782 249 753 144 q 807 450 807 340 m 793 447 q 768 257 793 343 q 679 99 735 150 q 503 35 611 35 q 326 106 396 35 q 242 261 265 168 q 218 467 218 358 q 240 665 218 571 q 325 817 269 761 q 504 885 393 885 q 683 814 615 885 q 771 647 746 754 q 793 447 793 571 z "},"Ó":{"ha":1000,"x_min":49,"x_max":963,"o":"m 651 1250 l 479 1250 l 404 1001 l 440 1001 l 651 1250 m 621 1236 l 432 1015 l 421 1015 l 489 1236 l 621 1236 m 963 463 q 838 801 963 663 q 510 947 704 947 q 181 807 313 947 q 49 463 49 667 q 176 115 49 258 q 503 -28 303 -28 q 836 121 704 -28 q 963 463 963 260 m 949 463 q 821 129 949 272 q 500 -14 694 -14 q 179 128 304 -14 q 63 463 63 264 q 189 799 63 664 q 514 933 315 933 q 826 792 700 933 q 949 463 949 657 m 807 450 q 783 654 807 553 q 744 757 764 721 q 693 826 725 794 q 501 899 621 899 q 319 829 393 899 q 231 674 256 765 q 204 467 204 582 q 229 267 204 357 q 267 167 246 208 q 319 94 299 115 q 503 21 393 21 q 688 88 615 21 q 782 249 753 144 q 807 450 807 340 m 793 447 q 768 257 793 343 q 679 99 735 150 q 503 35 611 35 q 326 106 396 35 q 242 261 265 168 q 218 467 218 358 q 240 665 218 571 q 325 817 269 761 q 504 885 393 885 q 683 814 615 885 q 771 647 746 754 q 793 447 793 571 z "},"Ô":{"ha":1028,"x_min":49,"x_max":963,"o":"m 718 1013 l 582 1250 l 449 1250 l 313 1013 l 346 1013 l 500 1153 l 679 1013 l 718 1013 m 692 1025 l 688 1026 l 500 1172 l 343 1026 l 338 1025 l 456 1236 l 574 1236 l 692 1025 m 963 463 q 838 801 963 663 q 510 947 704 947 q 181 807 313 947 q 49 463 49 667 q 176 115 49 258 q 503 -28 303 -28 q 836 121 704 -28 q 963 463 963 260 m 949 463 q 821 129 949 272 q 500 -14 694 -14 q 179 128 304 -14 q 63 463 63 264 q 189 799 63 664 q 514 933 315 933 q 826 792 700 933 q 949 463 949 657 m 807 450 q 783 654 807 553 q 744 757 764 721 q 693 826 725 794 q 501 899 621 899 q 319 829 393 899 q 231 674 256 765 q 204 467 204 582 q 229 267 204 357 q 267 167 246 208 q 319 94 299 115 q 503 21 393 21 q 688 88 615 21 q 782 249 753 144 q 807 450 807 340 m 793 447 q 768 257 793 343 q 679 99 735 150 q 503 35 611 35 q 326 106 396 35 q 242 261 265 168 q 218 467 218 358 q 240 665 218 571 q 325 817 269 761 q 504 885 393 885 q 683 814 615 885 q 771 647 746 754 q 793 447 793 571 z "},"Õ":{"ha":1028,"x_min":49,"x_max":963,"o":"m 690 1256 l 657 1256 q 649 1221 654 1239 l 642 1199 l 642 1197 q 600 1161 625 1161 q 501 1208 574 1161 q 367 1256 429 1256 q 272 1196 306 1256 l 268 1188 q 264 1178 265 1181 q 261 1171 263 1172 q 253 1146 260 1167 q 246 1106 246 1122 l 246 1071 l 243 1064 l 278 1064 q 282 1104 278 1088 l 297 1136 q 335 1158 314 1158 q 396 1133 357 1158 l 468 1086 q 571 1064 515 1064 q 663 1128 628 1064 q 690 1256 690 1182 m 676 1242 q 649 1132 676 1181 q 567 1078 611 1078 q 472 1103 518 1078 l 399 1149 q 329 1172 358 1172 q 286 1147 297 1172 q 267 1078 275 1119 l 257 1078 l 257 1097 l 264 1138 q 285 1189 272 1168 q 371 1242 321 1242 q 496 1194 422 1242 q 599 1147 568 1147 q 649 1181 631 1147 q 668 1242 660 1201 l 676 1242 m 963 463 q 838 801 963 663 q 510 947 704 947 q 181 807 313 947 q 49 463 49 667 q 176 115 49 258 q 503 -28 303 -28 q 836 121 704 -28 q 963 463 963 260 m 949 463 q 821 129 949 272 q 500 -14 694 -14 q 179 128 304 -14 q 63 463 63 264 q 189 799 63 664 q 514 933 315 933 q 826 792 700 933 q 949 463 949 657 m 807 450 q 783 654 807 553 q 744 757 764 721 q 693 826 725 794 q 501 899 621 899 q 319 829 393 899 q 231 674 256 765 q 204 467 204 582 q 229 267 204 357 q 267 167 246 208 q 319 94 299 115 q 503 21 393 21 q 688 88 615 21 q 782 249 753 144 q 807 450 807 340 m 793 447 q 768 257 793 343 q 679 99 735 150 q 503 33 610 33 q 326 106 394 33 q 242 261 265 168 q 218 467 218 358 q 240 665 218 571 q 325 817 269 761 q 504 885 393 885 q 683 814 615 885 q 771 647 746 754 q 793 447 793 571 z "},"Ö":{"ha":1011,"x_min":49,"x_max":963,"o":"m 688 1171 q 663 1226 688 1206 q 606 1250 639 1250 q 550 1226 574 1250 q 526 1169 526 1203 q 550 1113 526 1136 q 607 1089 574 1089 q 663 1113 642 1089 q 688 1171 688 1136 m 674 1169 q 654 1122 674 1142 q 607 1103 635 1103 q 563 1124 583 1103 q 540 1171 540 1142 q 561 1217 540 1199 q 608 1236 581 1236 q 654 1217 638 1236 q 674 1169 674 1197 m 449 1171 q 425 1226 449 1206 q 368 1250 401 1250 q 313 1226 336 1250 q 289 1169 289 1203 q 313 1113 289 1136 q 369 1089 336 1089 q 425 1113 401 1089 q 449 1171 449 1136 m 435 1169 q 415 1122 435 1142 q 368 1103 396 1103 q 322 1122 342 1103 q 303 1171 303 1142 q 322 1218 303 1199 q 368 1236 340 1236 q 415 1217 396 1236 q 435 1169 435 1197 m 963 463 q 838 801 963 663 q 510 947 704 947 q 181 807 313 947 q 49 463 49 667 q 176 115 49 258 q 503 -28 303 -28 q 836 121 704 -28 q 963 463 963 260 m 949 463 q 821 129 949 272 q 500 -14 694 -14 q 179 128 304 -14 q 63 463 63 264 q 189 799 63 664 q 514 933 315 933 q 826 792 700 933 q 949 463 949 657 m 807 450 q 783 654 807 553 q 744 757 764 721 q 693 826 725 794 q 501 899 621 899 q 319 829 393 899 q 231 674 256 765 q 204 467 204 582 q 229 267 204 357 q 267 167 246 208 q 319 94 299 115 q 503 21 393 21 q 688 88 615 21 q 782 249 753 144 q 807 450 807 340 m 793 447 q 768 257 793 343 q 679 99 735 150 q 503 35 611 35 q 326 106 396 35 q 242 261 265 168 q 218 467 218 358 q 240 665 218 571 q 325 817 269 761 q 504 885 393 885 q 683 814 615 885 q 771 647 746 754 q 793 447 793 571 z "},"×":{"ha":803,"x_min":111,"x_max":689,"o":"m 688 222 l 447 463 l 689 701 l 639 750 l 400 510 l 160 749 l 113 700 l 350 463 l 111 222 l 161 172 l 399 413 l 640 172 l 688 222 m 668 221 l 639 192 l 400 433 l 161 192 l 131 222 l 372 463 l 132 700 l 161 729 l 400 490 l 639 729 l 669 700 l 428 463 l 668 221 z "},"Ø":{"ha":1015,"x_min":50,"x_max":963,"o":"m 963 421 q 929 651 963 571 q 832 807 896 731 l 922 921 l 872 958 l 782 850 q 508 947 664 947 q 179 807 307 947 q 50 517 50 665 q 82 275 50 371 q 183 111 121 178 l 93 0 l 144 -40 l 232 67 q 363 -1 292 19 q 397 -12 383 -11 l 435 -19 q 447 -22 436 -19 q 460 -25 454 -24 l 481 -25 l 528 -25 q 829 81 715 -25 q 944 286 911 158 l 958 356 l 963 421 m 949 419 q 851 121 949 235 q 663 6 778 39 q 528 -11 600 -11 l 479 -11 l 475 -11 q 440 -6 453 -8 l 390 4 l 360 14 q 232 85 276 43 l 144 -22 l 111 1 l 201 113 q 97 274 129 179 q 64 514 64 368 q 192 799 64 663 q 510 933 318 933 l 535 933 l 546 932 q 575 928 558 931 q 604 921 590 924 l 619 918 q 639 913 628 915 q 658 906 650 908 q 785 829 733 876 l 874 940 l 903 918 l 813 806 q 915 654 879 747 q 949 419 949 563 m 735 769 q 686 829 701 814 q 636 867 664 854 q 488 900 576 900 q 322 832 394 900 q 232 681 257 772 q 206 489 206 589 q 218 322 206 400 q 258 183 229 246 l 735 769 m 718 771 l 263 208 q 232 314 242 264 q 224 365 224 358 l 221 379 q 219 399 221 394 l 219 488 q 221 518 219 507 q 225 565 221 536 q 233 621 228 594 q 239 643 235 628 q 244 669 242 660 q 331 819 275 768 q 521 886 400 886 q 718 771 640 886 m 804 419 l 804 508 l 804 546 l 796 590 q 754 735 778 668 l 281 146 q 374 53 326 79 q 435 28 408 35 q 518 22 457 22 q 725 125 643 22 q 804 419 804 228 m 793 419 l 783 319 q 713 133 763 204 q 522 36 644 36 q 385 64 440 36 q 297 147 331 97 l 750 707 q 758 689 754 697 q 760 683 760 688 q 761 676 760 681 l 769 644 q 779 606 779 621 l 785 569 q 793 444 793 519 l 793 419 z "},"Ù":{"ha":1078,"x_min":7,"x_max":1001,"o":"m 621 1001 l 546 1250 l 374 1250 l 585 1001 l 621 1001 m 603 1015 l 592 1015 l 403 1236 l 535 1236 l 603 1015 m 1001 888 l 1001 926 l 663 926 l 663 888 q 749 867 719 888 q 793 757 793 833 q 789 267 793 307 q 776 206 782 228 q 758 163 768 179 q 675 82 729 111 q 601 53 636 61 q 549 44 567 44 l 490 44 q 425 54 454 44 l 394 68 l 368 88 q 300 201 317 131 l 288 279 l 288 761 q 306 832 288 800 q 419 888 339 888 l 419 926 l 7 926 l 7 888 q 122 835 89 888 q 142 757 142 803 l 146 619 l 146 483 l 146 268 l 151 213 l 163 169 q 300 13 203 60 q 393 -18 340 -10 q 501 -28 438 -28 q 707 14 624 -28 q 840 161 807 68 q 846 172 843 167 q 854 193 853 189 q 858 217 857 200 q 865 268 865 240 l 865 753 q 900 850 865 811 q 1001 888 940 888 m 988 901 q 875 833 904 889 q 865 814 871 828 q 861 801 864 810 q 860 794 860 796 l 856 751 q 851 278 856 314 l 840 213 l 828 167 q 699 25 794 74 q 610 -6 663 6 q 503 -14 560 -14 q 308 24 390 -14 q 175 174 215 69 q 160 267 160 219 l 160 758 q 136 851 160 813 q 21 901 99 901 l 21 913 l 406 913 l 406 901 q 367 892 381 896 q 349 886 358 889 q 338 882 340 883 q 271 757 271 844 l 271 281 l 282 206 q 364 76 310 119 q 511 31 421 31 q 681 71 603 31 q 769 154 739 103 q 803 261 794 201 l 803 758 q 769 861 803 824 q 676 901 738 901 l 676 913 l 988 913 l 988 901 z "},"Ú":{"ha":1044,"x_min":7,"x_max":1001,"o":"m 713 1256 l 540 1256 l 465 1007 l 501 1007 l 713 1256 m 682 1242 l 493 1021 l 482 1021 l 550 1242 l 682 1242 m 1001 888 l 1001 926 l 663 926 l 663 888 q 749 867 719 888 q 793 757 793 833 q 789 267 793 307 q 776 206 782 228 q 758 163 768 179 q 675 82 729 111 q 601 53 636 61 q 549 44 567 44 l 490 44 q 425 54 454 44 l 394 68 l 368 88 q 300 201 317 131 l 288 279 l 288 761 q 306 832 288 800 q 419 888 339 888 l 419 926 l 7 926 l 7 888 q 122 835 89 888 q 142 757 142 803 l 146 619 l 146 483 l 146 268 l 151 213 l 163 169 q 300 13 203 60 q 393 -18 340 -10 q 501 -28 438 -28 q 707 14 624 -28 q 840 161 807 68 q 846 172 843 167 q 854 193 853 189 q 858 217 857 200 q 865 268 865 240 l 865 753 q 900 850 865 811 q 1001 888 940 888 m 988 901 q 875 833 904 889 q 865 814 871 828 q 861 801 864 810 q 860 794 860 796 l 856 751 q 851 278 856 314 l 840 213 l 828 167 q 699 25 794 74 q 610 -6 663 6 q 503 -14 560 -14 q 308 24 390 -14 q 175 174 215 69 q 160 267 160 219 l 160 758 q 136 851 160 813 q 21 901 99 901 l 21 913 l 406 913 l 406 901 q 367 892 381 896 q 349 886 358 889 q 338 882 340 883 q 271 757 271 844 l 271 281 l 282 206 q 364 76 310 119 q 511 31 421 31 q 681 71 603 31 q 769 154 739 103 q 803 261 794 201 l 803 758 q 769 861 803 824 q 676 901 738 901 l 676 913 l 988 913 l 988 901 z "},"Û":{"ha":1033,"x_min":7,"x_max":1001,"o":"m 735 1018 l 599 1256 l 465 1256 l 329 1018 l 363 1018 l 517 1158 l 696 1018 l 735 1018 m 708 1031 l 704 1032 l 517 1178 l 360 1032 l 354 1031 l 472 1242 l 590 1242 l 708 1031 m 1001 888 l 1001 926 l 663 926 l 663 888 q 749 867 719 888 q 793 757 793 833 q 789 267 793 307 q 776 206 782 228 q 758 163 768 179 q 675 82 729 111 q 601 53 636 61 q 549 44 567 44 l 490 44 q 425 54 454 44 l 394 68 l 368 88 q 300 201 317 131 l 288 279 l 288 761 q 306 832 288 800 q 419 888 339 888 l 419 926 l 7 926 l 7 888 q 122 835 89 888 q 142 757 142 803 l 146 619 l 146 483 l 146 268 l 151 213 l 163 169 q 300 13 203 60 q 393 -18 340 -10 q 501 -28 438 -28 q 707 14 624 -28 q 840 161 807 68 q 846 172 843 167 q 854 193 853 189 q 858 217 857 200 q 865 268 865 240 l 865 753 q 900 850 865 811 q 1001 888 940 888 m 988 901 q 875 833 904 889 q 865 814 871 828 q 861 801 864 810 q 860 794 860 796 l 856 751 q 851 278 856 314 l 840 213 l 828 167 q 699 25 794 74 q 610 -6 663 6 q 503 -14 560 -14 q 308 24 390 -14 q 175 174 215 69 q 160 267 160 219 l 160 758 q 136 851 160 813 q 21 901 99 901 l 21 913 l 406 913 l 406 901 q 367 892 381 896 q 349 886 358 889 q 338 882 340 883 q 271 757 271 844 l 271 281 l 282 206 q 364 76 310 119 q 511 31 421 31 q 681 71 603 31 q 769 154 739 103 q 803 261 794 201 l 803 758 q 769 861 803 824 q 676 901 738 901 l 676 913 l 988 913 l 988 901 z "},"Ü":{"ha":1050,"x_min":7,"x_max":1001,"o":"m 704 1171 q 681 1226 704 1206 q 624 1250 657 1250 q 568 1226 592 1250 q 544 1169 544 1203 q 568 1113 544 1136 q 625 1089 592 1089 q 681 1113 660 1089 q 704 1171 704 1136 m 690 1169 q 671 1122 690 1142 q 624 1103 651 1103 q 579 1124 600 1103 q 557 1171 557 1142 q 578 1217 557 1199 q 625 1236 597 1236 q 671 1217 654 1236 q 690 1169 690 1197 m 465 1171 q 442 1226 465 1206 q 385 1250 418 1250 q 329 1226 353 1250 q 306 1169 306 1203 q 329 1113 306 1136 q 386 1089 353 1089 q 442 1113 418 1089 q 465 1171 465 1136 m 451 1169 q 432 1122 451 1142 q 385 1103 413 1103 q 339 1122 358 1103 q 319 1171 319 1142 q 339 1218 319 1199 q 385 1236 357 1236 q 432 1217 413 1236 q 451 1169 451 1197 m 1001 888 l 1001 926 l 663 926 l 663 888 q 749 867 719 888 q 793 757 793 833 q 789 267 793 307 q 776 206 782 228 q 758 163 768 179 q 675 82 729 111 q 601 53 636 61 q 549 44 567 44 l 490 44 q 425 54 454 44 l 394 68 l 368 88 q 300 201 317 131 l 288 279 l 288 761 q 306 832 288 800 q 419 888 339 888 l 419 926 l 7 926 l 7 888 q 122 835 89 888 q 142 757 142 803 l 146 619 l 146 483 l 146 268 l 151 213 l 163 169 q 300 13 203 60 q 393 -18 340 -10 q 501 -28 438 -28 q 707 14 624 -28 q 840 161 807 68 q 846 172 843 167 q 854 193 853 189 q 858 217 857 200 q 865 268 865 240 l 865 753 q 900 850 865 811 q 1001 888 940 888 m 988 901 q 875 833 904 889 q 865 814 871 828 q 861 801 864 810 q 860 794 860 796 l 856 751 q 851 278 856 314 l 840 213 l 828 167 q 699 25 794 74 q 610 -6 663 6 q 503 -14 560 -14 q 308 24 390 -14 q 175 174 215 69 q 160 267 160 219 l 160 758 q 136 851 160 813 q 21 901 99 901 l 21 913 l 406 913 l 406 901 q 367 892 381 896 q 349 886 358 889 q 338 882 340 883 q 271 757 271 844 l 271 281 l 282 206 q 364 76 310 119 q 511 31 421 31 q 681 71 603 31 q 769 154 739 103 q 803 261 794 201 l 803 758 q 769 861 803 824 q 676 901 738 901 l 676 913 l 988 913 l 988 901 z "},"Ý":{"ha":1039,"x_min":13,"x_max":996,"o":"m 718 1244 l 546 1244 l 471 997 l 507 997 l 718 1244 m 688 1231 l 499 1011 l 488 1011 l 556 1231 l 688 1231 m 996 888 l 996 926 l 661 926 l 661 888 l 669 888 l 696 888 l 722 878 q 754 838 754 858 q 739 782 754 815 l 714 738 l 540 463 l 354 751 q 329 792 331 783 q 314 844 314 819 q 353 882 314 869 q 419 888 365 888 l 419 926 l 13 926 l 15 888 q 131 826 78 888 l 150 799 l 179 758 l 432 379 l 432 158 l 432 128 q 410 54 426 64 q 300 32 386 32 l 300 -7 l 706 -7 l 706 32 q 597 54 618 32 q 575 158 575 76 l 575 388 l 796 735 l 846 810 l 876 842 l 908 865 q 996 888 949 888 m 982 901 q 899 878 938 901 q 835 817 864 854 l 811 785 l 783 742 l 561 392 l 561 161 l 567 75 q 583 49 575 50 q 692 18 608 18 l 692 7 l 314 7 l 314 18 q 422 47 397 18 q 446 160 446 75 l 446 379 l 192 767 l 149 828 q 96 878 113 869 q 26 901 60 901 l 26 913 l 406 913 l 406 901 q 326 882 353 901 q 300 840 300 861 q 317 788 300 819 l 343 743 l 540 438 l 725 731 l 747 764 q 768 835 768 806 q 740 883 768 864 q 675 901 714 901 l 675 913 l 982 913 l 982 901 z "},"Þ":{"ha":785,"x_min":25,"x_max":732,"o":"m 732 442 q 700 579 732 522 q 590 679 658 650 q 560 693 578 686 q 535 700 551 696 q 526 703 528 703 q 449 714 489 714 q 300 718 407 718 l 300 754 q 322 865 300 843 q 431 888 344 888 l 431 926 l 25 926 l 25 888 q 139 819 108 888 q 154 751 150 799 l 154 161 q 135 86 154 118 q 25 32 100 32 l 25 -7 l 431 -7 l 431 32 l 425 32 q 303 90 315 32 q 300 203 300 121 l 419 203 l 489 206 q 657 282 597 222 q 732 442 732 361 m 718 468 q 699 369 718 419 q 590 254 663 292 q 443 217 528 225 l 286 213 l 286 92 q 301 54 292 65 q 417 18 338 18 l 417 7 l 39 7 l 39 18 q 104 39 83 26 q 168 163 168 81 l 168 753 q 147 846 168 808 q 39 901 114 901 l 39 913 l 417 913 l 417 901 q 318 878 346 901 q 286 808 290 854 l 286 704 l 435 704 l 474 701 l 510 694 q 576 672 563 678 q 688 575 651 636 q 718 468 718 524 m 575 440 q 532 590 575 535 q 418 658 489 646 q 354 664 400 664 l 286 664 l 286 247 q 500 293 436 247 q 575 440 575 351 m 561 438 q 481 299 561 346 q 300 261 417 261 l 300 651 l 325 651 l 369 651 l 417 646 q 521 581 488 629 q 561 438 561 529 z "},"ß":{"ha":708,"x_min":24,"x_max":664,"o":"m 664 278 q 653 376 664 329 q 621 456 643 418 q 490 557 578 528 q 581 632 554 586 q 607 763 607 676 q 538 911 607 850 q 346 971 468 971 q 163 878 222 971 q 114 656 114 801 l 114 156 q 110 111 114 131 q 99 75 106 92 q 24 31 78 31 l 24 -7 l 240 -7 l 240 708 l 240 768 l 243 815 l 253 839 q 351 913 285 913 q 453 861 422 913 q 478 742 478 818 q 449 619 478 664 q 335 571 413 571 l 335 519 l 342 519 q 497 410 447 519 q 535 239 535 331 q 518 101 535 146 q 461 38 489 38 l 433 38 l 418 42 q 408 58 408 50 l 413 83 l 415 115 q 394 153 411 139 q 351 167 376 167 q 307 149 321 167 q 293 89 293 131 q 333 17 293 49 q 457 -15 374 -15 q 606 83 540 -15 q 664 278 664 174 m 650 286 q 596 93 650 175 q 457 -1 531 -1 q 342 28 378 -1 q 307 89 307 54 q 318 139 307 124 q 353 153 332 153 q 389 140 375 153 q 401 115 401 128 l 401 86 l 396 57 q 407 33 400 40 q 461 24 421 24 q 528 92 503 24 q 543 153 539 122 q 547 239 547 189 q 544 289 547 258 q 538 333 543 310 q 508 417 528 378 q 442 503 482 471 q 349 532 400 532 l 349 557 q 464 615 429 557 q 493 744 493 665 q 463 871 493 828 q 364 926 425 926 q 265 889 297 926 q 231 803 239 858 l 226 772 l 226 703 l 226 7 l 38 7 l 38 18 q 113 69 92 26 q 128 153 128 97 l 128 653 l 132 732 q 172 868 146 826 q 346 957 232 957 q 529 899 463 957 q 594 757 594 840 q 557 625 594 669 q 451 557 528 589 q 606 457 560 522 q 650 286 650 392 z "},"à":{"ha":656,"x_min":50,"x_max":628,"o":"m 360 718 l 285 965 l 113 965 l 322 718 l 360 718 m 342 732 l 331 732 l 142 951 l 274 951 l 342 732 m 628 88 l 628 144 l 589 107 q 542 81 563 81 q 521 136 521 85 l 521 144 l 521 428 q 486 568 521 515 q 299 646 433 646 q 154 608 221 646 q 74 508 74 565 q 90 432 74 453 q 144 411 107 411 q 194 449 182 411 q 200 511 200 461 q 226 572 200 554 q 304 590 250 590 q 379 533 356 590 q 394 417 394 496 l 253 363 q 113 278 156 318 q 50 147 50 215 q 90 26 50 74 q 193 -19 136 -19 q 306 13 253 -19 l 394 76 q 414 8 394 36 q 474 -19 433 -19 q 560 17 515 -19 q 628 88 582 36 m 614 90 q 538 14 572 36 q 507 -1 518 1 l 475 -6 q 425 15 442 -6 q 408 93 408 43 l 408 103 l 313 31 q 283 14 294 18 q 250 1 274 8 q 197 -6 222 -6 q 100 38 139 -6 q 64 151 64 85 q 125 275 64 218 l 176 310 l 221 333 l 267 353 l 407 407 q 385 551 407 511 q 301 604 357 604 q 215 581 246 604 q 186 521 186 556 l 186 510 q 174 440 186 456 q 135 425 161 425 q 100 438 111 425 q 88 463 89 450 l 88 507 q 164 599 88 556 q 229 625 197 618 q 300 632 260 632 q 474 558 424 632 q 507 426 507 511 l 507 154 l 510 108 l 521 76 q 544 67 531 67 q 575 76 568 71 l 614 111 l 614 90 m 408 131 l 408 381 l 346 357 l 304 340 q 207 275 236 304 q 164 182 164 232 q 192 97 164 138 q 265 60 224 60 q 358 96 306 60 l 408 131 m 394 138 l 333 96 q 265 72 290 72 q 201 108 226 72 q 176 183 176 144 q 214 267 176 228 q 301 324 240 296 l 394 361 l 394 138 z "},"á":{"ha":661,"x_min":50,"x_max":628,"o":"m 451 950 l 279 950 l 204 701 l 240 701 l 451 950 m 421 936 l 232 715 l 221 715 l 289 936 l 421 936 m 628 88 l 628 144 l 589 107 q 542 81 563 81 q 521 136 521 85 l 521 144 l 521 428 q 486 568 521 515 q 299 646 433 646 q 154 608 221 646 q 74 508 74 565 q 90 432 74 453 q 144 411 107 411 q 194 449 182 411 q 200 511 200 461 q 226 572 200 554 q 304 590 250 590 q 379 533 356 590 q 394 417 394 496 l 253 363 q 113 278 156 318 q 50 147 50 215 q 90 26 50 74 q 193 -19 136 -19 q 306 13 253 -19 l 394 76 q 414 8 394 36 q 474 -19 433 -19 q 560 17 515 -19 q 628 88 582 36 m 614 90 q 538 14 572 36 q 507 -1 518 1 l 475 -6 q 425 15 442 -6 q 408 93 408 43 l 408 103 l 313 31 q 283 14 294 18 q 250 1 274 8 q 197 -6 222 -6 q 100 38 139 -6 q 64 151 64 85 q 125 275 64 218 l 176 310 l 221 333 l 267 353 l 407 407 q 385 551 407 511 q 301 604 357 604 q 215 581 246 604 q 186 521 186 556 l 186 510 q 174 440 186 456 q 135 425 161 425 q 100 438 111 425 q 88 463 89 450 l 88 507 q 164 599 88 556 q 229 625 197 618 q 300 632 260 632 q 474 558 424 632 q 507 426 507 511 l 507 154 l 510 108 l 521 76 q 544 67 531 67 q 575 76 568 71 l 614 111 l 614 90 m 408 131 l 408 381 l 346 357 l 304 340 q 207 275 236 304 q 164 182 164 232 q 192 97 164 138 q 265 60 224 60 q 358 96 306 60 l 408 131 m 394 138 l 333 96 q 265 74 293 74 q 201 108 226 74 q 176 183 176 144 q 214 267 176 228 q 301 324 240 296 l 394 361 l 394 138 z "},"â":{"ha":661,"x_min":50,"x_max":628,"o":"m 513 713 l 376 950 l 243 950 l 107 713 l 140 713 l 294 853 l 474 713 l 513 713 m 486 725 l 482 726 l 294 872 l 138 726 l 132 725 l 250 936 l 368 936 l 486 725 m 628 88 l 628 144 l 589 107 q 542 81 563 81 q 521 136 521 85 l 521 144 l 521 428 q 486 568 521 515 q 299 646 433 646 q 154 608 221 646 q 74 508 74 565 q 90 432 74 453 q 144 411 107 411 q 194 449 182 411 q 200 511 200 461 q 226 572 200 554 q 304 590 250 590 q 379 533 356 590 q 394 415 394 496 l 253 363 q 113 278 156 318 q 50 147 50 215 q 90 26 50 74 q 193 -19 136 -19 q 306 13 253 -19 l 394 76 q 414 8 394 36 q 474 -19 433 -19 q 560 17 515 -19 q 628 88 582 36 m 614 90 q 538 14 572 36 q 507 -1 518 1 l 475 -6 q 425 15 442 -6 q 408 93 408 43 l 408 103 l 313 31 q 283 14 294 18 q 250 1 274 8 q 197 -6 222 -6 q 100 38 139 -6 q 64 151 64 85 q 125 275 64 218 l 176 310 l 221 333 l 267 353 l 407 407 q 385 551 407 511 q 301 604 357 604 q 215 581 246 604 q 186 521 186 556 l 186 510 q 174 440 186 456 q 135 425 161 425 q 100 438 111 425 q 88 463 89 450 l 88 507 q 164 599 88 556 q 229 625 197 618 q 300 632 260 632 q 474 558 424 632 q 507 426 507 511 l 507 154 l 510 108 l 521 76 q 544 67 531 67 q 575 76 568 71 l 614 111 l 614 90 m 408 131 l 408 381 l 346 357 l 304 340 q 207 275 236 304 q 164 182 164 232 q 192 97 164 138 q 265 60 224 60 q 358 96 306 60 l 408 131 m 394 138 l 333 96 q 265 72 290 72 q 201 108 226 72 q 176 183 176 144 q 214 267 176 228 q 301 324 240 296 l 394 361 l 394 138 z "},"ã":{"ha":683,"x_min":50,"x_max":628,"o":"m 551 950 l 518 950 q 510 915 515 933 l 503 893 l 503 892 q 461 856 486 856 q 363 903 435 856 q 228 950 290 950 q 133 890 167 950 l 129 882 q 125 872 126 875 q 122 865 124 867 q 114 840 121 861 q 107 800 107 817 l 107 765 l 104 758 l 139 758 q 143 799 139 782 l 158 831 q 196 853 175 853 q 257 828 218 853 l 329 781 q 432 758 376 758 q 524 822 489 758 q 551 950 551 876 m 538 936 q 510 826 538 875 q 428 772 472 772 q 333 797 379 772 l 260 843 q 190 867 219 867 q 147 842 158 867 q 128 772 136 814 l 118 772 l 118 792 l 125 832 q 146 883 133 863 q 232 936 182 936 q 357 889 283 936 q 460 842 429 842 q 510 875 492 842 q 529 936 521 896 l 538 936 m 628 88 l 628 144 l 589 107 q 542 81 563 81 q 521 136 521 85 l 521 144 l 521 428 q 486 568 521 515 q 299 646 433 646 q 154 608 221 646 q 74 508 74 565 q 90 432 74 453 q 144 411 107 411 q 194 449 182 411 q 200 511 200 461 q 226 572 200 554 q 304 590 250 590 q 379 533 356 590 q 394 417 394 496 l 253 363 q 113 278 156 318 q 50 147 50 215 q 90 26 50 74 q 193 -19 136 -19 q 306 13 253 -19 l 394 76 q 414 8 394 36 q 474 -19 433 -19 q 560 17 515 -19 q 628 88 582 36 m 614 90 q 538 14 572 36 q 507 -1 518 1 l 475 -6 q 425 15 442 -6 q 408 93 408 43 l 408 103 l 313 31 q 283 14 294 18 q 250 1 274 8 q 197 -6 222 -6 q 100 38 139 -6 q 63 151 63 83 q 125 275 63 219 l 178 310 l 222 333 l 267 353 l 407 407 q 385 551 407 511 q 301 604 357 604 q 215 581 246 604 q 186 521 186 556 l 186 510 q 174 440 186 456 q 135 425 161 425 q 100 438 111 425 q 88 463 89 450 l 88 507 q 164 599 88 556 q 229 625 197 618 q 300 632 260 632 q 474 558 424 632 q 507 426 507 511 l 507 154 l 510 108 l 521 76 q 544 67 531 67 q 575 76 568 71 l 614 111 l 614 90 m 408 131 l 408 381 l 346 357 l 304 340 q 207 275 236 304 q 164 182 164 232 q 192 97 164 138 q 265 60 224 60 q 358 96 306 60 l 408 131 m 394 138 l 333 96 q 265 72 290 72 q 201 108 226 72 q 176 183 176 144 q 214 267 176 228 q 301 324 240 296 l 394 361 l 394 138 z "},"ä":{"ha":700,"x_min":50,"x_max":628,"o":"m 510 835 q 486 890 510 869 q 429 914 463 914 q 374 890 397 914 q 350 833 350 867 q 374 776 350 800 q 431 753 397 753 q 486 776 465 753 q 510 835 510 800 m 496 833 q 476 786 496 806 q 429 767 457 767 q 385 788 406 767 q 363 835 363 806 q 383 881 363 863 q 431 900 403 900 q 476 881 460 900 q 496 833 496 861 m 271 835 q 247 890 271 869 q 190 914 224 914 q 135 890 158 914 q 111 833 111 867 q 135 776 111 800 q 192 753 158 753 q 247 776 224 753 q 271 835 271 800 m 257 833 q 238 786 257 806 q 190 767 218 767 q 144 786 164 767 q 125 835 125 806 q 144 882 125 863 q 190 900 163 900 q 238 881 218 900 q 257 833 257 861 m 628 88 l 628 144 l 589 107 q 542 81 563 81 q 521 136 521 85 l 521 144 l 521 428 q 486 568 521 515 q 299 646 433 646 q 154 608 221 646 q 74 508 74 565 q 90 432 74 453 q 144 411 107 411 q 194 449 182 411 q 200 511 200 461 q 226 572 200 554 q 304 590 250 590 q 379 533 356 590 q 394 417 394 496 l 253 363 q 113 278 156 318 q 50 147 50 215 q 90 26 50 74 q 193 -19 136 -19 q 306 13 253 -19 l 394 76 q 414 8 394 36 q 474 -19 433 -19 q 560 17 515 -19 q 628 88 582 36 m 614 90 q 538 14 572 36 q 507 -1 518 1 l 475 -6 q 425 15 442 -6 q 408 93 408 43 l 408 103 l 313 31 q 283 14 294 18 q 250 1 274 8 q 197 -6 222 -6 q 100 38 139 -6 q 63 151 63 83 q 124 275 63 218 l 175 310 l 221 333 l 267 353 l 407 407 q 385 551 407 511 q 301 604 357 604 q 215 581 246 604 q 186 521 186 556 l 186 510 q 174 440 186 456 q 135 425 161 425 q 100 438 111 425 q 88 463 89 450 l 88 507 q 164 599 88 556 q 229 625 197 618 q 300 632 260 632 q 474 558 424 632 q 507 426 507 511 l 507 154 l 510 108 l 521 76 q 544 67 531 67 q 575 76 568 71 l 614 111 l 614 90 m 408 131 l 408 381 l 346 357 l 304 340 q 207 275 236 304 q 164 182 164 232 q 192 97 164 138 q 265 60 224 60 q 358 96 306 60 l 408 131 m 394 138 l 333 96 q 265 74 293 74 q 201 108 226 74 q 175 183 175 143 q 214 267 175 228 q 301 324 240 296 l 394 361 l 394 138 z "},"å":{"ha":672,"x_min":50,"x_max":628,"o":"m 436 824 q 399 914 436 876 q 307 950 361 950 q 217 914 253 950 q 179 824 179 876 q 218 735 179 769 q 307 699 257 699 q 397 735 357 699 q 436 824 436 774 m 428 824 q 393 742 428 776 q 307 706 357 706 q 222 740 257 706 q 188 824 188 775 q 222 907 188 872 q 307 942 257 942 q 393 907 358 942 q 428 824 428 872 m 401 824 q 375 889 401 863 q 307 915 349 915 q 240 889 267 915 q 213 825 213 861 q 240 760 213 788 q 307 732 268 732 q 374 760 346 732 q 401 824 401 788 m 394 824 q 368 764 394 786 q 307 740 340 740 q 247 764 275 740 q 221 824 221 790 q 246 883 221 858 q 307 907 269 907 q 369 882 343 907 q 394 824 394 857 m 628 88 l 628 144 l 589 107 q 542 81 563 81 q 521 136 521 85 l 521 144 l 521 428 q 486 568 521 515 q 299 646 433 646 q 154 608 221 646 q 74 508 74 565 q 90 432 74 453 q 144 411 107 411 q 194 449 182 411 q 200 511 200 461 q 226 572 200 554 q 304 590 250 590 q 379 533 356 590 q 394 417 394 496 l 253 363 q 113 278 156 318 q 50 147 50 215 q 90 26 50 74 q 193 -19 136 -19 q 306 13 253 -19 l 394 76 q 414 8 394 36 q 474 -19 433 -19 q 560 17 515 -19 q 628 88 582 36 m 614 90 q 538 14 572 36 q 507 -1 518 1 l 475 -6 q 425 15 442 -6 q 408 93 408 43 l 408 103 l 313 31 q 283 14 294 18 q 250 1 274 8 q 197 -6 222 -6 q 100 38 139 -6 q 63 151 63 83 q 124 275 63 218 l 175 310 l 221 333 l 267 353 l 407 407 q 385 551 407 511 q 301 604 357 604 q 215 581 246 604 q 186 521 186 556 l 186 510 q 174 440 186 456 q 135 425 161 425 q 100 438 111 425 q 88 463 89 450 l 88 507 q 164 599 88 556 q 229 625 197 618 q 300 632 260 632 q 474 558 424 632 q 507 426 507 511 l 507 154 l 510 108 l 521 76 q 544 67 531 67 q 575 76 568 71 l 614 111 l 614 90 m 408 131 l 408 381 l 346 357 l 304 340 q 207 275 236 304 q 164 182 164 232 q 192 97 164 138 q 265 60 224 60 q 358 96 306 60 l 408 131 m 394 138 l 333 96 q 265 72 290 72 q 201 108 226 72 q 175 183 175 143 q 214 267 175 228 q 301 324 240 296 l 394 361 l 394 138 z "},"æ":{"ha":940,"x_min":50,"x_max":899,"o":"m 899 221 l 867 242 q 763 111 836 149 q 665 89 721 89 q 563 139 603 89 q 519 242 528 178 q 511 378 511 303 l 897 378 l 897 385 q 881 489 897 442 q 842 571 863 540 q 699 647 786 647 q 569 629 618 647 q 490 569 519 610 q 408 633 464 617 q 293 647 372 647 q 153 610 219 647 q 71 510 71 565 q 92 438 71 458 q 149 415 110 415 q 194 463 190 415 l 204 549 q 289 594 225 594 q 375 529 356 594 q 382 447 382 508 l 382 431 l 382 410 l 281 368 l 214 336 l 165 307 q 81 239 97 261 q 57 199 60 210 l 50 165 l 50 117 q 63 68 50 92 q 94 22 72 47 q 207 -25 140 -25 q 332 6 274 -25 q 376 35 350 15 l 438 81 q 529 -3 486 21 q 654 -25 572 -25 q 810 49 739 -25 q 897 215 872 115 l 899 221 m 883 214 q 799 58 856 117 q 647 -11 729 -11 q 521 17 565 -11 q 438 99 497 31 l 411 74 l 386 54 l 333 22 q 207 -11 265 -11 q 104 32 143 -11 q 64 139 64 76 q 103 249 64 201 q 203 317 138 283 l 297 364 l 349 385 l 369 393 q 394 400 379 399 q 374 565 394 531 q 282 607 344 607 q 196 561 215 607 l 183 475 q 146 429 175 429 q 100 446 115 429 q 85 510 85 464 q 163 600 85 558 q 300 633 229 633 q 413 618 367 633 q 486 544 465 593 q 565 614 519 590 q 619 629 588 625 l 692 633 q 831 563 775 633 q 883 392 883 497 l 499 392 l 499 379 q 532 163 499 225 q 663 76 576 76 q 789 113 732 76 q 871 222 844 153 l 883 214 m 764 425 l 760 474 q 738 547 749 533 q 636 599 703 599 q 531 546 567 599 q 503 472 511 522 l 497 425 l 764 425 m 753 435 l 511 435 q 544 540 511 494 q 635 585 576 585 q 726 539 696 585 q 753 435 753 500 m 429 124 q 400 218 403 183 q 396 265 396 251 l 396 293 l 394 371 l 296 332 q 204 268 235 303 q 165 174 165 225 q 196 86 165 121 q 271 47 226 47 q 358 74 314 47 l 429 124 m 411 128 l 349 83 q 279 60 308 60 q 204 96 232 60 q 176 183 176 132 q 251 289 176 238 q 382 351 306 325 l 382 326 l 386 229 q 411 128 393 171 z "},"ç":{"ha":631,"x_min":47,"x_max":586,"o":"m 586 240 l 554 256 l 554 249 q 463 121 504 147 q 347 93 419 93 q 218 188 272 93 q 172 361 172 271 q 207 515 172 454 q 326 588 254 588 q 418 507 404 588 q 479 426 431 426 q 549 444 531 426 q 568 511 568 461 q 490 607 568 558 q 319 646 426 646 q 131 550 214 646 q 47 318 47 453 q 108 92 47 186 q 192 6 142 38 q 294 -24 242 -24 l 236 -119 l 268 -119 q 303 -135 289 -124 q 315 -165 315 -146 q 290 -207 315 -189 q 249 -225 267 -225 l 218 -225 l 201 -222 l 201 -268 l 232 -271 l 293 -271 q 378 -233 331 -271 q 425 -150 425 -196 q 403 -75 425 -101 q 343 -37 381 -49 l 353 -22 q 508 67 450 -4 q 586 235 563 133 l 586 240 m 571 232 q 542 146 557 179 q 501 81 528 115 q 363 -7 443 10 q 344 -14 351 -7 l 335 -26 l 322 -50 q 390 -83 369 -62 q 411 -150 411 -104 q 369 -226 411 -192 q 293 -261 329 -261 l 244 -261 l 215 -258 l 215 -236 l 229 -236 l 257 -236 q 304 -212 276 -235 q 329 -164 329 -192 q 313 -119 329 -135 q 264 -104 293 -104 l 313 -28 l 315 -21 q 303 -14 308 -14 q 200 14 249 -14 q 119 96 153 46 q 61 315 61 190 q 140 540 61 447 q 319 633 217 633 q 482 597 417 633 q 554 511 554 550 q 536 453 554 465 q 486 440 518 440 q 436 482 449 440 l 415 558 q 319 601 397 601 q 197 524 243 601 q 158 361 158 464 q 207 178 158 260 q 351 81 269 81 q 489 126 439 81 q 563 236 529 163 l 571 232 z "},"è":{"ha":644,"x_min":51,"x_max":590,"o":"m 399 701 l 324 950 l 151 950 l 363 701 l 399 701 m 381 715 l 369 715 l 181 936 l 313 936 l 381 715 m 590 231 l 560 251 q 496 143 522 169 q 364 99 451 99 q 215 190 276 99 q 175 276 186 232 q 161 381 161 322 l 590 381 q 525 575 590 501 q 331 647 461 647 q 124 543 203 647 q 51 308 51 450 q 122 76 51 171 q 317 -25 203 -25 q 506 53 432 -25 q 590 231 574 125 m 576 222 q 490 56 556 121 q 315 -12 425 -12 q 131 86 204 -12 q 65 308 65 176 q 133 532 65 443 q 329 633 208 633 q 513 567 449 633 q 576 394 576 494 l 147 394 q 161 281 147 331 q 203 185 176 226 q 360 86 268 86 q 497 125 454 86 q 565 231 540 164 l 576 222 m 449 419 q 365 588 449 553 q 340 597 353 594 q 308 599 333 599 q 257 585 286 593 q 231 576 243 582 q 226 575 228 575 q 147 419 147 528 l 449 419 m 435 433 l 161 433 q 267 578 181 549 q 306 585 283 585 q 397 544 364 585 q 435 433 435 506 z "},"é":{"ha":656,"x_min":51,"x_max":590,"o":"m 501 956 l 329 956 l 254 707 l 290 707 l 501 956 m 471 942 l 282 721 l 271 721 l 339 942 l 471 942 m 590 231 l 560 251 q 496 143 522 169 q 364 99 451 99 q 215 190 276 99 q 175 276 186 232 q 161 381 161 322 l 590 381 q 525 575 590 501 q 331 647 461 647 q 124 543 203 647 q 51 308 51 450 q 122 76 51 171 q 317 -25 203 -25 q 506 53 432 -25 q 590 231 574 125 m 576 222 q 490 56 556 121 q 315 -12 425 -12 q 131 86 204 -12 q 65 308 65 176 q 133 532 65 443 q 329 633 208 633 q 513 567 449 633 q 576 394 576 494 l 147 394 q 161 281 147 331 q 203 185 176 226 q 360 86 268 86 q 497 125 454 86 q 565 231 540 164 l 576 222 m 449 419 q 365 588 449 553 q 340 597 353 594 q 308 599 333 599 q 257 585 286 593 q 231 576 243 582 q 226 575 228 575 q 147 419 147 528 l 449 419 m 435 433 l 161 433 q 267 578 181 549 q 306 585 283 585 q 397 544 364 585 q 435 433 435 506 z "},"ê":{"ha":600,"x_min":51,"x_max":590,"o":"m 546 718 l 410 956 l 276 956 l 140 718 l 174 718 l 328 857 l 507 718 l 546 718 m 519 731 l 515 732 l 328 876 l 171 732 l 164 729 l 283 942 l 401 942 l 519 731 m 590 231 l 560 251 q 496 143 522 169 q 364 99 451 99 q 215 190 276 99 q 175 276 186 232 q 161 381 161 322 l 590 381 q 525 575 590 501 q 331 647 461 647 q 124 543 203 647 q 51 308 51 450 q 122 76 51 171 q 317 -25 203 -25 q 506 53 432 -25 q 590 231 574 125 m 576 222 q 490 56 556 121 q 315 -12 425 -12 q 131 86 204 -12 q 65 308 65 176 q 133 532 65 443 q 329 633 208 633 q 513 567 449 633 q 576 394 576 494 l 147 394 q 161 281 147 331 q 203 185 176 226 q 360 86 268 86 q 497 125 454 86 q 565 231 540 164 l 576 222 m 449 419 q 365 588 449 553 q 340 597 353 594 q 308 599 333 599 q 257 585 286 593 q 231 576 243 582 q 226 575 228 575 q 147 419 147 528 l 449 419 m 435 433 l 161 433 q 267 578 181 549 q 306 585 283 585 q 397 544 364 585 q 435 433 435 506 z "},"ë":{"ha":622,"x_min":51,"x_max":590,"o":"m 521 835 q 496 890 521 869 q 439 914 472 914 q 383 890 407 914 q 360 833 360 867 q 383 776 360 800 q 440 753 407 753 q 496 776 475 753 q 521 835 521 800 m 507 833 q 488 786 507 806 q 440 767 468 767 q 396 788 417 767 q 374 835 374 806 q 394 881 374 863 q 442 900 414 900 q 488 881 471 900 q 507 833 507 861 m 282 835 q 258 890 282 869 q 201 914 235 914 q 146 890 169 914 q 122 833 122 867 q 146 776 122 800 q 203 753 169 753 q 258 776 235 753 q 282 835 282 800 m 268 833 q 249 786 268 806 q 201 767 229 767 q 156 786 175 767 q 136 835 136 806 q 156 882 136 863 q 201 900 174 900 q 249 881 229 900 q 268 833 268 861 m 590 231 l 560 251 q 496 143 522 169 q 364 99 451 99 q 215 190 276 99 q 175 276 186 232 q 161 381 161 322 l 590 381 q 525 575 590 501 q 331 647 461 647 q 124 543 203 647 q 51 308 51 450 q 122 76 51 171 q 317 -25 203 -25 q 506 53 432 -25 q 590 231 574 125 m 576 224 q 490 56 556 124 q 315 -12 425 -12 q 131 86 204 -12 q 65 308 65 176 q 133 532 65 443 q 329 633 208 633 q 513 567 449 633 q 576 394 576 494 l 147 394 q 161 281 147 331 q 203 185 176 226 q 360 86 268 86 q 497 125 454 86 q 565 231 540 164 l 576 224 m 449 419 q 365 588 449 553 q 340 597 353 594 q 308 599 333 599 q 257 585 286 593 q 231 576 243 582 q 226 575 228 575 q 147 419 147 528 l 449 419 m 435 433 l 161 433 q 267 578 181 549 q 306 585 283 585 q 397 544 364 585 q 435 433 435 506 z "},"ì":{"ha":411,"x_min":13,"x_max":374,"o":"m 260 701 l 185 950 l 13 950 l 224 701 l 260 701 m 242 715 l 231 715 l 42 936 l 174 936 l 242 715 m 374 -4 l 374 21 q 290 35 308 21 q 274 93 274 51 l 274 649 l 235 649 l 42 597 l 60 572 l 85 578 l 104 581 l 118 581 l 129 576 q 146 525 146 564 l 146 89 q 124 40 146 58 q 56 21 100 21 l 56 -4 l 374 -4 m 360 4 l 69 4 l 69 13 l 115 26 q 160 93 160 50 l 160 540 q 118 589 147 589 l 65 583 l 58 592 l 236 639 l 260 639 l 260 94 l 260 56 q 272 32 264 40 q 360 13 292 13 l 360 4 z "},"í":{"ha":467,"x_min":42,"x_max":374,"o":"m 346 956 l 174 956 l 99 707 l 135 707 l 346 956 m 315 942 l 126 721 l 115 721 l 183 942 l 315 942 m 374 -4 l 374 21 q 290 33 307 21 q 274 93 274 50 l 274 643 l 235 643 l 42 592 l 60 568 l 85 575 l 104 575 l 118 575 l 129 575 q 146 522 146 561 l 146 89 q 124 40 146 58 q 56 21 100 21 l 56 -4 l 374 -4 m 360 4 l 69 4 l 69 13 l 115 26 q 160 93 160 50 l 160 538 q 118 585 150 585 l 65 579 l 58 586 l 235 635 l 260 635 l 260 94 l 260 56 q 272 32 264 40 q 360 13 292 13 l 360 4 z "},"î":{"ha":428,"x_min":-15,"x_max":390,"o":"m 390 713 l 254 950 l 121 950 l -15 713 l 18 713 l 172 853 l 351 713 l 390 713 m 364 725 l 360 726 l 172 872 l 15 726 l 10 725 l 128 936 l 246 936 l 364 725 m 374 -4 l 374 21 q 290 35 308 21 q 274 94 274 51 l 274 654 l 235 654 l 42 601 l 60 578 l 85 583 l 104 585 l 118 585 l 129 582 q 146 529 146 565 l 146 90 q 133 51 146 68 q 56 21 107 21 l 56 -4 l 374 -4 m 360 4 l 69 4 l 69 13 l 115 26 q 160 94 160 50 l 160 546 q 118 594 147 594 l 65 589 l 60 594 l 236 644 l 260 644 l 260 96 l 260 57 q 272 33 264 42 q 360 13 296 13 l 360 4 z "},"ï":{"ha":511,"x_min":39,"x_max":438,"o":"m 438 840 q 413 896 438 875 q 356 919 389 919 q 300 896 324 919 q 276 839 276 872 q 300 782 276 806 q 357 758 324 758 q 413 782 392 758 q 438 840 438 806 m 424 839 q 404 792 424 811 q 357 772 385 772 q 313 793 333 772 q 290 840 290 811 q 311 886 290 868 q 358 906 331 906 q 404 886 388 906 q 424 839 424 867 m 199 840 q 175 896 199 875 q 118 919 151 919 q 63 896 86 919 q 39 839 39 872 q 63 782 39 806 q 119 758 86 758 q 175 782 151 758 q 199 840 199 806 m 185 839 q 165 792 185 811 q 118 772 146 772 q 72 792 92 772 q 53 840 53 811 q 72 888 53 868 q 118 906 90 906 q 165 886 146 906 q 185 839 185 867 m 418 -3 l 418 22 q 335 35 351 22 q 318 94 318 51 l 318 644 l 276 644 l 86 593 l 104 569 l 129 576 l 149 576 l 163 576 l 174 576 q 190 524 190 563 l 190 90 q 168 42 190 60 q 100 22 144 22 l 100 -3 l 418 -3 m 404 6 l 114 6 l 114 14 l 160 28 q 204 94 204 51 l 204 539 q 163 586 194 586 l 110 581 l 103 588 l 279 636 l 304 636 l 304 96 l 304 57 q 317 33 308 42 q 404 14 336 14 l 404 6 z "},"ð":{"ha":707,"x_min":46,"x_max":657,"o":"m 657 321 q 581 601 657 463 q 503 719 543 668 q 400 828 461 771 l 553 914 l 524 963 l 353 868 l 272 924 l 189 974 l 183 974 l 158 932 l 206 894 l 242 867 l 283 829 l 126 742 l 154 693 l 322 785 l 354 746 l 372 721 l 382 704 q 435 614 417 656 q 385 636 410 632 q 288 640 363 640 q 124 532 210 640 q 46 299 46 433 q 132 72 46 169 q 349 -25 217 -25 q 571 79 486 -25 q 657 321 657 185 m 643 321 q 558 88 643 185 q 347 -11 472 -11 q 139 83 218 -11 q 60 299 60 178 q 133 522 60 424 q 296 626 217 626 q 408 613 379 626 l 432 599 l 469 574 l 436 640 l 404 694 q 325 801 365 756 l 158 711 l 146 735 l 306 825 l 279 853 l 244 886 l 176 936 l 188 956 q 271 904 228 935 l 353 850 l 518 943 l 535 919 l 376 829 q 568 599 492 739 q 643 321 643 456 m 532 246 q 515 400 532 328 q 456 538 490 494 q 332 600 401 600 q 201 515 239 600 q 172 344 172 453 q 215 140 172 236 q 367 22 271 22 q 501 103 464 22 q 532 246 532 163 m 518 256 l 518 229 l 513 176 l 493 113 q 368 36 456 36 q 228 150 279 36 q 186 343 186 244 q 211 506 186 442 q 325 586 250 586 q 447 525 401 586 q 503 392 485 475 l 508 361 l 514 321 l 518 256 z "},"ñ":{"ha":756,"x_min":11,"x_max":722,"o":"m 563 956 l 529 956 q 521 921 526 939 l 514 899 l 514 897 q 472 861 497 861 q 374 908 446 861 q 239 956 301 956 q 144 896 178 956 l 140 888 q 136 878 138 881 q 133 871 135 872 q 125 846 132 867 q 118 806 118 822 l 118 771 l 115 764 l 150 764 q 154 804 150 788 l 169 838 q 207 860 186 860 q 268 835 229 860 l 340 788 q 443 764 390 764 q 535 828 500 764 q 563 956 563 882 m 549 942 q 521 832 549 881 q 439 778 483 778 q 346 800 389 778 l 271 846 q 201 869 231 869 q 158 846 169 869 q 139 778 147 821 l 129 778 l 129 797 l 136 838 q 157 889 144 868 q 243 942 193 942 q 368 894 294 942 q 471 847 440 847 q 521 881 503 847 q 540 942 532 901 l 549 942 m 722 -7 l 722 31 q 633 75 658 31 q 619 139 619 101 l 619 465 q 540 624 619 578 q 463 646 515 638 q 371 628 413 646 l 336 607 l 304 583 l 244 524 l 244 646 l 207 646 l 11 568 l 28 531 l 51 538 l 74 542 l 89 542 l 100 536 q 118 460 118 518 l 118 139 q 104 78 118 107 q 25 31 81 36 l 25 -7 l 346 -7 l 346 31 q 260 72 285 31 q 244 140 244 99 l 244 471 q 315 531 271 507 q 404 553 356 553 q 476 506 456 553 q 494 407 494 471 l 494 147 q 478 78 494 103 q 394 31 451 39 l 394 -7 l 722 -7 m 708 7 l 408 7 l 408 18 q 493 72 471 33 q 508 140 508 99 l 508 411 q 493 510 508 468 q 410 568 468 568 q 356 560 383 568 l 304 538 q 231 476 246 506 l 231 139 q 247 63 231 92 q 332 18 271 18 l 332 7 l 39 7 l 39 18 l 83 40 q 129 140 129 76 l 129 465 q 108 544 124 536 q 83 556 93 556 l 58 556 l 39 549 l 28 560 l 207 632 l 231 632 l 231 492 l 282 542 l 329 583 q 453 632 390 632 q 543 607 508 632 q 608 475 600 567 l 608 140 q 625 61 608 90 q 708 18 647 18 l 708 7 z "},"ò":{"ha":683,"x_min":47,"x_max":660,"o":"m 426 707 l 351 956 l 179 956 l 390 707 l 426 707 m 408 721 l 397 721 l 208 942 l 340 942 l 408 721 m 660 319 q 571 551 660 457 q 353 646 481 646 q 131 542 221 646 q 47 304 47 442 q 128 75 47 168 q 350 -25 218 -25 q 575 81 486 -25 q 660 319 660 178 m 646 318 q 560 89 646 190 q 349 -11 475 -11 q 140 83 218 -11 q 61 307 61 178 q 143 535 61 436 q 354 632 224 632 q 563 539 478 632 q 646 318 646 446 m 533 256 q 517 410 533 342 q 456 543 489 503 q 333 604 403 604 q 204 521 246 604 q 174 375 174 463 q 193 210 174 294 q 254 85 215 129 q 385 24 303 24 q 506 107 467 24 q 533 256 533 169 m 519 271 q 475 86 519 147 q 357 38 439 38 q 226 158 279 38 q 197 253 206 204 q 188 351 188 297 q 215 513 188 450 q 326 590 256 590 q 446 532 400 590 q 481 478 468 510 q 503 406 493 454 q 519 271 519 338 z "},"ó":{"ha":694,"x_min":47,"x_max":660,"o":"m 513 950 l 340 950 l 265 701 l 301 701 l 513 950 m 482 936 l 293 715 l 282 715 l 350 936 l 482 936 m 660 319 q 571 551 660 457 q 353 646 481 646 q 131 542 221 646 q 47 304 47 442 q 128 75 47 168 q 350 -25 218 -25 q 575 81 486 -25 q 660 319 660 178 m 646 318 q 560 89 646 190 q 349 -11 475 -11 q 140 83 218 -11 q 61 307 61 178 q 143 535 61 436 q 354 632 224 632 q 563 539 478 632 q 646 318 646 446 m 533 256 q 517 410 533 342 q 456 543 489 503 q 333 604 403 604 q 204 521 246 604 q 174 375 174 463 q 193 210 174 294 q 254 85 215 129 q 385 24 303 24 q 506 107 467 24 q 533 256 533 169 m 519 271 q 475 86 519 147 q 357 38 439 38 q 226 158 279 38 q 197 253 206 204 q 188 351 188 297 q 215 513 188 450 q 326 590 256 590 q 446 532 400 590 q 481 478 468 510 q 503 406 493 454 q 519 271 519 338 z "},"ô":{"ha":694,"x_min":47,"x_max":660,"o":"m 551 718 l 415 956 l 282 956 l 146 718 l 179 718 l 333 858 l 513 718 l 551 718 m 525 731 l 521 732 l 333 878 l 176 732 l 171 731 l 289 942 l 407 942 l 525 731 m 660 319 q 571 551 660 457 q 353 646 481 646 q 131 542 221 646 q 47 304 47 442 q 128 75 47 168 q 350 -25 218 -25 q 575 81 486 -25 q 660 319 660 178 m 646 318 q 560 89 646 190 q 349 -11 475 -11 q 140 83 218 -11 q 61 307 61 178 q 143 535 61 436 q 354 632 224 632 q 563 539 478 632 q 646 318 646 446 m 533 256 q 517 410 533 342 q 456 543 489 503 q 333 604 403 604 q 204 521 246 604 q 174 375 174 463 q 193 210 174 294 q 254 85 215 129 q 385 24 303 24 q 506 107 467 24 q 533 256 533 169 m 519 271 q 475 86 519 147 q 357 38 439 38 q 226 158 279 38 q 197 253 206 204 q 188 351 188 297 q 215 513 188 450 q 326 590 256 590 q 446 532 400 590 q 481 478 468 510 q 503 406 493 454 q 519 271 519 338 z "},"õ":{"ha":700,"x_min":47,"x_max":660,"o":"m 574 950 l 540 950 q 532 915 538 933 l 525 893 l 525 892 q 483 856 508 856 q 385 903 457 856 q 250 950 313 950 q 156 890 189 950 l 151 882 q 147 872 149 875 q 144 865 146 867 q 136 840 143 861 q 129 800 129 817 l 129 765 l 126 758 l 161 758 q 165 799 161 782 l 181 831 q 218 853 197 853 q 279 828 240 853 l 351 781 q 454 758 399 758 q 546 822 511 758 q 574 950 574 876 m 560 936 q 532 826 560 875 q 450 772 494 772 q 356 797 401 772 l 282 843 q 213 867 242 867 q 169 842 181 867 q 150 772 158 814 l 140 772 l 140 792 l 147 832 q 168 883 156 863 q 254 936 204 936 q 379 889 306 936 q 482 842 451 842 q 532 875 514 842 q 551 936 543 896 l 560 936 m 660 319 q 571 551 660 457 q 353 646 481 646 q 131 542 221 646 q 47 304 47 442 q 128 75 47 168 q 350 -25 218 -25 q 575 81 486 -25 q 660 319 660 178 m 646 318 q 560 89 646 190 q 349 -11 475 -11 q 140 83 218 -11 q 61 307 61 178 q 143 535 61 436 q 354 632 224 632 q 563 539 478 632 q 646 318 646 446 m 533 256 q 517 410 533 342 q 456 543 489 503 q 333 604 403 604 q 204 521 246 604 q 174 375 174 463 q 193 210 174 294 q 254 85 215 129 q 385 24 303 24 q 506 107 467 24 q 533 256 533 169 m 519 271 q 475 86 519 147 q 357 38 439 38 q 226 158 279 38 q 197 253 206 204 q 188 351 188 297 q 215 513 188 450 q 326 590 256 590 q 446 532 400 590 q 481 478 468 510 q 503 406 493 454 q 519 271 519 338 z "},"ö":{"ha":711,"x_min":47,"x_max":660,"o":"m 554 835 q 529 890 554 869 q 472 914 506 914 q 417 890 440 914 q 393 833 393 867 q 417 776 393 800 q 474 753 440 753 q 529 776 508 753 q 554 835 554 800 m 540 833 q 521 786 540 806 q 474 767 501 767 q 429 788 450 767 q 407 835 407 806 q 428 881 407 863 q 475 900 447 900 q 521 881 504 900 q 540 833 540 861 m 315 835 q 292 890 315 869 q 235 914 268 914 q 179 890 203 914 q 156 833 156 867 q 179 776 156 800 q 236 753 203 753 q 292 776 268 753 q 315 835 315 800 m 301 833 q 282 786 301 806 q 235 767 263 767 q 189 786 208 767 q 169 835 169 806 q 189 882 169 863 q 235 900 207 900 q 282 881 263 900 q 301 833 301 861 m 660 319 q 571 551 660 457 q 353 646 481 646 q 131 542 221 646 q 47 304 47 442 q 128 75 47 168 q 350 -25 218 -25 q 575 81 486 -25 q 660 319 660 178 m 646 318 q 560 89 646 190 q 349 -11 475 -11 q 140 83 218 -11 q 61 307 61 178 q 143 535 61 436 q 354 632 224 632 q 563 539 478 632 q 646 318 646 446 m 533 256 q 517 410 533 342 q 456 543 489 503 q 333 604 403 604 q 204 521 246 604 q 174 375 174 463 q 193 210 174 294 q 254 85 215 129 q 385 24 303 24 q 506 107 467 24 q 533 256 533 169 m 521 271 q 476 86 521 147 q 358 38 440 38 q 226 158 279 38 q 196 253 207 204 q 186 351 186 297 q 215 513 186 453 q 326 590 256 590 q 447 532 401 590 q 482 478 469 510 q 504 406 494 454 q 521 271 521 338 z "},"÷":{"ha":776,"x_min":15,"x_max":760,"o":"m 453 669 q 435 718 453 700 q 386 736 417 736 q 340 717 360 736 q 321 668 321 694 q 339 622 321 644 q 388 604 357 604 q 435 622 417 604 q 453 669 453 640 m 439 669 q 422 633 438 649 q 386 618 407 618 q 349 635 364 622 q 335 671 335 649 q 350 708 335 693 q 388 722 364 722 q 424 707 411 722 q 439 669 439 692 m 760 428 l 760 496 l 15 496 l 15 428 l 760 428 m 746 442 l 29 442 l 29 482 l 746 482 l 746 442 m 453 250 q 435 297 453 279 q 388 315 417 315 q 340 296 360 315 q 321 249 321 276 q 342 203 321 222 q 389 183 361 183 q 435 203 415 183 q 453 250 453 221 m 439 250 q 422 213 439 228 q 386 197 404 197 q 350 213 365 199 q 335 251 335 231 q 351 289 339 276 q 388 301 364 301 q 424 283 413 297 q 439 250 439 268 z "},"ø":{"ha":714,"x_min":26,"x_max":688,"o":"m 688 636 l 646 672 l 556 572 q 465 626 507 613 q 363 646 419 646 q 142 542 229 646 q 54 349 54 438 q 72 200 54 260 q 122 92 92 136 l 26 -17 l 69 -54 l 161 49 q 251 -8 208 8 q 394 -25 296 -25 q 581 79 492 -25 q 665 308 665 176 q 594 531 665 438 l 688 636 m 667 635 l 576 532 q 633 426 610 481 q 651 283 651 382 q 569 88 651 186 q 389 -11 486 -11 q 249 10 297 -11 l 160 68 l 71 -35 l 44 -15 l 140 92 q 85 192 106 126 q 76 228 79 208 q 71 257 74 239 l 71 261 l 68 346 q 153 535 68 438 q 328 632 236 632 q 467 611 415 632 q 557 554 519 588 l 647 653 l 667 635 m 496 486 l 435 565 q 325 601 399 601 q 210 519 254 601 q 181 389 181 457 q 189 265 181 315 q 210 168 197 217 l 496 486 m 479 486 l 217 194 q 194 367 194 274 q 221 510 194 451 q 322 588 257 588 q 424 556 388 588 l 453 525 l 479 486 m 539 271 q 531 360 539 314 l 510 457 l 225 139 l 285 57 q 396 24 321 24 q 511 108 474 24 q 539 271 539 168 m 525 271 q 514 161 525 210 q 482 86 504 117 q 388 38 442 38 q 299 63 335 38 q 243 136 268 90 l 503 429 l 511 397 l 518 356 l 525 319 l 525 271 z "},"ù":{"ha":722,"x_min":1,"x_max":706,"o":"m 438 701 l 363 950 l 190 950 l 401 701 l 438 701 m 419 715 l 408 715 l 219 936 l 351 936 l 419 715 m 706 54 l 692 90 l 665 82 l 626 78 q 600 178 600 78 l 600 244 l 600 628 l 376 628 l 376 590 l 383 590 q 453 575 429 590 q 475 504 475 557 l 475 156 q 407 100 439 119 q 317 72 363 72 q 247 114 271 72 q 233 206 233 142 l 233 628 l 1 628 l 1 590 q 82 578 64 590 q 107 501 107 556 l 107 224 q 129 65 107 124 q 253 -25 169 -25 q 385 13 322 -25 q 475 96 418 35 l 475 -25 l 514 -25 l 706 54 m 689 63 l 510 -11 l 489 -11 l 489 131 l 394 35 q 268 -11 335 -11 q 164 36 203 -11 q 121 225 121 92 l 121 499 q 103 565 121 542 q 15 604 78 604 l 15 614 l 219 614 l 219 201 l 224 153 l 233 115 q 317 58 258 58 q 417 89 368 58 q 489 150 458 119 l 489 506 q 472 569 489 547 q 390 604 446 604 l 390 614 l 588 614 l 588 138 q 624 64 600 64 l 661 64 l 685 69 l 689 63 z "},"ú":{"ha":728,"x_min":1,"x_max":706,"o":"m 529 956 l 357 956 l 282 707 l 318 707 l 529 956 m 499 942 l 310 721 l 299 721 l 367 942 l 499 942 m 706 54 l 692 90 l 665 82 l 626 78 q 600 178 600 78 l 600 244 l 600 628 l 376 628 l 376 590 l 383 590 q 453 575 429 590 q 475 504 475 557 l 475 156 q 407 100 439 119 q 317 72 363 72 q 247 114 271 72 q 233 206 233 142 l 233 628 l 1 628 l 1 590 q 82 578 64 590 q 107 501 107 556 l 107 224 q 129 65 107 124 q 253 -25 169 -25 q 385 13 322 -25 q 475 96 418 35 l 475 -25 l 514 -25 l 706 54 m 689 63 l 510 -11 l 489 -11 l 489 131 l 394 35 q 268 -11 335 -11 q 164 36 203 -11 q 121 225 121 92 l 121 499 q 103 565 121 542 q 15 604 78 604 l 15 614 l 219 614 l 219 201 l 224 153 l 233 115 q 317 58 258 58 q 417 89 368 58 q 489 150 458 119 l 489 506 q 472 569 489 547 q 390 604 446 604 l 390 614 l 588 614 l 588 138 q 624 64 600 64 l 661 64 l 685 69 l 689 63 z "}}}
